G04 #@! TF.GenerationSoftware,KiCad,Pcbnew,(5.99.0-863-g2d7f4d60c)*
G04 #@! TF.CreationDate,2020-04-02T16:04:37+02:00*
G04 #@! TF.ProjectId,lab1,6c616231-2e6b-4696-9361-645f70636258,rev?*
G04 #@! TF.SameCoordinates,Original*
G04 #@! TF.FileFunction,Soldermask,Bot*
G04 #@! TF.FilePolarity,Negative*
%FSLAX46Y46*%
G04 Gerber Fmt 4.6, Leading zero omitted, Abs format (unit mm)*
G04 Created by KiCad (PCBNEW (5.99.0-863-g2d7f4d60c)) date 2020-04-02 16:04:37*
%MOMM*%
%LPD*%
G01*
G04 APERTURE LIST*
G04 APERTURE END LIST*
G36*
X47828042Y-34079000D02*
G01*
X47869373Y-34079000D01*
X47886560Y-34083605D01*
X47912987Y-34085685D01*
X47952068Y-34101158D01*
X47984080Y-34109736D01*
X48006663Y-34122774D01*
X48039080Y-34135609D01*
X48065356Y-34156660D01*
X48086920Y-34169110D01*
X48111191Y-34193381D01*
X48144920Y-34220403D01*
X48159146Y-34241336D01*
X48170890Y-34253080D01*
X48192134Y-34289877D01*
X48221148Y-34332569D01*
X48226128Y-34348756D01*
X48230264Y-34355920D01*
X48243310Y-34404606D01*
X48261025Y-34462191D01*
X48260960Y-34470477D01*
X48261000Y-34470627D01*
X48261000Y-34589373D01*
X48259996Y-34593118D01*
X48259904Y-34604885D01*
X48242448Y-34658609D01*
X48237244Y-34678030D01*
X48238920Y-34748443D01*
X48278398Y-34806772D01*
X48343144Y-34834498D01*
X48412601Y-34822818D01*
X48436853Y-34804573D01*
X48475110Y-34767110D01*
X48512898Y-34725142D01*
X48532536Y-34710874D01*
X48554225Y-34689635D01*
X48603456Y-34659348D01*
X48644863Y-34629264D01*
X48671986Y-34617188D01*
X48702506Y-34598412D01*
X48752007Y-34581560D01*
X48793885Y-34562915D01*
X48828206Y-34555620D01*
X48867312Y-34542307D01*
X48913851Y-34537416D01*
X48953438Y-34529001D01*
X48993908Y-34529001D01*
X49040452Y-34524109D01*
X49081478Y-34529001D01*
X49116563Y-34529001D01*
X49161395Y-34538530D01*
X49213321Y-34544722D01*
X49247080Y-34556743D01*
X49276116Y-34562915D01*
X49322871Y-34583731D01*
X49377328Y-34603123D01*
X49402959Y-34619389D01*
X49425137Y-34629263D01*
X49470826Y-34662459D01*
X49524321Y-34696407D01*
X49541856Y-34714065D01*
X49557105Y-34725144D01*
X49598385Y-34770990D01*
X49646994Y-34819939D01*
X49657276Y-34836394D01*
X49666255Y-34846366D01*
X49699639Y-34904190D01*
X49739250Y-34967580D01*
X49743828Y-34980727D01*
X49747816Y-34987634D01*
X49769862Y-35055487D01*
X49796504Y-35131991D01*
X49797445Y-35140378D01*
X49798223Y-35142773D01*
X49805806Y-35214920D01*
X49811000Y-35261226D01*
X49811000Y-35896176D01*
X49810544Y-35899997D01*
X49798223Y-36017227D01*
X49795605Y-36025286D01*
X49794014Y-36038625D01*
X49768447Y-36108869D01*
X49747816Y-36172366D01*
X49741106Y-36183989D01*
X49734470Y-36202220D01*
X49697109Y-36260193D01*
X49666255Y-36313634D01*
X49653640Y-36327644D01*
X49640162Y-36348558D01*
X49594898Y-36392883D01*
X49557106Y-36434855D01*
X49537465Y-36449125D01*
X49515775Y-36470365D01*
X49466537Y-36500657D01*
X49425134Y-36530737D01*
X49398016Y-36542811D01*
X49367494Y-36561588D01*
X49317992Y-36578440D01*
X49276115Y-36597085D01*
X49241794Y-36604380D01*
X49202688Y-36617693D01*
X49156149Y-36622584D01*
X49116562Y-36630999D01*
X49076092Y-36630999D01*
X49029548Y-36635891D01*
X48988522Y-36630999D01*
X48953437Y-36630999D01*
X48908605Y-36621470D01*
X48856679Y-36615278D01*
X48822920Y-36603257D01*
X48793884Y-36597085D01*
X48747129Y-36576269D01*
X48692672Y-36556877D01*
X48667041Y-36540611D01*
X48644863Y-36530737D01*
X48599174Y-36497541D01*
X48545679Y-36463593D01*
X48528144Y-36445935D01*
X48512895Y-36434856D01*
X48471612Y-36389007D01*
X48423006Y-36340060D01*
X48412724Y-36323605D01*
X48403744Y-36313632D01*
X48370353Y-36255798D01*
X48330750Y-36192419D01*
X48326173Y-36179275D01*
X48322185Y-36172368D01*
X48300138Y-36104513D01*
X48273496Y-36028008D01*
X48272555Y-36019621D01*
X48271777Y-36017226D01*
X48264194Y-35945079D01*
X48259000Y-35898773D01*
X48259000Y-35263824D01*
X48259456Y-35260003D01*
X48271777Y-35142773D01*
X48274395Y-35134714D01*
X48275986Y-35121375D01*
X48301555Y-35051126D01*
X48321089Y-34991005D01*
X48323100Y-34920601D01*
X48286729Y-34860286D01*
X48223523Y-34829210D01*
X48153550Y-34837238D01*
X48125045Y-34856432D01*
X48108699Y-34869111D01*
X48086920Y-34890890D01*
X48062287Y-34905112D01*
X48032857Y-34927940D01*
X48003595Y-34938997D01*
X47984080Y-34950264D01*
X47948664Y-34959754D01*
X47905995Y-34975877D01*
X47883121Y-34977316D01*
X47869373Y-34981000D01*
X47824572Y-34981000D01*
X47770645Y-34984393D01*
X47756512Y-34981000D01*
X47750627Y-34981000D01*
X47699941Y-34967419D01*
X47638775Y-34952734D01*
X47580330Y-34918169D01*
X47533080Y-34890890D01*
X47531454Y-34889264D01*
X47522044Y-34883699D01*
X47483202Y-34841012D01*
X47449110Y-34806920D01*
X47443779Y-34797687D01*
X47430772Y-34783392D01*
X47409820Y-34738868D01*
X47389736Y-34704080D01*
X47384824Y-34685747D01*
X47373029Y-34660682D01*
X47367276Y-34620258D01*
X47359000Y-34589373D01*
X47359000Y-34562111D01*
X47353920Y-34526418D01*
X47359000Y-34494344D01*
X47359000Y-34470627D01*
X47368186Y-34436345D01*
X47375135Y-34392470D01*
X47385746Y-34370810D01*
X47389736Y-34355920D01*
X47411556Y-34318126D01*
X47434799Y-34270682D01*
X47445569Y-34259213D01*
X47449110Y-34253080D01*
X47485517Y-34216673D01*
X47527635Y-34171822D01*
X47589747Y-34136394D01*
X47635920Y-34109736D01*
X47636981Y-34109452D01*
X47645436Y-34104629D01*
X47702997Y-34091763D01*
X47750627Y-34079000D01*
X47760093Y-34079000D01*
X47777787Y-34075045D01*
X47828042Y-34079000D01*
G37*
G36*
X42828042Y-34079000D02*
G01*
X42869373Y-34079000D01*
X42886560Y-34083605D01*
X42912987Y-34085685D01*
X42952068Y-34101158D01*
X42984080Y-34109736D01*
X43006663Y-34122774D01*
X43039080Y-34135609D01*
X43065356Y-34156660D01*
X43086920Y-34169110D01*
X43111191Y-34193381D01*
X43144920Y-34220403D01*
X43159146Y-34241336D01*
X43170890Y-34253080D01*
X43192134Y-34289877D01*
X43221148Y-34332569D01*
X43226128Y-34348756D01*
X43230264Y-34355920D01*
X43243310Y-34404606D01*
X43261025Y-34462191D01*
X43260960Y-34470477D01*
X43261000Y-34470627D01*
X43261000Y-34589373D01*
X43259996Y-34593118D01*
X43259904Y-34604885D01*
X43242449Y-34658607D01*
X43230264Y-34704080D01*
X43224339Y-34714343D01*
X43217996Y-34733864D01*
X43190393Y-34773139D01*
X43170890Y-34806920D01*
X43156629Y-34821181D01*
X43140016Y-34844819D01*
X43108699Y-34869111D01*
X43086920Y-34890890D01*
X43062287Y-34905112D01*
X43032857Y-34927940D01*
X43003595Y-34938997D01*
X42984080Y-34950264D01*
X42948664Y-34959754D01*
X42905995Y-34975877D01*
X42883121Y-34977316D01*
X42869373Y-34981000D01*
X42824572Y-34981000D01*
X42770645Y-34984393D01*
X42756512Y-34981000D01*
X42750627Y-34981000D01*
X42699941Y-34967419D01*
X42638775Y-34952734D01*
X42580330Y-34918169D01*
X42533080Y-34890890D01*
X42531454Y-34889264D01*
X42522044Y-34883699D01*
X42502067Y-34861744D01*
X42444362Y-34830236D01*
X42374109Y-34835260D01*
X42317725Y-34877469D01*
X42293111Y-34943461D01*
X42298911Y-34991005D01*
X42319860Y-35055479D01*
X42346504Y-35131991D01*
X42347445Y-35140378D01*
X42348223Y-35142773D01*
X42355806Y-35214920D01*
X42361000Y-35261226D01*
X42361000Y-35896176D01*
X42360544Y-35899997D01*
X42348223Y-36017227D01*
X42345605Y-36025286D01*
X42344014Y-36038625D01*
X42318447Y-36108869D01*
X42297816Y-36172366D01*
X42291106Y-36183989D01*
X42284470Y-36202220D01*
X42247109Y-36260193D01*
X42216255Y-36313634D01*
X42203640Y-36327644D01*
X42190162Y-36348558D01*
X42144898Y-36392883D01*
X42107106Y-36434855D01*
X42087465Y-36449125D01*
X42065775Y-36470365D01*
X42016537Y-36500657D01*
X41975134Y-36530737D01*
X41948016Y-36542811D01*
X41917494Y-36561588D01*
X41867992Y-36578440D01*
X41826115Y-36597085D01*
X41791794Y-36604380D01*
X41752688Y-36617693D01*
X41706149Y-36622584D01*
X41666562Y-36630999D01*
X41626092Y-36630999D01*
X41579548Y-36635891D01*
X41538522Y-36630999D01*
X41503437Y-36630999D01*
X41458605Y-36621470D01*
X41406679Y-36615278D01*
X41372920Y-36603257D01*
X41343884Y-36597085D01*
X41297129Y-36576269D01*
X41242672Y-36556877D01*
X41217041Y-36540611D01*
X41194863Y-36530737D01*
X41149174Y-36497541D01*
X41095679Y-36463593D01*
X41078144Y-36445935D01*
X41062895Y-36434856D01*
X41021612Y-36389007D01*
X40973006Y-36340060D01*
X40962724Y-36323605D01*
X40953744Y-36313632D01*
X40920353Y-36255798D01*
X40880750Y-36192419D01*
X40876173Y-36179275D01*
X40872185Y-36172368D01*
X40850138Y-36104513D01*
X40823496Y-36028008D01*
X40822555Y-36019621D01*
X40821777Y-36017226D01*
X40814194Y-35945079D01*
X40809000Y-35898773D01*
X40809000Y-35263824D01*
X40809456Y-35260003D01*
X40821777Y-35142773D01*
X40824395Y-35134714D01*
X40825986Y-35121375D01*
X40851553Y-35051131D01*
X40872184Y-34987634D01*
X40878894Y-34976012D01*
X40885530Y-34957780D01*
X40922897Y-34899799D01*
X40953746Y-34846367D01*
X40966359Y-34832359D01*
X40979839Y-34811442D01*
X41025110Y-34767110D01*
X41062898Y-34725142D01*
X41082536Y-34710874D01*
X41104225Y-34689635D01*
X41153456Y-34659348D01*
X41194863Y-34629264D01*
X41221986Y-34617188D01*
X41252506Y-34598412D01*
X41302007Y-34581560D01*
X41343885Y-34562915D01*
X41378206Y-34555620D01*
X41417312Y-34542307D01*
X41463851Y-34537416D01*
X41503438Y-34529001D01*
X41543908Y-34529001D01*
X41590452Y-34524109D01*
X41631478Y-34529001D01*
X41666563Y-34529001D01*
X41711395Y-34538530D01*
X41763321Y-34544722D01*
X41797080Y-34556743D01*
X41826116Y-34562915D01*
X41872871Y-34583731D01*
X41927328Y-34603123D01*
X41952959Y-34619389D01*
X41975137Y-34629263D01*
X42020826Y-34662459D01*
X42074321Y-34696407D01*
X42091856Y-34714065D01*
X42107105Y-34725144D01*
X42148380Y-34770985D01*
X42174620Y-34797409D01*
X42229089Y-34830965D01*
X42299509Y-34829624D01*
X42358024Y-34790424D01*
X42386058Y-34725811D01*
X42383024Y-34681923D01*
X42373029Y-34660682D01*
X42367276Y-34620262D01*
X42359000Y-34589375D01*
X42359000Y-34562111D01*
X42353920Y-34526418D01*
X42359000Y-34494344D01*
X42359000Y-34470627D01*
X42368186Y-34436345D01*
X42375135Y-34392470D01*
X42385746Y-34370810D01*
X42389736Y-34355920D01*
X42411556Y-34318126D01*
X42434799Y-34270682D01*
X42445569Y-34259213D01*
X42449110Y-34253080D01*
X42485517Y-34216673D01*
X42527635Y-34171822D01*
X42589747Y-34136394D01*
X42635920Y-34109736D01*
X42636981Y-34109452D01*
X42645436Y-34104629D01*
X42702997Y-34091763D01*
X42750627Y-34079000D01*
X42760093Y-34079000D01*
X42777787Y-34075045D01*
X42828042Y-34079000D01*
G37*
G36*
X67299902Y-31399283D02*
G01*
X67344637Y-31399595D01*
X67388460Y-31408590D01*
X67438360Y-31413835D01*
X67480132Y-31427408D01*
X67517723Y-31435124D01*
X67564851Y-31454935D01*
X67618488Y-31472363D01*
X67651099Y-31491191D01*
X67680614Y-31503598D01*
X67728301Y-31535763D01*
X67782511Y-31567061D01*
X67805826Y-31588054D01*
X67827101Y-31602404D01*
X67872183Y-31647802D01*
X67923261Y-31693793D01*
X67938003Y-31714083D01*
X67951608Y-31727784D01*
X67990643Y-31786537D01*
X68034586Y-31847019D01*
X68042221Y-31864168D01*
X68049388Y-31874955D01*
X68078865Y-31946472D01*
X68111621Y-32020042D01*
X68114211Y-32032225D01*
X68116724Y-32038323D01*
X68133292Y-32121997D01*
X68150999Y-32205301D01*
X68150999Y-32394699D01*
X68148115Y-32408269D01*
X68148030Y-32414331D01*
X68129342Y-32496585D01*
X68111621Y-32579958D01*
X68109129Y-32585555D01*
X68109078Y-32585780D01*
X68037210Y-32747197D01*
X68037078Y-32747385D01*
X68034586Y-32752981D01*
X67984480Y-32821946D01*
X67935357Y-32891582D01*
X67930585Y-32896126D01*
X67923261Y-32906207D01*
X67863396Y-32960110D01*
X67807396Y-33013438D01*
X67796464Y-33020376D01*
X67782511Y-33032939D01*
X67717764Y-33070321D01*
X67658211Y-33108114D01*
X67640209Y-33115097D01*
X67618488Y-33127637D01*
X67553115Y-33148878D01*
X67493468Y-33172014D01*
X67468200Y-33176469D01*
X67438360Y-33186165D01*
X67376095Y-33192709D01*
X67319460Y-33202695D01*
X67287459Y-33202025D01*
X67250000Y-33205962D01*
X67193902Y-33200066D01*
X67142799Y-33198996D01*
X67105323Y-33190756D01*
X67061640Y-33186165D01*
X67013917Y-33170659D01*
X66970225Y-33161052D01*
X66929230Y-33143142D01*
X66881512Y-33127637D01*
X66843473Y-33105675D01*
X66808310Y-33090313D01*
X66766337Y-33061141D01*
X66717489Y-33032939D01*
X66689504Y-33007741D01*
X66663215Y-32989470D01*
X66623257Y-32948092D01*
X66576739Y-32906207D01*
X66558296Y-32880823D01*
X66540473Y-32862366D01*
X66505821Y-32808597D01*
X66465414Y-32752981D01*
X66455212Y-32730066D01*
X66444754Y-32713839D01*
X66418789Y-32648261D01*
X66388379Y-32579958D01*
X66384476Y-32561596D01*
X66379707Y-32549551D01*
X66365740Y-32473448D01*
X66349001Y-32394699D01*
X66349001Y-32382246D01*
X66347811Y-32375762D01*
X66349001Y-32290535D01*
X66349001Y-32205301D01*
X66350275Y-32199308D01*
X66350278Y-32199077D01*
X66387015Y-32026246D01*
X66387105Y-32026036D01*
X66388379Y-32020042D01*
X66423042Y-31942188D01*
X66456622Y-31863839D01*
X66460348Y-31858397D01*
X66465414Y-31847019D01*
X66512746Y-31781872D01*
X66556452Y-31718041D01*
X66565706Y-31708979D01*
X66576739Y-31693793D01*
X66632297Y-31643769D01*
X66682693Y-31594417D01*
X66698848Y-31583846D01*
X66717489Y-31567061D01*
X66777026Y-31532687D01*
X66830551Y-31497662D01*
X66854340Y-31488050D01*
X66881512Y-31472363D01*
X66941045Y-31453019D01*
X66994376Y-31431472D01*
X67025820Y-31425474D01*
X67061640Y-31413835D01*
X67117744Y-31407938D01*
X67167945Y-31398362D01*
X67206312Y-31398630D01*
X67250000Y-31394038D01*
X67299902Y-31399283D01*
G37*
G36*
X74919902Y-31399283D02*
G01*
X74964637Y-31399595D01*
X75008460Y-31408590D01*
X75058360Y-31413835D01*
X75100132Y-31427408D01*
X75137723Y-31435124D01*
X75184851Y-31454935D01*
X75238488Y-31472363D01*
X75271099Y-31491191D01*
X75300614Y-31503598D01*
X75348301Y-31535763D01*
X75402511Y-31567061D01*
X75425826Y-31588054D01*
X75447101Y-31602404D01*
X75492183Y-31647802D01*
X75543261Y-31693793D01*
X75558003Y-31714083D01*
X75571608Y-31727784D01*
X75610643Y-31786537D01*
X75654586Y-31847019D01*
X75662221Y-31864168D01*
X75669388Y-31874955D01*
X75698865Y-31946472D01*
X75731621Y-32020042D01*
X75734211Y-32032225D01*
X75736724Y-32038323D01*
X75753292Y-32121997D01*
X75770999Y-32205301D01*
X75770999Y-32394699D01*
X75768115Y-32408269D01*
X75768030Y-32414331D01*
X75749342Y-32496585D01*
X75731621Y-32579958D01*
X75729129Y-32585555D01*
X75729078Y-32585780D01*
X75657210Y-32747197D01*
X75657078Y-32747385D01*
X75654586Y-32752981D01*
X75604480Y-32821946D01*
X75555357Y-32891582D01*
X75550585Y-32896126D01*
X75543261Y-32906207D01*
X75483396Y-32960110D01*
X75427396Y-33013438D01*
X75416464Y-33020376D01*
X75402511Y-33032939D01*
X75337764Y-33070321D01*
X75278211Y-33108114D01*
X75260209Y-33115097D01*
X75238488Y-33127637D01*
X75173115Y-33148878D01*
X75113468Y-33172014D01*
X75088200Y-33176469D01*
X75058360Y-33186165D01*
X74996095Y-33192709D01*
X74939460Y-33202695D01*
X74907459Y-33202025D01*
X74870000Y-33205962D01*
X74813902Y-33200066D01*
X74762799Y-33198996D01*
X74725323Y-33190756D01*
X74681640Y-33186165D01*
X74633917Y-33170659D01*
X74590225Y-33161052D01*
X74549230Y-33143142D01*
X74501512Y-33127637D01*
X74463473Y-33105675D01*
X74428310Y-33090313D01*
X74386337Y-33061141D01*
X74337489Y-33032939D01*
X74309504Y-33007741D01*
X74283215Y-32989470D01*
X74243257Y-32948092D01*
X74196739Y-32906207D01*
X74178296Y-32880823D01*
X74160473Y-32862366D01*
X74125821Y-32808597D01*
X74085414Y-32752981D01*
X74075212Y-32730066D01*
X74064754Y-32713839D01*
X74038789Y-32648261D01*
X74008379Y-32579958D01*
X74004476Y-32561596D01*
X73999707Y-32549551D01*
X73985740Y-32473448D01*
X73969001Y-32394699D01*
X73969001Y-32382246D01*
X73967811Y-32375762D01*
X73969001Y-32290535D01*
X73969001Y-32205301D01*
X73970275Y-32199308D01*
X73970278Y-32199077D01*
X74007015Y-32026246D01*
X74007105Y-32026036D01*
X74008379Y-32020042D01*
X74043042Y-31942188D01*
X74076622Y-31863839D01*
X74080348Y-31858397D01*
X74085414Y-31847019D01*
X74132746Y-31781872D01*
X74176452Y-31718041D01*
X74185706Y-31708979D01*
X74196739Y-31693793D01*
X74252297Y-31643769D01*
X74302693Y-31594417D01*
X74318848Y-31583846D01*
X74337489Y-31567061D01*
X74397026Y-31532687D01*
X74450551Y-31497662D01*
X74474340Y-31488050D01*
X74501512Y-31472363D01*
X74561045Y-31453019D01*
X74614376Y-31431472D01*
X74645820Y-31425474D01*
X74681640Y-31413835D01*
X74737744Y-31407938D01*
X74787945Y-31398362D01*
X74826312Y-31398630D01*
X74870000Y-31394038D01*
X74919902Y-31399283D01*
G37*
G36*
X69839902Y-31399283D02*
G01*
X69884637Y-31399595D01*
X69928460Y-31408590D01*
X69978360Y-31413835D01*
X70020132Y-31427408D01*
X70057723Y-31435124D01*
X70104851Y-31454935D01*
X70158488Y-31472363D01*
X70191099Y-31491191D01*
X70220614Y-31503598D01*
X70268301Y-31535763D01*
X70322511Y-31567061D01*
X70345826Y-31588054D01*
X70367101Y-31602404D01*
X70412183Y-31647802D01*
X70463261Y-31693793D01*
X70478003Y-31714083D01*
X70491608Y-31727784D01*
X70530643Y-31786537D01*
X70574586Y-31847019D01*
X70582221Y-31864168D01*
X70589388Y-31874955D01*
X70618865Y-31946472D01*
X70651621Y-32020042D01*
X70654211Y-32032225D01*
X70656724Y-32038323D01*
X70673292Y-32121997D01*
X70690999Y-32205301D01*
X70690999Y-32394699D01*
X70688115Y-32408269D01*
X70688030Y-32414331D01*
X70669342Y-32496585D01*
X70651621Y-32579958D01*
X70649129Y-32585555D01*
X70649078Y-32585780D01*
X70577210Y-32747197D01*
X70577078Y-32747385D01*
X70574586Y-32752981D01*
X70524480Y-32821946D01*
X70475357Y-32891582D01*
X70470585Y-32896126D01*
X70463261Y-32906207D01*
X70403396Y-32960110D01*
X70347396Y-33013438D01*
X70336464Y-33020376D01*
X70322511Y-33032939D01*
X70257764Y-33070321D01*
X70198211Y-33108114D01*
X70180209Y-33115097D01*
X70158488Y-33127637D01*
X70093115Y-33148878D01*
X70033468Y-33172014D01*
X70008200Y-33176469D01*
X69978360Y-33186165D01*
X69916095Y-33192709D01*
X69859460Y-33202695D01*
X69827459Y-33202025D01*
X69790000Y-33205962D01*
X69733902Y-33200066D01*
X69682799Y-33198996D01*
X69645323Y-33190756D01*
X69601640Y-33186165D01*
X69553917Y-33170659D01*
X69510225Y-33161052D01*
X69469230Y-33143142D01*
X69421512Y-33127637D01*
X69383473Y-33105675D01*
X69348310Y-33090313D01*
X69306337Y-33061141D01*
X69257489Y-33032939D01*
X69229504Y-33007741D01*
X69203215Y-32989470D01*
X69163257Y-32948092D01*
X69116739Y-32906207D01*
X69098296Y-32880823D01*
X69080473Y-32862366D01*
X69045821Y-32808597D01*
X69005414Y-32752981D01*
X68995212Y-32730066D01*
X68984754Y-32713839D01*
X68958789Y-32648261D01*
X68928379Y-32579958D01*
X68924476Y-32561596D01*
X68919707Y-32549551D01*
X68905740Y-32473448D01*
X68889001Y-32394699D01*
X68889001Y-32382246D01*
X68887811Y-32375762D01*
X68889001Y-32290535D01*
X68889001Y-32205301D01*
X68890275Y-32199308D01*
X68890278Y-32199077D01*
X68927015Y-32026246D01*
X68927105Y-32026036D01*
X68928379Y-32020042D01*
X68963042Y-31942188D01*
X68996622Y-31863839D01*
X69000348Y-31858397D01*
X69005414Y-31847019D01*
X69052746Y-31781872D01*
X69096452Y-31718041D01*
X69105706Y-31708979D01*
X69116739Y-31693793D01*
X69172297Y-31643769D01*
X69222693Y-31594417D01*
X69238848Y-31583846D01*
X69257489Y-31567061D01*
X69317026Y-31532687D01*
X69370551Y-31497662D01*
X69394340Y-31488050D01*
X69421512Y-31472363D01*
X69481045Y-31453019D01*
X69534376Y-31431472D01*
X69565820Y-31425474D01*
X69601640Y-31413835D01*
X69657744Y-31407938D01*
X69707945Y-31398362D01*
X69746312Y-31398630D01*
X69790000Y-31394038D01*
X69839902Y-31399283D01*
G37*
G36*
X77459902Y-31399283D02*
G01*
X77504637Y-31399595D01*
X77548460Y-31408590D01*
X77598360Y-31413835D01*
X77640132Y-31427408D01*
X77677723Y-31435124D01*
X77724851Y-31454935D01*
X77778488Y-31472363D01*
X77811099Y-31491191D01*
X77840614Y-31503598D01*
X77888301Y-31535763D01*
X77942511Y-31567061D01*
X77965826Y-31588054D01*
X77987101Y-31602404D01*
X78032183Y-31647802D01*
X78083261Y-31693793D01*
X78098003Y-31714083D01*
X78111608Y-31727784D01*
X78150643Y-31786537D01*
X78194586Y-31847019D01*
X78202221Y-31864168D01*
X78209388Y-31874955D01*
X78238865Y-31946472D01*
X78271621Y-32020042D01*
X78274211Y-32032225D01*
X78276724Y-32038323D01*
X78293292Y-32121997D01*
X78310999Y-32205301D01*
X78310999Y-32394699D01*
X78308115Y-32408269D01*
X78308030Y-32414331D01*
X78289342Y-32496585D01*
X78271621Y-32579958D01*
X78269129Y-32585555D01*
X78269078Y-32585780D01*
X78197210Y-32747197D01*
X78197078Y-32747385D01*
X78194586Y-32752981D01*
X78144480Y-32821946D01*
X78095357Y-32891582D01*
X78090585Y-32896126D01*
X78083261Y-32906207D01*
X78023396Y-32960110D01*
X77967396Y-33013438D01*
X77956464Y-33020376D01*
X77942511Y-33032939D01*
X77877764Y-33070321D01*
X77818211Y-33108114D01*
X77800209Y-33115097D01*
X77778488Y-33127637D01*
X77713115Y-33148878D01*
X77653468Y-33172014D01*
X77628200Y-33176469D01*
X77598360Y-33186165D01*
X77536095Y-33192709D01*
X77479460Y-33202695D01*
X77447459Y-33202025D01*
X77410000Y-33205962D01*
X77353902Y-33200066D01*
X77302799Y-33198996D01*
X77265323Y-33190756D01*
X77221640Y-33186165D01*
X77173917Y-33170659D01*
X77130225Y-33161052D01*
X77089230Y-33143142D01*
X77041512Y-33127637D01*
X77003473Y-33105675D01*
X76968310Y-33090313D01*
X76926337Y-33061141D01*
X76877489Y-33032939D01*
X76849504Y-33007741D01*
X76823215Y-32989470D01*
X76783257Y-32948092D01*
X76736739Y-32906207D01*
X76718296Y-32880823D01*
X76700473Y-32862366D01*
X76665821Y-32808597D01*
X76625414Y-32752981D01*
X76615212Y-32730066D01*
X76604754Y-32713839D01*
X76578789Y-32648261D01*
X76548379Y-32579958D01*
X76544476Y-32561596D01*
X76539707Y-32549551D01*
X76525740Y-32473448D01*
X76509001Y-32394699D01*
X76509001Y-32382246D01*
X76507811Y-32375762D01*
X76509001Y-32290535D01*
X76509001Y-32205301D01*
X76510275Y-32199308D01*
X76510278Y-32199077D01*
X76547015Y-32026246D01*
X76547105Y-32026036D01*
X76548379Y-32020042D01*
X76583042Y-31942188D01*
X76616622Y-31863839D01*
X76620348Y-31858397D01*
X76625414Y-31847019D01*
X76672746Y-31781872D01*
X76716452Y-31718041D01*
X76725706Y-31708979D01*
X76736739Y-31693793D01*
X76792297Y-31643769D01*
X76842693Y-31594417D01*
X76858848Y-31583846D01*
X76877489Y-31567061D01*
X76937026Y-31532687D01*
X76990551Y-31497662D01*
X77014340Y-31488050D01*
X77041512Y-31472363D01*
X77101045Y-31453019D01*
X77154376Y-31431472D01*
X77185820Y-31425474D01*
X77221640Y-31413835D01*
X77277744Y-31407938D01*
X77327945Y-31398362D01*
X77366312Y-31398630D01*
X77410000Y-31394038D01*
X77459902Y-31399283D01*
G37*
G36*
X72379902Y-31399283D02*
G01*
X72424637Y-31399595D01*
X72468460Y-31408590D01*
X72518360Y-31413835D01*
X72560132Y-31427408D01*
X72597723Y-31435124D01*
X72644851Y-31454935D01*
X72698488Y-31472363D01*
X72731099Y-31491191D01*
X72760614Y-31503598D01*
X72808301Y-31535763D01*
X72862511Y-31567061D01*
X72885826Y-31588054D01*
X72907101Y-31602404D01*
X72952183Y-31647802D01*
X73003261Y-31693793D01*
X73018003Y-31714083D01*
X73031608Y-31727784D01*
X73070643Y-31786537D01*
X73114586Y-31847019D01*
X73122221Y-31864168D01*
X73129388Y-31874955D01*
X73158865Y-31946472D01*
X73191621Y-32020042D01*
X73194211Y-32032225D01*
X73196724Y-32038323D01*
X73213292Y-32121997D01*
X73230999Y-32205301D01*
X73230999Y-32394699D01*
X73228115Y-32408269D01*
X73228030Y-32414331D01*
X73209342Y-32496585D01*
X73191621Y-32579958D01*
X73189129Y-32585555D01*
X73189078Y-32585780D01*
X73117210Y-32747197D01*
X73117078Y-32747385D01*
X73114586Y-32752981D01*
X73064480Y-32821946D01*
X73015357Y-32891582D01*
X73010585Y-32896126D01*
X73003261Y-32906207D01*
X72943396Y-32960110D01*
X72887396Y-33013438D01*
X72876464Y-33020376D01*
X72862511Y-33032939D01*
X72797764Y-33070321D01*
X72738211Y-33108114D01*
X72720209Y-33115097D01*
X72698488Y-33127637D01*
X72633115Y-33148878D01*
X72573468Y-33172014D01*
X72548200Y-33176469D01*
X72518360Y-33186165D01*
X72456095Y-33192709D01*
X72399460Y-33202695D01*
X72367459Y-33202025D01*
X72330000Y-33205962D01*
X72273902Y-33200066D01*
X72222799Y-33198996D01*
X72185323Y-33190756D01*
X72141640Y-33186165D01*
X72093917Y-33170659D01*
X72050225Y-33161052D01*
X72009230Y-33143142D01*
X71961512Y-33127637D01*
X71923473Y-33105675D01*
X71888310Y-33090313D01*
X71846337Y-33061141D01*
X71797489Y-33032939D01*
X71769504Y-33007741D01*
X71743215Y-32989470D01*
X71703257Y-32948092D01*
X71656739Y-32906207D01*
X71638296Y-32880823D01*
X71620473Y-32862366D01*
X71585821Y-32808597D01*
X71545414Y-32752981D01*
X71535212Y-32730066D01*
X71524754Y-32713839D01*
X71498789Y-32648261D01*
X71468379Y-32579958D01*
X71464476Y-32561596D01*
X71459707Y-32549551D01*
X71445740Y-32473448D01*
X71429001Y-32394699D01*
X71429001Y-32382246D01*
X71427811Y-32375762D01*
X71429001Y-32290535D01*
X71429001Y-32205301D01*
X71430275Y-32199308D01*
X71430278Y-32199077D01*
X71467015Y-32026246D01*
X71467105Y-32026036D01*
X71468379Y-32020042D01*
X71503042Y-31942188D01*
X71536622Y-31863839D01*
X71540348Y-31858397D01*
X71545414Y-31847019D01*
X71592746Y-31781872D01*
X71636452Y-31718041D01*
X71645706Y-31708979D01*
X71656739Y-31693793D01*
X71712297Y-31643769D01*
X71762693Y-31594417D01*
X71778848Y-31583846D01*
X71797489Y-31567061D01*
X71857026Y-31532687D01*
X71910551Y-31497662D01*
X71934340Y-31488050D01*
X71961512Y-31472363D01*
X72021045Y-31453019D01*
X72074376Y-31431472D01*
X72105820Y-31425474D01*
X72141640Y-31413835D01*
X72197744Y-31407938D01*
X72247945Y-31398362D01*
X72286312Y-31398630D01*
X72330000Y-31394038D01*
X72379902Y-31399283D01*
G37*
G36*
X65579899Y-31401959D02*
G01*
X65596769Y-31413231D01*
X65608041Y-31430101D01*
X65614448Y-31462312D01*
X65614448Y-33137688D01*
X65611999Y-33150000D01*
X65608041Y-33169899D01*
X65596769Y-33186769D01*
X65579899Y-33198041D01*
X65560000Y-33201999D01*
X65547688Y-33204448D01*
X63872312Y-33204448D01*
X63840101Y-33198041D01*
X63823231Y-33186769D01*
X63811959Y-33169899D01*
X63805552Y-33137688D01*
X63805552Y-31462312D01*
X63811959Y-31430101D01*
X63823231Y-31413231D01*
X63840101Y-31401959D01*
X63872312Y-31395552D01*
X65547688Y-31395552D01*
X65579899Y-31401959D01*
G37*
G36*
X41473930Y-30829165D02*
G01*
X41514035Y-30829375D01*
X41548690Y-30838080D01*
X41578856Y-30841677D01*
X41616798Y-30855187D01*
X41660986Y-30866287D01*
X41687720Y-30880442D01*
X41711158Y-30888788D01*
X41749809Y-30913317D01*
X41794890Y-30937186D01*
X41813380Y-30953660D01*
X41829741Y-30964043D01*
X41865887Y-31000442D01*
X41908018Y-31037979D01*
X41918929Y-31053855D01*
X41928703Y-31063697D01*
X41958836Y-31111920D01*
X41993837Y-31162847D01*
X41998699Y-31175715D01*
X42003126Y-31182799D01*
X42023689Y-31241848D01*
X42047394Y-31304582D01*
X42048384Y-31312764D01*
X42049313Y-31315431D01*
X42056995Y-31383919D01*
X42061000Y-31417013D01*
X42061000Y-32141390D01*
X42052554Y-32208252D01*
X42047152Y-32253548D01*
X42046661Y-32254897D01*
X42045786Y-32261823D01*
X42021032Y-32325313D01*
X41999269Y-32385107D01*
X41995345Y-32391196D01*
X41990747Y-32402989D01*
X41954587Y-32454439D01*
X41923191Y-32503157D01*
X41914073Y-32512086D01*
X41903625Y-32526952D01*
X41860280Y-32564764D01*
X41822846Y-32601422D01*
X41807281Y-32610998D01*
X41789447Y-32626555D01*
X41743157Y-32650447D01*
X41703225Y-32675013D01*
X41680709Y-32682678D01*
X41654807Y-32696047D01*
X41609453Y-32706936D01*
X41570275Y-32720273D01*
X41541148Y-32723334D01*
X41507478Y-32731418D01*
X41466289Y-32731202D01*
X41430605Y-32734953D01*
X41396070Y-32730835D01*
X41355965Y-32730625D01*
X41321310Y-32721920D01*
X41291144Y-32718323D01*
X41253202Y-32704813D01*
X41209014Y-32693713D01*
X41182280Y-32679558D01*
X41158842Y-32671212D01*
X41120193Y-32646684D01*
X41075110Y-32622814D01*
X41056618Y-32606338D01*
X41040260Y-32595957D01*
X41004121Y-32559566D01*
X40961982Y-32522021D01*
X40951069Y-32506142D01*
X40941297Y-32496302D01*
X40911167Y-32448084D01*
X40876163Y-32397152D01*
X40871301Y-32384284D01*
X40866874Y-32377200D01*
X40846311Y-32318151D01*
X40822606Y-32255417D01*
X40821616Y-32247235D01*
X40820687Y-32244568D01*
X40813005Y-32176080D01*
X40809000Y-32142986D01*
X40809000Y-31418610D01*
X40817444Y-31351769D01*
X40822848Y-31306450D01*
X40823339Y-31305100D01*
X40824214Y-31298177D01*
X40848964Y-31234698D01*
X40870730Y-31174896D01*
X40874654Y-31168808D01*
X40879253Y-31157011D01*
X40915420Y-31105551D01*
X40946812Y-31056840D01*
X40955930Y-31047911D01*
X40966376Y-31033048D01*
X41009715Y-30995241D01*
X41047152Y-30958580D01*
X41062717Y-30949004D01*
X41080553Y-30933445D01*
X41126845Y-30909552D01*
X41166775Y-30884987D01*
X41189291Y-30877322D01*
X41215193Y-30863953D01*
X41260547Y-30853064D01*
X41299725Y-30839727D01*
X41328852Y-30836666D01*
X41362522Y-30828582D01*
X41403711Y-30828798D01*
X41439395Y-30825047D01*
X41473930Y-30829165D01*
G37*
G36*
X49223930Y-30829165D02*
G01*
X49264035Y-30829375D01*
X49298690Y-30838080D01*
X49328856Y-30841677D01*
X49366798Y-30855187D01*
X49410986Y-30866287D01*
X49437720Y-30880442D01*
X49461158Y-30888788D01*
X49499809Y-30913317D01*
X49544890Y-30937186D01*
X49563380Y-30953660D01*
X49579741Y-30964043D01*
X49615887Y-31000442D01*
X49658018Y-31037979D01*
X49668929Y-31053855D01*
X49678703Y-31063697D01*
X49708836Y-31111920D01*
X49743837Y-31162847D01*
X49748699Y-31175715D01*
X49753126Y-31182799D01*
X49773689Y-31241848D01*
X49797394Y-31304582D01*
X49798384Y-31312764D01*
X49799313Y-31315431D01*
X49806995Y-31383919D01*
X49811000Y-31417013D01*
X49811000Y-32141390D01*
X49802554Y-32208252D01*
X49797152Y-32253548D01*
X49796661Y-32254897D01*
X49795786Y-32261823D01*
X49771032Y-32325313D01*
X49749269Y-32385107D01*
X49745345Y-32391196D01*
X49740747Y-32402989D01*
X49704587Y-32454439D01*
X49673191Y-32503157D01*
X49664073Y-32512086D01*
X49653625Y-32526952D01*
X49610280Y-32564764D01*
X49572846Y-32601422D01*
X49557281Y-32610998D01*
X49539447Y-32626555D01*
X49493157Y-32650447D01*
X49453225Y-32675013D01*
X49430709Y-32682678D01*
X49404807Y-32696047D01*
X49359453Y-32706936D01*
X49320275Y-32720273D01*
X49291148Y-32723334D01*
X49257478Y-32731418D01*
X49216289Y-32731202D01*
X49180605Y-32734953D01*
X49146070Y-32730835D01*
X49105965Y-32730625D01*
X49071310Y-32721920D01*
X49041144Y-32718323D01*
X49003202Y-32704813D01*
X48959014Y-32693713D01*
X48932280Y-32679558D01*
X48908842Y-32671212D01*
X48870193Y-32646684D01*
X48825110Y-32622814D01*
X48806618Y-32606338D01*
X48790260Y-32595957D01*
X48754121Y-32559566D01*
X48711982Y-32522021D01*
X48701069Y-32506142D01*
X48691297Y-32496302D01*
X48661167Y-32448084D01*
X48626163Y-32397152D01*
X48621301Y-32384284D01*
X48616874Y-32377200D01*
X48596311Y-32318151D01*
X48572606Y-32255417D01*
X48571616Y-32247235D01*
X48570687Y-32244568D01*
X48563005Y-32176080D01*
X48559000Y-32142986D01*
X48559000Y-31418610D01*
X48567444Y-31351769D01*
X48572848Y-31306450D01*
X48573339Y-31305100D01*
X48574214Y-31298177D01*
X48598964Y-31234698D01*
X48620730Y-31174896D01*
X48624654Y-31168808D01*
X48629253Y-31157011D01*
X48665420Y-31105551D01*
X48696812Y-31056840D01*
X48705930Y-31047911D01*
X48716376Y-31033048D01*
X48759715Y-30995241D01*
X48797152Y-30958580D01*
X48812717Y-30949004D01*
X48830553Y-30933445D01*
X48876845Y-30909552D01*
X48916775Y-30884987D01*
X48939291Y-30877322D01*
X48965193Y-30863953D01*
X49010547Y-30853064D01*
X49049725Y-30839727D01*
X49078852Y-30836666D01*
X49112522Y-30828582D01*
X49153711Y-30828798D01*
X49189395Y-30825047D01*
X49223930Y-30829165D01*
G37*
M02*
