G04 #@! TF.GenerationSoftware,KiCad,Pcbnew,(5.99.0-863-g2d7f4d60c)*
G04 #@! TF.CreationDate,2020-04-02T16:04:36+02:00*
G04 #@! TF.ProjectId,lab1,6c616231-2e6b-4696-9361-645f70636258,rev?*
G04 #@! TF.SameCoordinates,Original*
G04 #@! TF.FileFunction,Copper,L1,Top*
G04 #@! TF.FilePolarity,Positive*
%FSLAX46Y46*%
G04 Gerber Fmt 4.6, Leading zero omitted, Abs format (unit mm)*
G04 Created by KiCad (PCBNEW (5.99.0-863-g2d7f4d60c)) date 2020-04-02 16:04:36*
%MOMM*%
%LPD*%
G01*
G04 APERTURE LIST*
%ADD10R,0.500000X1.600000*%
%ADD11R,1.600000X0.500000*%
%ADD12R,1.600000X1.600000*%
%ADD13R,0.500000X0.800000*%
%ADD14R,0.800000X0.500000*%
%ADD15R,1.300000X1.550000*%
%ADD16O,1.150000X1.800000*%
%ADD17O,1.450000X2.000000*%
%ADD18R,0.450000X1.300000*%
%ADD19O,1.700000X1.700000*%
%ADD20R,1.700000X1.700000*%
%ADD21R,2.000000X1.500000*%
%ADD22R,2.000000X3.800000*%
%ADD23C,0.800000*%
%ADD24C,0.400000*%
%ADD25C,0.250000*%
%ADD26C,0.254000*%
G04 APERTURE END LIST*
D10*
X66330000Y-46272000D03*
D11*
X75180000Y-52269000D03*
D10*
X64728000Y-46272000D03*
X63930000Y-46266000D03*
X65530000Y-46272000D03*
X68730000Y-46269000D03*
X71929000Y-46265000D03*
D11*
X75178000Y-48270000D03*
X75179000Y-49070000D03*
X75178000Y-50669000D03*
X75179000Y-49870000D03*
X75171000Y-51469000D03*
D10*
X71130000Y-46271000D03*
X72730000Y-46269000D03*
X67931000Y-46267000D03*
X70329000Y-46268000D03*
X67129000Y-46272000D03*
D11*
X75183000Y-53070000D03*
X75182000Y-53870000D03*
D10*
X69529000Y-46269000D03*
D11*
X75179000Y-57070000D03*
D10*
X69528000Y-59064000D03*
X70330000Y-59068000D03*
X68730000Y-59067000D03*
X67929000Y-59064000D03*
D11*
X75181000Y-54670000D03*
X75176000Y-55471000D03*
D10*
X71930000Y-59058000D03*
D11*
X75180000Y-56270000D03*
X61481000Y-57070000D03*
D10*
X64729000Y-59070000D03*
D11*
X61481000Y-55470000D03*
D10*
X63930000Y-59068000D03*
X66330000Y-59070000D03*
X72731000Y-59070000D03*
X65528000Y-59062000D03*
D11*
X61481000Y-56269000D03*
D10*
X71128000Y-59064000D03*
D11*
X61480000Y-51470000D03*
D10*
X67130000Y-59064000D03*
D11*
X61481000Y-54671000D03*
X61481000Y-53869000D03*
X61480000Y-53070000D03*
X61481000Y-52270000D03*
X61481000Y-49870000D03*
X61480000Y-50670000D03*
X61480000Y-49070000D03*
X61482000Y-48270000D03*
D12*
X70830000Y-55170000D03*
X68330000Y-55170000D03*
X65830000Y-55170000D03*
X70830000Y-52670000D03*
X68330000Y-52670000D03*
X65830000Y-52670000D03*
X70830000Y-50170000D03*
X68330000Y-50170000D03*
X65830000Y-50170000D03*
D13*
X63930000Y-47470000D03*
X64730000Y-47470000D03*
X65530000Y-47470000D03*
X66330000Y-47470000D03*
X67130000Y-47470000D03*
X67930000Y-47470000D03*
X68730000Y-47470000D03*
D14*
X62680000Y-48270000D03*
X62680000Y-49070000D03*
X62680000Y-49870000D03*
X62680000Y-50670000D03*
X62680000Y-51470000D03*
X62680000Y-52270000D03*
X62680000Y-53070000D03*
X62680000Y-53870000D03*
X62680000Y-54670000D03*
X62680000Y-55470000D03*
X62680000Y-56270000D03*
X73980000Y-55470000D03*
X73980000Y-54670000D03*
X73980000Y-53870000D03*
X73980000Y-53070000D03*
X73980000Y-52270000D03*
X73980000Y-51470000D03*
X73980000Y-50670000D03*
X73980000Y-49870000D03*
X73980000Y-49070000D03*
X73980000Y-48270000D03*
D13*
X72730000Y-47470000D03*
X71130000Y-47470000D03*
X70330000Y-47470000D03*
X69530000Y-47470000D03*
D14*
X62680000Y-57070000D03*
D13*
X63930000Y-57870000D03*
X64730000Y-57870000D03*
X65530000Y-57870000D03*
X66330000Y-57870000D03*
X67130000Y-57870000D03*
X67930000Y-57870000D03*
X68730000Y-57870000D03*
X69530000Y-57870000D03*
X70330000Y-57870000D03*
X71130000Y-57870000D03*
X71930000Y-57870000D03*
X72730000Y-57870000D03*
D14*
X73980000Y-57070000D03*
X73980000Y-56270000D03*
D13*
X71930000Y-47470000D03*
D15*
X77500000Y-35760000D03*
X73000000Y-35760000D03*
X73000000Y-43710000D03*
X77500000Y-43710000D03*
G04 #@! TA.AperFunction,SMDPad,CuDef*
G36*
X61045671Y-60679030D02*
G01*
X61126777Y-60733223D01*
X61180970Y-60814329D01*
X61200000Y-60909999D01*
X61200000Y-61560001D01*
X61180970Y-61655671D01*
X61126777Y-61736777D01*
X61045671Y-61790970D01*
X60950001Y-61810000D01*
X60049999Y-61810000D01*
X59954329Y-61790970D01*
X59873223Y-61736777D01*
X59819030Y-61655671D01*
X59800000Y-61560001D01*
X59800000Y-60909999D01*
X59819030Y-60814329D01*
X59873223Y-60733223D01*
X59954329Y-60679030D01*
X60049999Y-60660000D01*
X60950001Y-60660000D01*
X61045671Y-60679030D01*
G37*
G04 #@! TD.AperFunction*
G04 #@! TA.AperFunction,SMDPad,CuDef*
G36*
X61045671Y-58629030D02*
G01*
X61126777Y-58683223D01*
X61180970Y-58764329D01*
X61200000Y-58859999D01*
X61200000Y-59510001D01*
X61180970Y-59605671D01*
X61126777Y-59686777D01*
X61045671Y-59740970D01*
X60950001Y-59760000D01*
X60049999Y-59760000D01*
X59954329Y-59740970D01*
X59873223Y-59686777D01*
X59819030Y-59605671D01*
X59800000Y-59510001D01*
X59800000Y-58859999D01*
X59819030Y-58764329D01*
X59873223Y-58683223D01*
X59954329Y-58629030D01*
X60049999Y-58610000D01*
X60950001Y-58610000D01*
X61045671Y-58629030D01*
G37*
G04 #@! TD.AperFunction*
G04 #@! TA.AperFunction,SMDPad,CuDef*
G36*
X56325671Y-53714030D02*
G01*
X56406777Y-53768223D01*
X56460970Y-53849329D01*
X56480000Y-53944999D01*
X56480000Y-54595001D01*
X56460970Y-54690671D01*
X56406777Y-54771777D01*
X56325671Y-54825970D01*
X56230001Y-54845000D01*
X55329999Y-54845000D01*
X55234329Y-54825970D01*
X55153223Y-54771777D01*
X55099030Y-54690671D01*
X55080000Y-54595001D01*
X55080000Y-53944999D01*
X55099030Y-53849329D01*
X55153223Y-53768223D01*
X55234329Y-53714030D01*
X55329999Y-53695000D01*
X56230001Y-53695000D01*
X56325671Y-53714030D01*
G37*
G04 #@! TD.AperFunction*
G04 #@! TA.AperFunction,SMDPad,CuDef*
G36*
X56325671Y-51664030D02*
G01*
X56406777Y-51718223D01*
X56460970Y-51799329D01*
X56480000Y-51894999D01*
X56480000Y-52545001D01*
X56460970Y-52640671D01*
X56406777Y-52721777D01*
X56325671Y-52775970D01*
X56230001Y-52795000D01*
X55329999Y-52795000D01*
X55234329Y-52775970D01*
X55153223Y-52721777D01*
X55099030Y-52640671D01*
X55080000Y-52545001D01*
X55080000Y-51894999D01*
X55099030Y-51799329D01*
X55153223Y-51718223D01*
X55234329Y-51664030D01*
X55329999Y-51645000D01*
X56230001Y-51645000D01*
X56325671Y-51664030D01*
G37*
G04 #@! TD.AperFunction*
G04 #@! TA.AperFunction,SMDPad,CuDef*
G36*
X59325671Y-53764030D02*
G01*
X59406777Y-53818223D01*
X59460970Y-53899329D01*
X59480000Y-53994999D01*
X59480000Y-54645001D01*
X59460970Y-54740671D01*
X59406777Y-54821777D01*
X59325671Y-54875970D01*
X59230001Y-54895000D01*
X58329999Y-54895000D01*
X58234329Y-54875970D01*
X58153223Y-54821777D01*
X58099030Y-54740671D01*
X58080000Y-54645001D01*
X58080000Y-53994999D01*
X58099030Y-53899329D01*
X58153223Y-53818223D01*
X58234329Y-53764030D01*
X58329999Y-53745000D01*
X59230001Y-53745000D01*
X59325671Y-53764030D01*
G37*
G04 #@! TD.AperFunction*
G04 #@! TA.AperFunction,SMDPad,CuDef*
G36*
X59325671Y-51714030D02*
G01*
X59406777Y-51768223D01*
X59460970Y-51849329D01*
X59480000Y-51944999D01*
X59480000Y-52595001D01*
X59460970Y-52690671D01*
X59406777Y-52771777D01*
X59325671Y-52825970D01*
X59230001Y-52845000D01*
X58329999Y-52845000D01*
X58234329Y-52825970D01*
X58153223Y-52771777D01*
X58099030Y-52690671D01*
X58080000Y-52595001D01*
X58080000Y-51944999D01*
X58099030Y-51849329D01*
X58153223Y-51768223D01*
X58234329Y-51714030D01*
X58329999Y-51695000D01*
X59230001Y-51695000D01*
X59325671Y-51714030D01*
G37*
G04 #@! TD.AperFunction*
G04 #@! TA.AperFunction,SMDPad,CuDef*
G36*
X59305671Y-47634030D02*
G01*
X59386777Y-47688223D01*
X59440970Y-47769329D01*
X59460000Y-47864999D01*
X59460000Y-48515001D01*
X59440970Y-48610671D01*
X59386777Y-48691777D01*
X59305671Y-48745970D01*
X59210001Y-48765000D01*
X58309999Y-48765000D01*
X58214329Y-48745970D01*
X58133223Y-48691777D01*
X58079030Y-48610671D01*
X58060000Y-48515001D01*
X58060000Y-47864999D01*
X58079030Y-47769329D01*
X58133223Y-47688223D01*
X58214329Y-47634030D01*
X58309999Y-47615000D01*
X59210001Y-47615000D01*
X59305671Y-47634030D01*
G37*
G04 #@! TD.AperFunction*
G04 #@! TA.AperFunction,SMDPad,CuDef*
G36*
X59305671Y-49684030D02*
G01*
X59386777Y-49738223D01*
X59440970Y-49819329D01*
X59460000Y-49914999D01*
X59460000Y-50565001D01*
X59440970Y-50660671D01*
X59386777Y-50741777D01*
X59305671Y-50795970D01*
X59210001Y-50815000D01*
X58309999Y-50815000D01*
X58214329Y-50795970D01*
X58133223Y-50741777D01*
X58079030Y-50660671D01*
X58060000Y-50565001D01*
X58060000Y-49914999D01*
X58079030Y-49819329D01*
X58133223Y-49738223D01*
X58214329Y-49684030D01*
X58309999Y-49665000D01*
X59210001Y-49665000D01*
X59305671Y-49684030D01*
G37*
G04 #@! TD.AperFunction*
G04 #@! TA.AperFunction,SMDPad,CuDef*
G36*
X56305671Y-47634030D02*
G01*
X56386777Y-47688223D01*
X56440970Y-47769329D01*
X56460000Y-47864999D01*
X56460000Y-48515001D01*
X56440970Y-48610671D01*
X56386777Y-48691777D01*
X56305671Y-48745970D01*
X56210001Y-48765000D01*
X55309999Y-48765000D01*
X55214329Y-48745970D01*
X55133223Y-48691777D01*
X55079030Y-48610671D01*
X55060000Y-48515001D01*
X55060000Y-47864999D01*
X55079030Y-47769329D01*
X55133223Y-47688223D01*
X55214329Y-47634030D01*
X55309999Y-47615000D01*
X56210001Y-47615000D01*
X56305671Y-47634030D01*
G37*
G04 #@! TD.AperFunction*
G04 #@! TA.AperFunction,SMDPad,CuDef*
G36*
X56305671Y-49684030D02*
G01*
X56386777Y-49738223D01*
X56440970Y-49819329D01*
X56460000Y-49914999D01*
X56460000Y-50565001D01*
X56440970Y-50660671D01*
X56386777Y-50741777D01*
X56305671Y-50795970D01*
X56210001Y-50815000D01*
X55309999Y-50815000D01*
X55214329Y-50795970D01*
X55133223Y-50741777D01*
X55079030Y-50660671D01*
X55060000Y-50565001D01*
X55060000Y-49914999D01*
X55079030Y-49819329D01*
X55133223Y-49738223D01*
X55214329Y-49684030D01*
X55309999Y-49665000D01*
X56210001Y-49665000D01*
X56305671Y-49684030D01*
G37*
G04 #@! TD.AperFunction*
G04 #@! TA.AperFunction,SMDPad,CuDef*
G36*
X78685671Y-55829030D02*
G01*
X78766777Y-55883223D01*
X78820970Y-55964329D01*
X78840000Y-56059999D01*
X78840000Y-56710001D01*
X78820970Y-56805671D01*
X78766777Y-56886777D01*
X78685671Y-56940970D01*
X78590001Y-56960000D01*
X77689999Y-56960000D01*
X77594329Y-56940970D01*
X77513223Y-56886777D01*
X77459030Y-56805671D01*
X77440000Y-56710001D01*
X77440000Y-56059999D01*
X77459030Y-55964329D01*
X77513223Y-55883223D01*
X77594329Y-55829030D01*
X77689999Y-55810000D01*
X78590001Y-55810000D01*
X78685671Y-55829030D01*
G37*
G04 #@! TD.AperFunction*
G04 #@! TA.AperFunction,SMDPad,CuDef*
G36*
X78685671Y-53779030D02*
G01*
X78766777Y-53833223D01*
X78820970Y-53914329D01*
X78840000Y-54009999D01*
X78840000Y-54660001D01*
X78820970Y-54755671D01*
X78766777Y-54836777D01*
X78685671Y-54890970D01*
X78590001Y-54910000D01*
X77689999Y-54910000D01*
X77594329Y-54890970D01*
X77513223Y-54836777D01*
X77459030Y-54755671D01*
X77440000Y-54660001D01*
X77440000Y-54009999D01*
X77459030Y-53914329D01*
X77513223Y-53833223D01*
X77594329Y-53779030D01*
X77689999Y-53760000D01*
X78590001Y-53760000D01*
X78685671Y-53779030D01*
G37*
G04 #@! TD.AperFunction*
G04 #@! TA.AperFunction,SMDPad,CuDef*
G36*
X67945671Y-37024030D02*
G01*
X68026777Y-37078223D01*
X68080970Y-37159329D01*
X68100000Y-37254999D01*
X68100000Y-37905001D01*
X68080970Y-38000671D01*
X68026777Y-38081777D01*
X67945671Y-38135970D01*
X67850001Y-38155000D01*
X66949999Y-38155000D01*
X66854329Y-38135970D01*
X66773223Y-38081777D01*
X66719030Y-38000671D01*
X66700000Y-37905001D01*
X66700000Y-37254999D01*
X66719030Y-37159329D01*
X66773223Y-37078223D01*
X66854329Y-37024030D01*
X66949999Y-37005000D01*
X67850001Y-37005000D01*
X67945671Y-37024030D01*
G37*
G04 #@! TD.AperFunction*
G04 #@! TA.AperFunction,SMDPad,CuDef*
G36*
X67945671Y-39074030D02*
G01*
X68026777Y-39128223D01*
X68080970Y-39209329D01*
X68100000Y-39304999D01*
X68100000Y-39955001D01*
X68080970Y-40050671D01*
X68026777Y-40131777D01*
X67945671Y-40185970D01*
X67850001Y-40205000D01*
X66949999Y-40205000D01*
X66854329Y-40185970D01*
X66773223Y-40131777D01*
X66719030Y-40050671D01*
X66700000Y-39955001D01*
X66700000Y-39304999D01*
X66719030Y-39209329D01*
X66773223Y-39128223D01*
X66854329Y-39074030D01*
X66949999Y-39055000D01*
X67850001Y-39055000D01*
X67945671Y-39074030D01*
G37*
G04 #@! TD.AperFunction*
G04 #@! TA.AperFunction,SMDPad,CuDef*
G36*
X45290671Y-42339030D02*
G01*
X45371777Y-42393223D01*
X45425970Y-42474329D01*
X45445000Y-42569999D01*
X45445000Y-43470001D01*
X45425970Y-43565671D01*
X45371777Y-43646777D01*
X45290671Y-43700970D01*
X45195001Y-43720000D01*
X44544999Y-43720000D01*
X44449329Y-43700970D01*
X44368223Y-43646777D01*
X44314030Y-43565671D01*
X44295000Y-43470001D01*
X44295000Y-42569999D01*
X44314030Y-42474329D01*
X44368223Y-42393223D01*
X44449329Y-42339030D01*
X44544999Y-42320000D01*
X45195001Y-42320000D01*
X45290671Y-42339030D01*
G37*
G04 #@! TD.AperFunction*
G04 #@! TA.AperFunction,SMDPad,CuDef*
G36*
X47340671Y-42339030D02*
G01*
X47421777Y-42393223D01*
X47475970Y-42474329D01*
X47495000Y-42569999D01*
X47495000Y-43470001D01*
X47475970Y-43565671D01*
X47421777Y-43646777D01*
X47340671Y-43700970D01*
X47245001Y-43720000D01*
X46594999Y-43720000D01*
X46499329Y-43700970D01*
X46418223Y-43646777D01*
X46364030Y-43565671D01*
X46345000Y-43470001D01*
X46345000Y-42569999D01*
X46364030Y-42474329D01*
X46418223Y-42393223D01*
X46499329Y-42339030D01*
X46594999Y-42320000D01*
X47245001Y-42320000D01*
X47340671Y-42339030D01*
G37*
G04 #@! TD.AperFunction*
G04 #@! TA.AperFunction,SMDPad,CuDef*
G36*
X53405671Y-42289030D02*
G01*
X53486777Y-42343223D01*
X53540970Y-42424329D01*
X53560000Y-42520000D01*
X53560000Y-45020000D01*
X53540970Y-45115671D01*
X53486777Y-45196777D01*
X53405671Y-45250970D01*
X53310000Y-45270000D01*
X52210000Y-45270000D01*
X52114329Y-45250970D01*
X52033223Y-45196777D01*
X51979030Y-45115671D01*
X51960000Y-45020000D01*
X51960000Y-42520000D01*
X51979030Y-42424329D01*
X52033223Y-42343223D01*
X52114329Y-42289030D01*
X52210000Y-42270000D01*
X53310000Y-42270000D01*
X53405671Y-42289030D01*
G37*
G04 #@! TD.AperFunction*
G04 #@! TA.AperFunction,SMDPad,CuDef*
G36*
X53405671Y-37889030D02*
G01*
X53486777Y-37943223D01*
X53540970Y-38024329D01*
X53560000Y-38120000D01*
X53560000Y-40620000D01*
X53540970Y-40715671D01*
X53486777Y-40796777D01*
X53405671Y-40850970D01*
X53310000Y-40870000D01*
X52210000Y-40870000D01*
X52114329Y-40850970D01*
X52033223Y-40796777D01*
X51979030Y-40715671D01*
X51960000Y-40620000D01*
X51960000Y-38120000D01*
X51979030Y-38024329D01*
X52033223Y-37943223D01*
X52114329Y-37889030D01*
X52210000Y-37870000D01*
X53310000Y-37870000D01*
X53405671Y-37889030D01*
G37*
G04 #@! TD.AperFunction*
G04 #@! TA.AperFunction,SMDPad,CuDef*
G36*
X45250671Y-45689030D02*
G01*
X45331777Y-45743223D01*
X45385970Y-45824329D01*
X45405000Y-45919999D01*
X45405000Y-46820001D01*
X45385970Y-46915671D01*
X45331777Y-46996777D01*
X45250671Y-47050970D01*
X45155001Y-47070000D01*
X44504999Y-47070000D01*
X44409329Y-47050970D01*
X44328223Y-46996777D01*
X44274030Y-46915671D01*
X44255000Y-46820001D01*
X44255000Y-45919999D01*
X44274030Y-45824329D01*
X44328223Y-45743223D01*
X44409329Y-45689030D01*
X44504999Y-45670000D01*
X45155001Y-45670000D01*
X45250671Y-45689030D01*
G37*
G04 #@! TD.AperFunction*
G04 #@! TA.AperFunction,SMDPad,CuDef*
G36*
X47300671Y-45689030D02*
G01*
X47381777Y-45743223D01*
X47435970Y-45824329D01*
X47455000Y-45919999D01*
X47455000Y-46820001D01*
X47435970Y-46915671D01*
X47381777Y-46996777D01*
X47300671Y-47050970D01*
X47205001Y-47070000D01*
X46554999Y-47070000D01*
X46459329Y-47050970D01*
X46378223Y-46996777D01*
X46324030Y-46915671D01*
X46305000Y-46820001D01*
X46305000Y-45919999D01*
X46324030Y-45824329D01*
X46378223Y-45743223D01*
X46459329Y-45689030D01*
X46554999Y-45670000D01*
X47205001Y-45670000D01*
X47300671Y-45689030D01*
G37*
G04 #@! TD.AperFunction*
G04 #@! TA.AperFunction,SMDPad,CuDef*
G36*
X50895671Y-60804030D02*
G01*
X50976777Y-60858223D01*
X51030970Y-60939329D01*
X51050000Y-61034999D01*
X51050000Y-61685001D01*
X51030970Y-61780671D01*
X50976777Y-61861777D01*
X50895671Y-61915970D01*
X50800001Y-61935000D01*
X49899999Y-61935000D01*
X49804329Y-61915970D01*
X49723223Y-61861777D01*
X49669030Y-61780671D01*
X49650000Y-61685001D01*
X49650000Y-61034999D01*
X49669030Y-60939329D01*
X49723223Y-60858223D01*
X49804329Y-60804030D01*
X49899999Y-60785000D01*
X50800001Y-60785000D01*
X50895671Y-60804030D01*
G37*
G04 #@! TD.AperFunction*
G04 #@! TA.AperFunction,SMDPad,CuDef*
G36*
X50895671Y-58754030D02*
G01*
X50976777Y-58808223D01*
X51030970Y-58889329D01*
X51050000Y-58984999D01*
X51050000Y-59635001D01*
X51030970Y-59730671D01*
X50976777Y-59811777D01*
X50895671Y-59865970D01*
X50800001Y-59885000D01*
X49899999Y-59885000D01*
X49804329Y-59865970D01*
X49723223Y-59811777D01*
X49669030Y-59730671D01*
X49650000Y-59635001D01*
X49650000Y-58984999D01*
X49669030Y-58889329D01*
X49723223Y-58808223D01*
X49804329Y-58754030D01*
X49899999Y-58735000D01*
X50800001Y-58735000D01*
X50895671Y-58754030D01*
G37*
G04 #@! TD.AperFunction*
G04 #@! TA.AperFunction,SMDPad,CuDef*
G36*
X56115671Y-60639030D02*
G01*
X56196777Y-60693223D01*
X56250970Y-60774329D01*
X56270000Y-60870000D01*
X56270000Y-63370000D01*
X56250970Y-63465671D01*
X56196777Y-63546777D01*
X56115671Y-63600970D01*
X56020000Y-63620000D01*
X54920000Y-63620000D01*
X54824329Y-63600970D01*
X54743223Y-63546777D01*
X54689030Y-63465671D01*
X54670000Y-63370000D01*
X54670000Y-60870000D01*
X54689030Y-60774329D01*
X54743223Y-60693223D01*
X54824329Y-60639030D01*
X54920000Y-60620000D01*
X56020000Y-60620000D01*
X56115671Y-60639030D01*
G37*
G04 #@! TD.AperFunction*
G04 #@! TA.AperFunction,SMDPad,CuDef*
G36*
X56115671Y-56239030D02*
G01*
X56196777Y-56293223D01*
X56250970Y-56374329D01*
X56270000Y-56470000D01*
X56270000Y-58970000D01*
X56250970Y-59065671D01*
X56196777Y-59146777D01*
X56115671Y-59200970D01*
X56020000Y-59220000D01*
X54920000Y-59220000D01*
X54824329Y-59200970D01*
X54743223Y-59146777D01*
X54689030Y-59065671D01*
X54670000Y-58970000D01*
X54670000Y-56470000D01*
X54689030Y-56374329D01*
X54743223Y-56293223D01*
X54824329Y-56239030D01*
X54920000Y-56220000D01*
X56020000Y-56220000D01*
X56115671Y-56239030D01*
G37*
G04 #@! TD.AperFunction*
D16*
X41435000Y-31780000D03*
X49185000Y-31780000D03*
D17*
X41585000Y-35580000D03*
X49035000Y-35580000D03*
D18*
X44010000Y-35630000D03*
X44660000Y-35630000D03*
X45310000Y-35630000D03*
X45960000Y-35630000D03*
X46610000Y-35630000D03*
D19*
X77410000Y-32300000D03*
X74870000Y-32300000D03*
X72330000Y-32300000D03*
X69790000Y-32300000D03*
X67250000Y-32300000D03*
D20*
X64710000Y-32300000D03*
G04 #@! TA.AperFunction,SMDPad,CuDef*
G36*
X63305671Y-41979030D02*
G01*
X63386777Y-42033223D01*
X63440970Y-42114329D01*
X63460000Y-42209999D01*
X63460000Y-42860001D01*
X63440970Y-42955671D01*
X63386777Y-43036777D01*
X63305671Y-43090970D01*
X63210001Y-43110000D01*
X62309999Y-43110000D01*
X62214329Y-43090970D01*
X62133223Y-43036777D01*
X62079030Y-42955671D01*
X62060000Y-42860001D01*
X62060000Y-42209999D01*
X62079030Y-42114329D01*
X62133223Y-42033223D01*
X62214329Y-41979030D01*
X62309999Y-41960000D01*
X63210001Y-41960000D01*
X63305671Y-41979030D01*
G37*
G04 #@! TD.AperFunction*
G04 #@! TA.AperFunction,SMDPad,CuDef*
G36*
X63305671Y-39929030D02*
G01*
X63386777Y-39983223D01*
X63440970Y-40064329D01*
X63460000Y-40159999D01*
X63460000Y-40810001D01*
X63440970Y-40905671D01*
X63386777Y-40986777D01*
X63305671Y-41040970D01*
X63210001Y-41060000D01*
X62309999Y-41060000D01*
X62214329Y-41040970D01*
X62133223Y-40986777D01*
X62079030Y-40905671D01*
X62060000Y-40810001D01*
X62060000Y-40159999D01*
X62079030Y-40064329D01*
X62133223Y-39983223D01*
X62214329Y-39929030D01*
X62309999Y-39910000D01*
X63210001Y-39910000D01*
X63305671Y-39929030D01*
G37*
G04 #@! TD.AperFunction*
G04 #@! TA.AperFunction,SMDPad,CuDef*
G36*
X45885671Y-62759030D02*
G01*
X45966777Y-62813223D01*
X46020970Y-62894329D01*
X46040000Y-62989999D01*
X46040000Y-63890001D01*
X46020970Y-63985671D01*
X45966777Y-64066777D01*
X45885671Y-64120970D01*
X45790001Y-64140000D01*
X45139999Y-64140000D01*
X45044329Y-64120970D01*
X44963223Y-64066777D01*
X44909030Y-63985671D01*
X44890000Y-63890001D01*
X44890000Y-62989999D01*
X44909030Y-62894329D01*
X44963223Y-62813223D01*
X45044329Y-62759030D01*
X45139999Y-62740000D01*
X45790001Y-62740000D01*
X45885671Y-62759030D01*
G37*
G04 #@! TD.AperFunction*
G04 #@! TA.AperFunction,SMDPad,CuDef*
G36*
X47935671Y-62759030D02*
G01*
X48016777Y-62813223D01*
X48070970Y-62894329D01*
X48090000Y-62989999D01*
X48090000Y-63890001D01*
X48070970Y-63985671D01*
X48016777Y-64066777D01*
X47935671Y-64120970D01*
X47840001Y-64140000D01*
X47189999Y-64140000D01*
X47094329Y-64120970D01*
X47013223Y-64066777D01*
X46959030Y-63985671D01*
X46940000Y-63890001D01*
X46940000Y-62989999D01*
X46959030Y-62894329D01*
X47013223Y-62813223D01*
X47094329Y-62759030D01*
X47189999Y-62740000D01*
X47840001Y-62740000D01*
X47935671Y-62759030D01*
G37*
G04 #@! TD.AperFunction*
G04 #@! TA.AperFunction,SMDPad,CuDef*
G36*
X42655671Y-60734030D02*
G01*
X42736777Y-60788223D01*
X42790970Y-60869329D01*
X42810000Y-60964999D01*
X42810000Y-61615001D01*
X42790970Y-61710671D01*
X42736777Y-61791777D01*
X42655671Y-61845970D01*
X42560001Y-61865000D01*
X41659999Y-61865000D01*
X41564329Y-61845970D01*
X41483223Y-61791777D01*
X41429030Y-61710671D01*
X41410000Y-61615001D01*
X41410000Y-60964999D01*
X41429030Y-60869329D01*
X41483223Y-60788223D01*
X41564329Y-60734030D01*
X41659999Y-60715000D01*
X42560001Y-60715000D01*
X42655671Y-60734030D01*
G37*
G04 #@! TD.AperFunction*
G04 #@! TA.AperFunction,SMDPad,CuDef*
G36*
X42655671Y-62784030D02*
G01*
X42736777Y-62838223D01*
X42790970Y-62919329D01*
X42810000Y-63014999D01*
X42810000Y-63665001D01*
X42790970Y-63760671D01*
X42736777Y-63841777D01*
X42655671Y-63895970D01*
X42560001Y-63915000D01*
X41659999Y-63915000D01*
X41564329Y-63895970D01*
X41483223Y-63841777D01*
X41429030Y-63760671D01*
X41410000Y-63665001D01*
X41410000Y-63014999D01*
X41429030Y-62919329D01*
X41483223Y-62838223D01*
X41564329Y-62784030D01*
X41659999Y-62765000D01*
X42560001Y-62765000D01*
X42655671Y-62784030D01*
G37*
G04 #@! TD.AperFunction*
D21*
X49720000Y-55270000D03*
X49720000Y-50670000D03*
X49720000Y-52970000D03*
D22*
X43420000Y-52970000D03*
D23*
X58010000Y-65240000D03*
X69227347Y-34727347D03*
X69227347Y-41992653D03*
X64080000Y-48750000D03*
D24*
X61480000Y-51470000D02*
X62680000Y-51470000D01*
X61480000Y-50670000D02*
X62680000Y-50670000D01*
X62680000Y-50670000D02*
X62680000Y-51470000D01*
X69790000Y-32300000D02*
X66299990Y-35790010D01*
X66299990Y-35790010D02*
X66299990Y-38529990D01*
X66299990Y-38529990D02*
X67400000Y-39630000D01*
X60170000Y-51470000D02*
X61480000Y-51470000D01*
X60170000Y-52270000D02*
X58780000Y-52270000D01*
X61481000Y-52270000D02*
X60170000Y-52270000D01*
X62680000Y-52270000D02*
X61481000Y-52270000D01*
X61480000Y-50670000D02*
X59190000Y-50670000D01*
X59190000Y-50670000D02*
X58760000Y-50240000D01*
X45465000Y-63440000D02*
X42210000Y-63440000D01*
X42210000Y-63440000D02*
X42110000Y-63340000D01*
X47515000Y-63440000D02*
X47515000Y-62145000D01*
X47515000Y-62145000D02*
X50350000Y-59310000D01*
X63930000Y-46266000D02*
X63930000Y-47470000D01*
X64728000Y-46272000D02*
X64728000Y-47468000D01*
X64728000Y-47468000D02*
X64730000Y-47470000D01*
X65530000Y-46272000D02*
X65530000Y-47470000D01*
X66330000Y-46272000D02*
X66330000Y-47470000D01*
X67129000Y-46272000D02*
X67129000Y-47469000D01*
X67129000Y-47469000D02*
X67130000Y-47470000D01*
X67931000Y-46267000D02*
X67931000Y-47469000D01*
X67931000Y-47469000D02*
X67930000Y-47470000D01*
X68730000Y-46269000D02*
X68730000Y-47470000D01*
X69529000Y-46269000D02*
X69529000Y-47469000D01*
X69529000Y-47469000D02*
X69530000Y-47470000D01*
X71929000Y-46265000D02*
X71929000Y-47469000D01*
X71929000Y-47469000D02*
X71930000Y-47470000D01*
X71130000Y-46271000D02*
X71130000Y-47470000D01*
X70329000Y-46268000D02*
X70329000Y-47469000D01*
X70329000Y-47469000D02*
X70330000Y-47470000D01*
X72730000Y-46269000D02*
X72730000Y-47470000D01*
X50720000Y-52970000D02*
X49720000Y-52970000D01*
X68330000Y-52670000D02*
X68330000Y-50170000D01*
X65830000Y-52670000D02*
X65830000Y-50170000D01*
X65830000Y-55170000D02*
X65830000Y-52670000D01*
X68330000Y-55170000D02*
X68330000Y-52670000D01*
X70830000Y-55170000D02*
X70830000Y-52670000D01*
X68330000Y-55170000D02*
X70830000Y-55170000D01*
X65830000Y-55170000D02*
X68330000Y-55170000D01*
X68330000Y-52670000D02*
X70830000Y-52670000D01*
X65830000Y-52670000D02*
X68330000Y-52670000D01*
X68330000Y-50170000D02*
X70830000Y-50170000D01*
X65830000Y-50170000D02*
X68330000Y-50170000D01*
D25*
X74870000Y-32300000D02*
X73694999Y-33475001D01*
X73694999Y-33475001D02*
X71504999Y-33475001D01*
X71504999Y-33475001D02*
X67400000Y-37580000D01*
X73000000Y-35760000D02*
X73000000Y-35510000D01*
X73000000Y-43710000D02*
X73000000Y-35760000D01*
X77500000Y-35760000D02*
X77500000Y-34930000D01*
X77500000Y-34930000D02*
X74870000Y-32300000D01*
X77500000Y-43710000D02*
X77500000Y-35760000D01*
X77500000Y-43710000D02*
X77500000Y-48599000D01*
X77500000Y-48599000D02*
X76229000Y-49870000D01*
X76229000Y-49870000D02*
X75179000Y-49870000D01*
D24*
X73980000Y-54670000D02*
X75181000Y-54670000D01*
X73980000Y-53870000D02*
X75182000Y-53870000D01*
X73980000Y-53070000D02*
X75183000Y-53070000D01*
X73980000Y-52270000D02*
X75179000Y-52270000D01*
X75179000Y-52270000D02*
X75180000Y-52269000D01*
X73980000Y-51470000D02*
X75170000Y-51470000D01*
X75170000Y-51470000D02*
X75171000Y-51469000D01*
X78140000Y-54335000D02*
X77440000Y-54335000D01*
X76383001Y-51701999D02*
X76150002Y-51469000D01*
X77440000Y-54335000D02*
X76383001Y-53278001D01*
X76383001Y-53278001D02*
X76383001Y-51701999D01*
X76150002Y-51469000D02*
X75171000Y-51469000D01*
X53020000Y-52220000D02*
X55780000Y-52220000D01*
X50720000Y-52220000D02*
X53020000Y-52220000D01*
X55470000Y-57720000D02*
X53020000Y-55270000D01*
X53020000Y-55270000D02*
X53020000Y-52220000D01*
X50350000Y-59310000D02*
X53880000Y-59310000D01*
X53880000Y-59310000D02*
X55470000Y-57720000D01*
X45365000Y-63340000D02*
X45465000Y-63440000D01*
X49720000Y-55270000D02*
X45465000Y-59525000D01*
X45465000Y-59525000D02*
X45465000Y-63440000D01*
X49720000Y-52970000D02*
X49970000Y-52970000D01*
X49970000Y-52970000D02*
X50720000Y-52220000D01*
X46880000Y-46370000D02*
X46880000Y-47830000D01*
X46880000Y-47830000D02*
X49720000Y-50670000D01*
X46920000Y-43020000D02*
X46920000Y-46330000D01*
X46920000Y-46330000D02*
X46880000Y-46370000D01*
X52760000Y-39370000D02*
X49110000Y-43020000D01*
X49110000Y-43020000D02*
X46920000Y-43020000D01*
X46610000Y-35630000D02*
X50350000Y-39370000D01*
X50350000Y-39370000D02*
X52760000Y-39370000D01*
D25*
X61481000Y-49870000D02*
X62680000Y-49870000D01*
X61481000Y-49870000D02*
X61030000Y-49870000D01*
D24*
X60170000Y-51470000D02*
X60170000Y-52270000D01*
X58780000Y-52270000D02*
X55780000Y-52270000D01*
X58760000Y-50240000D02*
X55760000Y-50240000D01*
X55780000Y-52220000D02*
X55780000Y-52270000D01*
X55780000Y-54270000D02*
X55780000Y-54220000D01*
X43420000Y-52970000D02*
X49720000Y-52970000D01*
D25*
X67930000Y-45437998D02*
X67930000Y-47470000D01*
X65027002Y-42535000D02*
X67930000Y-45437998D01*
X62760000Y-42535000D02*
X65027002Y-42535000D01*
D24*
X56935000Y-59185000D02*
X55470000Y-57720000D01*
X60500000Y-59185000D02*
X56935000Y-59185000D01*
X41435000Y-35430000D02*
X41585000Y-35580000D01*
X41435000Y-31780000D02*
X41435000Y-35430000D01*
X49185000Y-35430000D02*
X49035000Y-35580000D01*
X49185000Y-31780000D02*
X49185000Y-35430000D01*
X44010000Y-34684998D02*
X44010000Y-35630000D01*
X49035000Y-34180000D02*
X48584999Y-33729999D01*
X44964999Y-33729999D02*
X44010000Y-34684998D01*
X48584999Y-33729999D02*
X44964999Y-33729999D01*
X49035000Y-35580000D02*
X49035000Y-34180000D01*
X43960000Y-35580000D02*
X44010000Y-35630000D01*
X41585000Y-35580000D02*
X43960000Y-35580000D01*
D25*
X67250000Y-32300000D02*
X65710000Y-33840000D01*
X68730000Y-45219000D02*
X68730000Y-47470000D01*
X65710000Y-42199000D02*
X68730000Y-45219000D01*
X65710000Y-33840000D02*
X65710000Y-42199000D01*
X71585009Y-33024991D02*
X71105009Y-33024991D01*
X72330000Y-32300000D02*
X72310000Y-32300000D01*
X72310000Y-32300000D02*
X71585009Y-33024991D01*
X71105009Y-33024991D02*
X69402653Y-34727347D01*
X69402653Y-34727347D02*
X69227347Y-34727347D01*
X69529000Y-42294306D02*
X69529000Y-46269000D01*
X69227347Y-41992653D02*
X69529000Y-42294306D01*
X67129000Y-46272000D02*
X67129000Y-48179000D01*
D24*
X75176000Y-55471000D02*
X76709000Y-55471000D01*
X64080000Y-48750000D02*
X64080000Y-49480000D01*
X63690000Y-49870000D02*
X62680000Y-49870000D01*
X64080000Y-49480000D02*
X63690000Y-49870000D01*
X64080000Y-48750000D02*
X64080000Y-52710000D01*
X63720000Y-53070000D02*
X62680000Y-53070000D01*
X64080000Y-52710000D02*
X63720000Y-53070000D01*
X73980000Y-55470000D02*
X73170000Y-55470000D01*
G36*
X79864000Y-69874000D02*
G01*
X40116000Y-69874000D01*
X40116000Y-61491808D01*
X40770776Y-61491808D01*
X40770776Y-61619184D01*
X40772220Y-61632614D01*
X40845255Y-61968353D01*
X40853885Y-61989188D01*
X40982696Y-62189620D01*
X40994499Y-62203241D01*
X41122291Y-62313974D01*
X41085380Y-62337696D01*
X41071759Y-62349499D01*
X40917217Y-62527849D01*
X40907473Y-62543011D01*
X40809439Y-62757676D01*
X40804361Y-62774969D01*
X40771418Y-63004093D01*
X40770776Y-63013070D01*
X40770776Y-63669184D01*
X40772220Y-63682614D01*
X40845255Y-64018353D01*
X40853885Y-64039188D01*
X40982696Y-64239620D01*
X40994499Y-64253241D01*
X41172849Y-64407783D01*
X41188011Y-64417527D01*
X41402676Y-64515561D01*
X41419969Y-64520639D01*
X41649093Y-64553582D01*
X41658070Y-64554224D01*
X42564184Y-64554224D01*
X42577614Y-64552780D01*
X42913353Y-64479745D01*
X42934188Y-64471115D01*
X43134620Y-64342304D01*
X43148241Y-64330501D01*
X43195466Y-64276000D01*
X44341476Y-64276000D01*
X44462696Y-64464620D01*
X44474499Y-64478241D01*
X44652849Y-64632783D01*
X44668011Y-64642527D01*
X44882676Y-64740561D01*
X44899969Y-64745639D01*
X45129093Y-64778582D01*
X45138070Y-64779224D01*
X45794184Y-64779224D01*
X45807614Y-64777780D01*
X46143353Y-64704745D01*
X46164188Y-64696115D01*
X46364620Y-64567304D01*
X46378241Y-64555501D01*
X46488974Y-64427709D01*
X46512696Y-64464620D01*
X46524499Y-64478241D01*
X46702849Y-64632783D01*
X46718011Y-64642527D01*
X46932676Y-64740561D01*
X46949969Y-64745639D01*
X47179093Y-64778582D01*
X47188070Y-64779224D01*
X47844184Y-64779224D01*
X47857614Y-64777780D01*
X48193353Y-64704745D01*
X48214188Y-64696115D01*
X48414620Y-64567304D01*
X48428241Y-64555501D01*
X48582783Y-64377151D01*
X48592527Y-64361989D01*
X48690561Y-64147324D01*
X48695639Y-64130031D01*
X48728582Y-63900907D01*
X48729224Y-63891930D01*
X48729224Y-62985816D01*
X48727780Y-62972386D01*
X48654745Y-62636647D01*
X48646115Y-62615812D01*
X48517304Y-62415380D01*
X48505501Y-62401759D01*
X48470688Y-62371593D01*
X49034991Y-61807290D01*
X49085255Y-62038353D01*
X49093885Y-62059188D01*
X49222696Y-62259620D01*
X49234499Y-62273241D01*
X49412849Y-62427783D01*
X49428011Y-62437527D01*
X49642676Y-62535561D01*
X49659969Y-62540639D01*
X49889093Y-62573582D01*
X49898070Y-62574224D01*
X50148191Y-62574224D01*
X50222000Y-62500415D01*
X50477999Y-62500415D01*
X50551808Y-62574224D01*
X50804184Y-62574224D01*
X50817614Y-62572780D01*
X51153353Y-62499745D01*
X51174188Y-62491115D01*
X51374620Y-62362304D01*
X51388241Y-62350501D01*
X51413103Y-62321808D01*
X54030776Y-62321808D01*
X54030776Y-63374183D01*
X54032220Y-63387613D01*
X54105255Y-63723353D01*
X54113885Y-63744187D01*
X54242696Y-63944620D01*
X54254499Y-63958241D01*
X54432849Y-64112783D01*
X54448011Y-64122527D01*
X54662677Y-64220561D01*
X54679970Y-64225639D01*
X54909094Y-64258582D01*
X54918071Y-64259224D01*
X55268191Y-64259224D01*
X55342000Y-64185415D01*
X55597999Y-64185415D01*
X55671808Y-64259224D01*
X56024183Y-64259224D01*
X56037613Y-64257780D01*
X56373353Y-64184745D01*
X56394187Y-64176115D01*
X56594620Y-64047304D01*
X56608241Y-64035501D01*
X56762783Y-63857151D01*
X56772527Y-63841989D01*
X56870561Y-63627323D01*
X56875639Y-63610030D01*
X56908582Y-63380906D01*
X56909224Y-63371929D01*
X56909224Y-62321809D01*
X56835415Y-62248000D01*
X55671809Y-62247999D01*
X55598000Y-62321808D01*
X55597999Y-64185415D01*
X55342000Y-64185415D01*
X55342001Y-62321809D01*
X55268192Y-62248000D01*
X54104585Y-62247999D01*
X54030776Y-62321808D01*
X51413103Y-62321808D01*
X51542783Y-62172151D01*
X51552527Y-62156989D01*
X51650561Y-61942324D01*
X51655639Y-61925031D01*
X51688582Y-61695907D01*
X51689224Y-61686930D01*
X51689224Y-61561809D01*
X51615415Y-61488000D01*
X50551809Y-61487999D01*
X50478000Y-61561808D01*
X50477999Y-62500415D01*
X50222000Y-62500415D01*
X50222001Y-61561808D01*
X50222000Y-61561807D01*
X50222001Y-61232000D01*
X51615415Y-61232001D01*
X51689224Y-61158192D01*
X51689224Y-61030816D01*
X51687780Y-61017386D01*
X51655299Y-60868071D01*
X54030776Y-60868071D01*
X54030776Y-61918191D01*
X54104585Y-61992000D01*
X55268191Y-61992001D01*
X55342000Y-61918192D01*
X55342000Y-61918191D01*
X55597999Y-61918191D01*
X55671808Y-61992000D01*
X56835415Y-61992001D01*
X56909224Y-61918192D01*
X56909224Y-61436808D01*
X59160776Y-61436808D01*
X59160776Y-61564184D01*
X59162220Y-61577614D01*
X59235255Y-61913353D01*
X59243885Y-61934188D01*
X59372696Y-62134620D01*
X59384499Y-62148241D01*
X59562849Y-62302783D01*
X59578011Y-62312527D01*
X59792676Y-62410561D01*
X59809969Y-62415639D01*
X60039093Y-62448582D01*
X60048070Y-62449224D01*
X60298191Y-62449224D01*
X60372000Y-62375415D01*
X60627999Y-62375415D01*
X60701808Y-62449224D01*
X60954184Y-62449224D01*
X60967614Y-62447780D01*
X61303353Y-62374745D01*
X61324188Y-62366115D01*
X61524620Y-62237304D01*
X61538241Y-62225501D01*
X61692783Y-62047151D01*
X61702527Y-62031989D01*
X61800561Y-61817324D01*
X61805639Y-61800031D01*
X61838582Y-61570907D01*
X61839224Y-61561930D01*
X61839224Y-61436809D01*
X61765415Y-61363000D01*
X60701809Y-61362999D01*
X60628000Y-61436808D01*
X60627999Y-62375415D01*
X60372000Y-62375415D01*
X60372001Y-61436809D01*
X60298192Y-61363000D01*
X59234585Y-61362999D01*
X59160776Y-61436808D01*
X56909224Y-61436808D01*
X56909224Y-60865817D01*
X56907780Y-60852387D01*
X56834745Y-60516647D01*
X56826115Y-60495813D01*
X56697304Y-60295380D01*
X56685501Y-60281759D01*
X56507151Y-60127217D01*
X56491989Y-60117473D01*
X56277323Y-60019439D01*
X56260030Y-60014361D01*
X56030906Y-59981418D01*
X56021929Y-59980776D01*
X55671809Y-59980776D01*
X55598000Y-60054585D01*
X55597999Y-61918191D01*
X55342000Y-61918191D01*
X55342001Y-60054585D01*
X55268192Y-59980776D01*
X54915817Y-59980776D01*
X54902387Y-59982220D01*
X54566647Y-60055255D01*
X54545813Y-60063885D01*
X54345380Y-60192696D01*
X54331759Y-60204499D01*
X54177217Y-60382849D01*
X54167473Y-60398011D01*
X54069439Y-60612677D01*
X54064361Y-60629970D01*
X54031418Y-60859094D01*
X54030776Y-60868071D01*
X51655299Y-60868071D01*
X51614745Y-60681647D01*
X51606115Y-60660812D01*
X51477304Y-60460380D01*
X51465501Y-60446759D01*
X51337709Y-60336026D01*
X51374620Y-60312304D01*
X51388241Y-60300501D01*
X51522118Y-60146000D01*
X53786345Y-60146000D01*
X53803422Y-60149864D01*
X53821317Y-60151304D01*
X53906808Y-60146000D01*
X53935463Y-60146000D01*
X53944406Y-60145363D01*
X53965291Y-60142372D01*
X54042219Y-60137599D01*
X54059799Y-60133959D01*
X54083317Y-60125469D01*
X54108072Y-60121924D01*
X54125303Y-60116885D01*
X54195482Y-60084976D01*
X54268160Y-60058739D01*
X54284327Y-60050080D01*
X54303601Y-60035818D01*
X54326784Y-60025277D01*
X54341908Y-60015605D01*
X54408738Y-59958021D01*
X54426209Y-59945093D01*
X54433292Y-59938990D01*
X54448656Y-59923625D01*
X54509579Y-59871130D01*
X54521381Y-59857603D01*
X54533727Y-59838555D01*
X54586507Y-59785776D01*
X54662677Y-59820561D01*
X54679970Y-59825639D01*
X54909094Y-59858582D01*
X54918071Y-59859224D01*
X56024183Y-59859224D01*
X56037613Y-59857780D01*
X56355492Y-59788630D01*
X56362825Y-59795107D01*
X56383076Y-59815359D01*
X56389850Y-59821232D01*
X56406733Y-59833886D01*
X56464506Y-59884909D01*
X56479511Y-59894765D01*
X56502143Y-59905390D01*
X56522153Y-59920387D01*
X56537900Y-59929009D01*
X56610089Y-59956072D01*
X56680033Y-59988910D01*
X56697587Y-59994218D01*
X56721303Y-59997763D01*
X56745147Y-60006701D01*
X56762681Y-60010556D01*
X56850649Y-60017094D01*
X56872148Y-60020307D01*
X56881473Y-60021000D01*
X56903210Y-60021000D01*
X56983401Y-60026959D01*
X57001312Y-60025738D01*
X57023508Y-60021000D01*
X59331810Y-60021000D01*
X59372696Y-60084620D01*
X59384499Y-60098241D01*
X59512291Y-60208974D01*
X59475380Y-60232696D01*
X59461759Y-60244499D01*
X59307217Y-60422849D01*
X59297473Y-60438011D01*
X59199439Y-60652676D01*
X59194361Y-60669969D01*
X59161418Y-60899093D01*
X59160776Y-60908070D01*
X59160776Y-61033191D01*
X59234585Y-61107000D01*
X60298192Y-61107001D01*
X60298193Y-61107000D01*
X61765415Y-61107001D01*
X61839224Y-61033192D01*
X61839224Y-60905816D01*
X61837780Y-60892386D01*
X61764745Y-60556647D01*
X61756115Y-60535812D01*
X61627304Y-60335380D01*
X61615501Y-60321759D01*
X61487709Y-60211026D01*
X61524620Y-60187304D01*
X61538241Y-60175501D01*
X61692783Y-59997151D01*
X61702527Y-59981989D01*
X61800561Y-59767324D01*
X61805639Y-59750031D01*
X61838582Y-59520907D01*
X61839224Y-59511930D01*
X61839224Y-58855816D01*
X61837780Y-58842386D01*
X61764745Y-58506647D01*
X61756115Y-58485812D01*
X61627304Y-58285380D01*
X61615501Y-58271759D01*
X61437151Y-58117217D01*
X61421989Y-58107473D01*
X61207324Y-58009439D01*
X61190031Y-58004361D01*
X60960907Y-57971418D01*
X60951930Y-57970776D01*
X60045816Y-57970776D01*
X60032386Y-57972220D01*
X59696647Y-58045255D01*
X59675812Y-58053885D01*
X59475380Y-58182696D01*
X59461759Y-58194499D01*
X59327882Y-58349000D01*
X57281282Y-58349000D01*
X56909224Y-57976942D01*
X56909224Y-56465817D01*
X56907780Y-56452387D01*
X56834745Y-56116647D01*
X56826115Y-56095813D01*
X56697304Y-55895380D01*
X56685501Y-55881759D01*
X56507151Y-55727217D01*
X56491989Y-55717473D01*
X56277323Y-55619439D01*
X56260030Y-55614361D01*
X56030906Y-55581418D01*
X56021929Y-55580776D01*
X54915817Y-55580776D01*
X54902387Y-55582220D01*
X54583804Y-55651523D01*
X53856000Y-54923719D01*
X53856000Y-54471808D01*
X54440776Y-54471808D01*
X54440776Y-54599184D01*
X54442220Y-54612614D01*
X54515255Y-54948353D01*
X54523885Y-54969188D01*
X54652696Y-55169620D01*
X54664499Y-55183241D01*
X54842849Y-55337783D01*
X54858011Y-55347527D01*
X55072676Y-55445561D01*
X55089969Y-55450639D01*
X55319093Y-55483582D01*
X55328070Y-55484224D01*
X55578191Y-55484224D01*
X55652000Y-55410415D01*
X55907999Y-55410415D01*
X55981808Y-55484224D01*
X56234184Y-55484224D01*
X56247614Y-55482780D01*
X56583353Y-55409745D01*
X56604188Y-55401115D01*
X56804620Y-55272304D01*
X56818241Y-55260501D01*
X56972783Y-55082151D01*
X56982527Y-55066989D01*
X57080561Y-54852324D01*
X57085639Y-54835031D01*
X57118582Y-54605907D01*
X57119224Y-54596930D01*
X57119224Y-54521808D01*
X57440776Y-54521808D01*
X57440776Y-54649184D01*
X57442220Y-54662614D01*
X57515255Y-54998353D01*
X57523885Y-55019188D01*
X57652696Y-55219620D01*
X57664499Y-55233241D01*
X57842849Y-55387783D01*
X57858011Y-55397527D01*
X58072676Y-55495561D01*
X58089969Y-55500639D01*
X58319093Y-55533582D01*
X58328070Y-55534224D01*
X58578191Y-55534224D01*
X58652000Y-55460415D01*
X58652001Y-54521809D01*
X58578192Y-54448000D01*
X57514585Y-54447999D01*
X57440776Y-54521808D01*
X57119224Y-54521808D01*
X57119224Y-54471809D01*
X57045415Y-54398000D01*
X55981809Y-54397999D01*
X55908000Y-54471808D01*
X55907999Y-55410415D01*
X55652000Y-55410415D01*
X55652001Y-54471809D01*
X55578192Y-54398000D01*
X54514585Y-54397999D01*
X54440776Y-54471808D01*
X53856000Y-54471808D01*
X53856000Y-53056000D01*
X54611810Y-53056000D01*
X54652696Y-53119620D01*
X54664499Y-53133241D01*
X54792291Y-53243974D01*
X54755380Y-53267696D01*
X54741759Y-53279499D01*
X54587217Y-53457849D01*
X54577473Y-53473011D01*
X54479439Y-53687676D01*
X54474361Y-53704969D01*
X54441418Y-53934093D01*
X54440776Y-53943070D01*
X54440776Y-54068191D01*
X54514585Y-54142000D01*
X55578192Y-54142001D01*
X55578193Y-54142000D01*
X57045415Y-54142001D01*
X57119224Y-54068192D01*
X57119224Y-53940816D01*
X57117780Y-53927386D01*
X57044745Y-53591647D01*
X57036115Y-53570812D01*
X56907304Y-53370380D01*
X56895501Y-53356759D01*
X56767709Y-53246026D01*
X56804620Y-53222304D01*
X56818241Y-53210501D01*
X56908792Y-53106000D01*
X57611810Y-53106000D01*
X57652696Y-53169620D01*
X57664499Y-53183241D01*
X57792291Y-53293974D01*
X57755380Y-53317696D01*
X57741759Y-53329499D01*
X57587217Y-53507849D01*
X57577473Y-53523011D01*
X57479439Y-53737676D01*
X57474361Y-53754969D01*
X57441418Y-53984093D01*
X57440776Y-53993070D01*
X57440776Y-54118191D01*
X57514585Y-54192000D01*
X58578192Y-54192001D01*
X58578193Y-54192000D01*
X58908000Y-54192001D01*
X58907999Y-55460415D01*
X58981808Y-55534224D01*
X59234184Y-55534224D01*
X59247614Y-55532780D01*
X59583353Y-55459745D01*
X59604188Y-55451115D01*
X59804620Y-55322304D01*
X59818241Y-55310501D01*
X59972783Y-55132151D01*
X59982527Y-55116989D01*
X60048516Y-54972493D01*
X60068024Y-55045299D01*
X60040122Y-55203538D01*
X60039163Y-55214499D01*
X60039163Y-55728259D01*
X60041319Y-55744634D01*
X60068024Y-55844299D01*
X60040122Y-56002538D01*
X60039163Y-56013499D01*
X60039163Y-56527259D01*
X60041319Y-56543634D01*
X60068237Y-56644093D01*
X60040122Y-56803538D01*
X60039163Y-56814499D01*
X60039163Y-57328258D01*
X60041319Y-57344634D01*
X60116137Y-57623859D01*
X60128880Y-57648339D01*
X60259990Y-57804590D01*
X60276879Y-57818761D01*
X60451120Y-57919359D01*
X60471837Y-57926900D01*
X60664538Y-57960878D01*
X60675499Y-57961837D01*
X63038163Y-57961837D01*
X63038163Y-59876258D01*
X63040319Y-59892634D01*
X63115137Y-60171859D01*
X63127880Y-60196339D01*
X63258990Y-60352590D01*
X63275879Y-60366761D01*
X63450120Y-60467359D01*
X63470837Y-60474900D01*
X63663538Y-60508878D01*
X63674499Y-60509837D01*
X64188259Y-60509837D01*
X64204634Y-60507681D01*
X64299798Y-60482182D01*
X64462538Y-60510878D01*
X64473499Y-60511837D01*
X64987258Y-60511837D01*
X65003634Y-60509681D01*
X65121305Y-60478152D01*
X65261538Y-60502878D01*
X65272499Y-60503837D01*
X65786259Y-60503837D01*
X65802634Y-60501681D01*
X65885484Y-60479482D01*
X66063538Y-60510878D01*
X66074499Y-60511837D01*
X66588258Y-60511837D01*
X66604634Y-60509681D01*
X66718201Y-60479251D01*
X66863538Y-60504878D01*
X66874499Y-60505837D01*
X67388259Y-60505837D01*
X67404634Y-60503681D01*
X67504299Y-60476976D01*
X67662538Y-60504878D01*
X67673499Y-60505837D01*
X68187259Y-60505837D01*
X68203634Y-60503681D01*
X68297341Y-60478573D01*
X68463538Y-60507878D01*
X68474499Y-60508837D01*
X68988258Y-60508837D01*
X69004634Y-60506681D01*
X69110654Y-60478274D01*
X69261538Y-60504878D01*
X69272499Y-60505837D01*
X69786259Y-60505837D01*
X69802634Y-60503681D01*
X69894487Y-60479069D01*
X70063538Y-60508878D01*
X70074499Y-60509837D01*
X70588258Y-60509837D01*
X70604634Y-60507681D01*
X70712906Y-60478670D01*
X70861538Y-60504878D01*
X70872499Y-60505837D01*
X71386258Y-60505837D01*
X71402634Y-60503681D01*
X71516994Y-60473039D01*
X71663538Y-60498878D01*
X71674499Y-60499837D01*
X72188259Y-60499837D01*
X72204634Y-60497681D01*
X72278083Y-60478000D01*
X72464538Y-60510878D01*
X72475499Y-60511837D01*
X72989258Y-60511837D01*
X73005634Y-60509681D01*
X73284859Y-60434863D01*
X73309339Y-60422120D01*
X73465590Y-60291010D01*
X73479761Y-60274121D01*
X73580359Y-60099880D01*
X73587900Y-60079163D01*
X73621878Y-59886462D01*
X73622837Y-59875501D01*
X73622837Y-58261741D01*
X73621837Y-58254146D01*
X73621837Y-57961837D01*
X73782191Y-57961837D01*
X73856000Y-57888028D01*
X73856000Y-57161837D01*
X74104000Y-57161837D01*
X74104000Y-57888028D01*
X74177809Y-57961837D01*
X74981191Y-57961837D01*
X75055000Y-57888028D01*
X75302999Y-57888028D01*
X75376808Y-57961837D01*
X75987258Y-57961837D01*
X76003634Y-57959681D01*
X76282859Y-57884863D01*
X76307339Y-57872120D01*
X76463590Y-57741010D01*
X76477761Y-57724121D01*
X76578359Y-57549880D01*
X76585900Y-57529163D01*
X76629125Y-57284018D01*
X76553592Y-57194000D01*
X75376809Y-57193999D01*
X75303000Y-57267808D01*
X75302999Y-57888028D01*
X75055000Y-57888028D01*
X75055001Y-57267808D01*
X75055000Y-57267807D01*
X75055001Y-57161837D01*
X75988258Y-57161837D01*
X76004634Y-57159681D01*
X76283859Y-57084863D01*
X76308339Y-57072120D01*
X76458642Y-56946001D01*
X76547028Y-56946001D01*
X76620837Y-56872192D01*
X76620837Y-56811741D01*
X76618681Y-56795366D01*
X76592473Y-56697555D01*
X76612000Y-56586808D01*
X76800776Y-56586808D01*
X76800776Y-56714184D01*
X76802220Y-56727614D01*
X76875255Y-57063353D01*
X76883885Y-57084188D01*
X77012696Y-57284620D01*
X77024499Y-57298241D01*
X77202849Y-57452783D01*
X77218011Y-57462527D01*
X77432676Y-57560561D01*
X77449969Y-57565639D01*
X77679093Y-57598582D01*
X77688070Y-57599224D01*
X77938191Y-57599224D01*
X78012000Y-57525415D01*
X78267999Y-57525415D01*
X78341808Y-57599224D01*
X78594184Y-57599224D01*
X78607614Y-57597780D01*
X78943353Y-57524745D01*
X78964188Y-57516115D01*
X79164620Y-57387304D01*
X79178241Y-57375501D01*
X79332783Y-57197151D01*
X79342527Y-57181989D01*
X79440561Y-56967324D01*
X79445639Y-56950031D01*
X79478582Y-56720907D01*
X79479224Y-56711930D01*
X79479224Y-56586809D01*
X79405415Y-56513000D01*
X78341809Y-56512999D01*
X78268000Y-56586808D01*
X78267999Y-57525415D01*
X78012000Y-57525415D01*
X78012001Y-56586809D01*
X77938192Y-56513000D01*
X76874585Y-56512999D01*
X76800776Y-56586808D01*
X76612000Y-56586808D01*
X76620878Y-56536462D01*
X76621837Y-56525501D01*
X76621837Y-56011741D01*
X76619681Y-55995366D01*
X76590564Y-55886698D01*
X76626126Y-55685018D01*
X76550592Y-55595000D01*
X76451011Y-55595000D01*
X76401010Y-55535411D01*
X76384121Y-55521239D01*
X76303925Y-55474938D01*
X76309339Y-55472120D01*
X76458450Y-55347001D01*
X76544028Y-55347001D01*
X76617837Y-55273192D01*
X76617837Y-55212741D01*
X76615681Y-55196366D01*
X76591779Y-55107161D01*
X76621878Y-54936462D01*
X76622837Y-54925501D01*
X76622837Y-54700118D01*
X76782628Y-54859909D01*
X76791976Y-54874724D01*
X76803612Y-54888396D01*
X76858645Y-54937000D01*
X76875255Y-55013353D01*
X76883885Y-55034187D01*
X77012696Y-55234620D01*
X77024499Y-55248241D01*
X77152291Y-55358974D01*
X77115380Y-55382696D01*
X77101759Y-55394499D01*
X76947217Y-55572849D01*
X76937473Y-55588011D01*
X76839439Y-55802676D01*
X76834361Y-55819969D01*
X76801418Y-56049093D01*
X76800776Y-56058070D01*
X76800776Y-56183191D01*
X76874585Y-56257000D01*
X77938192Y-56257001D01*
X77938193Y-56257000D01*
X79405415Y-56257001D01*
X79479224Y-56183192D01*
X79479224Y-56055816D01*
X79477780Y-56042386D01*
X79404745Y-55706647D01*
X79396115Y-55685812D01*
X79267304Y-55485380D01*
X79255501Y-55471759D01*
X79127709Y-55361026D01*
X79164620Y-55337304D01*
X79178241Y-55325501D01*
X79332783Y-55147151D01*
X79342527Y-55131989D01*
X79440561Y-54917324D01*
X79445639Y-54900031D01*
X79478582Y-54670907D01*
X79479224Y-54661930D01*
X79479224Y-54005816D01*
X79477780Y-53992386D01*
X79404745Y-53656647D01*
X79396115Y-53635812D01*
X79267304Y-53435380D01*
X79255501Y-53421759D01*
X79077151Y-53267217D01*
X79061989Y-53257473D01*
X78847324Y-53159439D01*
X78830031Y-53154361D01*
X78600907Y-53121418D01*
X78591930Y-53120776D01*
X77685816Y-53120776D01*
X77672386Y-53122220D01*
X77456471Y-53169189D01*
X77219001Y-52931719D01*
X77219001Y-51795655D01*
X77222865Y-51778578D01*
X77224305Y-51760683D01*
X77219001Y-51675190D01*
X77219001Y-51646536D01*
X77218364Y-51637592D01*
X77215372Y-51616707D01*
X77210600Y-51539778D01*
X77206959Y-51522197D01*
X77198470Y-51498682D01*
X77194925Y-51473929D01*
X77189886Y-51456697D01*
X77157981Y-51386524D01*
X77131740Y-51313838D01*
X77123081Y-51297672D01*
X77108818Y-51278396D01*
X77098277Y-51255214D01*
X77088605Y-51240090D01*
X77031023Y-51173263D01*
X77018096Y-51155792D01*
X77011992Y-51148708D01*
X76996626Y-51133343D01*
X76944131Y-51072419D01*
X76930602Y-51060617D01*
X76911553Y-51048270D01*
X76807374Y-50944091D01*
X76798026Y-50929276D01*
X76786390Y-50915604D01*
X76722169Y-50858886D01*
X76701925Y-50838641D01*
X76695151Y-50832768D01*
X76678269Y-50820115D01*
X76620496Y-50769091D01*
X76619837Y-50768658D01*
X76619837Y-50526687D01*
X76627847Y-50520867D01*
X76672934Y-50497894D01*
X76688980Y-50486236D01*
X76845407Y-50329809D01*
X76845410Y-50329805D01*
X78076606Y-49098611D01*
X78076619Y-49098596D01*
X78116236Y-49058980D01*
X78127894Y-49042934D01*
X78150866Y-48997850D01*
X78180606Y-48956916D01*
X78189610Y-48939246D01*
X78205245Y-48891127D01*
X78228218Y-48846039D01*
X78234346Y-48827177D01*
X78242263Y-48777195D01*
X78257897Y-48729080D01*
X78260999Y-48709491D01*
X78260999Y-48654191D01*
X78261000Y-48654179D01*
X78261000Y-45101539D01*
X78453859Y-45049863D01*
X78478339Y-45037120D01*
X78634590Y-44906010D01*
X78648761Y-44889121D01*
X78749359Y-44714880D01*
X78756900Y-44694163D01*
X78790878Y-44501462D01*
X78791837Y-44490501D01*
X78791837Y-42926742D01*
X78789681Y-42910366D01*
X78714863Y-42631142D01*
X78702120Y-42606662D01*
X78571010Y-42450410D01*
X78554121Y-42436239D01*
X78379880Y-42335641D01*
X78359163Y-42328100D01*
X78261000Y-42310791D01*
X78261000Y-37151539D01*
X78453859Y-37099863D01*
X78478339Y-37087120D01*
X78634590Y-36956010D01*
X78648761Y-36939121D01*
X78749359Y-36764880D01*
X78756900Y-36744163D01*
X78790878Y-36551462D01*
X78791837Y-36540501D01*
X78791837Y-34976742D01*
X78789681Y-34960366D01*
X78714863Y-34681142D01*
X78702120Y-34656662D01*
X78571010Y-34500410D01*
X78554121Y-34486239D01*
X78379880Y-34385641D01*
X78359163Y-34378100D01*
X78166462Y-34344122D01*
X78155501Y-34343163D01*
X77989378Y-34343163D01*
X77430257Y-33784042D01*
X77571956Y-33780084D01*
X77582561Y-33778885D01*
X77819019Y-33731636D01*
X77829270Y-33728667D01*
X78054387Y-33642253D01*
X78063991Y-33637600D01*
X78271330Y-33514491D01*
X78280012Y-33508286D01*
X78463645Y-33352004D01*
X78471158Y-33344424D01*
X78625833Y-33159435D01*
X78631962Y-33150698D01*
X78753256Y-32942294D01*
X78757825Y-32932650D01*
X78842272Y-32706787D01*
X78845151Y-32696511D01*
X78890392Y-32459351D01*
X78891507Y-32448128D01*
X78894077Y-32180341D01*
X78893178Y-32169099D01*
X78852499Y-31931114D01*
X78849817Y-31920784D01*
X78769723Y-31693343D01*
X78765339Y-31683612D01*
X78648067Y-31472916D01*
X78642107Y-31464064D01*
X78491013Y-31276140D01*
X78483647Y-31268417D01*
X78303049Y-31108638D01*
X78294486Y-31102267D01*
X78089549Y-30975202D01*
X78080036Y-30970365D01*
X77856619Y-30879645D01*
X77846427Y-30876480D01*
X77610919Y-30824700D01*
X77600340Y-30823298D01*
X77359475Y-30811939D01*
X77348809Y-30812339D01*
X77109474Y-30841727D01*
X77099030Y-30843918D01*
X76868068Y-30913210D01*
X76858142Y-30917130D01*
X76642155Y-31024346D01*
X76633032Y-31029882D01*
X76438199Y-31171957D01*
X76430138Y-31178952D01*
X76262029Y-31351822D01*
X76255263Y-31360074D01*
X76139229Y-31528903D01*
X76108067Y-31472916D01*
X76102107Y-31464064D01*
X75951013Y-31276140D01*
X75943647Y-31268417D01*
X75763049Y-31108638D01*
X75754486Y-31102267D01*
X75549549Y-30975202D01*
X75540036Y-30970365D01*
X75316619Y-30879645D01*
X75306427Y-30876480D01*
X75070919Y-30824700D01*
X75060340Y-30823298D01*
X74819475Y-30811939D01*
X74808809Y-30812339D01*
X74569474Y-30841727D01*
X74559030Y-30843918D01*
X74328068Y-30913210D01*
X74318142Y-30917130D01*
X74102155Y-31024346D01*
X74093032Y-31029882D01*
X73898199Y-31171957D01*
X73890138Y-31178952D01*
X73722029Y-31351822D01*
X73715263Y-31360074D01*
X73599229Y-31528903D01*
X73568067Y-31472916D01*
X73562107Y-31464064D01*
X73411013Y-31276140D01*
X73403647Y-31268417D01*
X73223049Y-31108638D01*
X73214486Y-31102267D01*
X73009549Y-30975202D01*
X73000036Y-30970365D01*
X72776619Y-30879645D01*
X72766427Y-30876480D01*
X72530919Y-30824700D01*
X72520340Y-30823298D01*
X72279475Y-30811939D01*
X72268809Y-30812339D01*
X72029474Y-30841727D01*
X72019030Y-30843918D01*
X71788068Y-30913210D01*
X71778142Y-30917130D01*
X71562155Y-31024346D01*
X71553032Y-31029882D01*
X71358199Y-31171957D01*
X71350138Y-31178952D01*
X71182029Y-31351822D01*
X71175263Y-31360074D01*
X71059229Y-31528903D01*
X71028067Y-31472916D01*
X71022107Y-31464064D01*
X70871013Y-31276140D01*
X70863647Y-31268417D01*
X70683049Y-31108638D01*
X70674486Y-31102267D01*
X70469549Y-30975202D01*
X70460036Y-30970365D01*
X70236619Y-30879645D01*
X70226427Y-30876480D01*
X70012096Y-30829356D01*
X69918000Y-30905011D01*
X69917999Y-32428000D01*
X69662000Y-32427999D01*
X69662001Y-30906201D01*
X69576981Y-30830982D01*
X69489474Y-30841726D01*
X69479030Y-30843918D01*
X69248068Y-30913210D01*
X69238142Y-30917130D01*
X69022155Y-31024346D01*
X69013032Y-31029882D01*
X68818199Y-31171957D01*
X68810138Y-31178952D01*
X68642029Y-31351822D01*
X68635263Y-31360074D01*
X68519229Y-31528903D01*
X68488067Y-31472916D01*
X68482107Y-31464064D01*
X68331013Y-31276140D01*
X68323647Y-31268417D01*
X68143049Y-31108638D01*
X68134486Y-31102267D01*
X67929549Y-30975202D01*
X67920036Y-30970365D01*
X67696619Y-30879645D01*
X67686427Y-30876480D01*
X67450919Y-30824700D01*
X67440340Y-30823298D01*
X67199475Y-30811939D01*
X67188809Y-30812339D01*
X66949474Y-30841727D01*
X66939030Y-30843918D01*
X66708068Y-30913210D01*
X66698142Y-30917130D01*
X66482155Y-31024346D01*
X66473032Y-31029882D01*
X66278199Y-31171957D01*
X66270138Y-31178952D01*
X66163137Y-31288983D01*
X66124863Y-31146142D01*
X66112120Y-31121662D01*
X65981010Y-30965410D01*
X65964121Y-30951239D01*
X65789880Y-30850641D01*
X65769163Y-30843100D01*
X65576462Y-30809122D01*
X65565501Y-30808163D01*
X63851742Y-30808163D01*
X63835366Y-30810319D01*
X63556142Y-30885137D01*
X63531662Y-30897880D01*
X63375410Y-31028990D01*
X63361239Y-31045879D01*
X63260641Y-31220120D01*
X63253100Y-31240837D01*
X63219122Y-31433538D01*
X63218163Y-31444499D01*
X63218163Y-33158258D01*
X63220319Y-33174634D01*
X63295137Y-33453859D01*
X63307880Y-33478339D01*
X63438990Y-33634590D01*
X63455879Y-33648761D01*
X63630120Y-33749359D01*
X63650837Y-33756900D01*
X63843538Y-33790878D01*
X63854499Y-33791837D01*
X64949000Y-33791837D01*
X64949001Y-41774000D01*
X63976390Y-41774000D01*
X63887304Y-41635380D01*
X63875501Y-41621759D01*
X63747709Y-41511026D01*
X63784620Y-41487304D01*
X63798241Y-41475501D01*
X63952783Y-41297151D01*
X63962527Y-41281989D01*
X64060561Y-41067324D01*
X64065639Y-41050031D01*
X64098582Y-40820907D01*
X64099224Y-40811930D01*
X64099224Y-40686809D01*
X64025415Y-40613000D01*
X62961808Y-40612999D01*
X62961807Y-40613000D01*
X61494585Y-40612999D01*
X61420776Y-40686808D01*
X61420776Y-40814184D01*
X61422220Y-40827614D01*
X61495255Y-41163353D01*
X61503885Y-41184188D01*
X61632696Y-41384620D01*
X61644499Y-41398241D01*
X61772291Y-41508974D01*
X61735380Y-41532696D01*
X61721759Y-41544499D01*
X61567217Y-41722849D01*
X61557473Y-41738011D01*
X61459439Y-41952676D01*
X61454361Y-41969969D01*
X61421418Y-42199093D01*
X61420776Y-42208070D01*
X61420776Y-42864184D01*
X61422220Y-42877614D01*
X61495255Y-43213353D01*
X61503885Y-43234188D01*
X61632696Y-43434620D01*
X61644499Y-43448241D01*
X61822849Y-43602783D01*
X61838011Y-43612527D01*
X62052676Y-43710561D01*
X62069969Y-43715639D01*
X62299093Y-43748582D01*
X62308070Y-43749224D01*
X63214184Y-43749224D01*
X63227614Y-43747780D01*
X63563353Y-43674745D01*
X63584188Y-43666115D01*
X63784620Y-43537304D01*
X63798241Y-43525501D01*
X63952783Y-43347151D01*
X63962527Y-43331989D01*
X63978963Y-43296000D01*
X64711788Y-43296000D01*
X66245950Y-44830163D01*
X66071741Y-44830163D01*
X66055366Y-44832319D01*
X65955304Y-44859130D01*
X65796462Y-44831122D01*
X65785501Y-44830163D01*
X65271741Y-44830163D01*
X65255366Y-44832319D01*
X65154510Y-44859343D01*
X64994462Y-44831122D01*
X64983501Y-44830163D01*
X64469741Y-44830163D01*
X64453366Y-44832319D01*
X64367602Y-44855299D01*
X64196462Y-44825122D01*
X64185501Y-44824163D01*
X63671742Y-44824163D01*
X63655366Y-44826319D01*
X63376142Y-44901137D01*
X63351662Y-44913880D01*
X63195410Y-45044990D01*
X63181239Y-45061879D01*
X63080641Y-45236120D01*
X63073100Y-45256837D01*
X63039122Y-45449538D01*
X63038163Y-45460499D01*
X63038163Y-47378163D01*
X60673742Y-47378163D01*
X60657366Y-47380319D01*
X60378142Y-47455137D01*
X60353662Y-47467880D01*
X60197410Y-47598990D01*
X60183239Y-47615879D01*
X60084589Y-47786746D01*
X60024745Y-47511647D01*
X60016115Y-47490812D01*
X59887304Y-47290380D01*
X59875501Y-47276759D01*
X59697151Y-47122217D01*
X59681989Y-47112473D01*
X59467324Y-47014439D01*
X59450031Y-47009361D01*
X59220907Y-46976418D01*
X59211930Y-46975776D01*
X58961809Y-46975776D01*
X58888000Y-47049585D01*
X58887999Y-47988192D01*
X58888000Y-47988193D01*
X58887999Y-48318000D01*
X57494585Y-48317999D01*
X57420776Y-48391808D01*
X57420776Y-48519184D01*
X57422220Y-48532614D01*
X57495255Y-48868353D01*
X57503885Y-48889188D01*
X57632696Y-49089620D01*
X57644499Y-49103241D01*
X57772291Y-49213974D01*
X57735380Y-49237696D01*
X57721759Y-49249499D01*
X57587882Y-49404000D01*
X56928190Y-49404000D01*
X56887304Y-49340380D01*
X56875501Y-49326759D01*
X56747709Y-49216026D01*
X56784620Y-49192304D01*
X56798241Y-49180501D01*
X56952783Y-49002151D01*
X56962527Y-48986989D01*
X57060561Y-48772324D01*
X57065639Y-48755031D01*
X57098582Y-48525907D01*
X57099224Y-48516930D01*
X57099224Y-48391809D01*
X57025415Y-48318000D01*
X55961808Y-48317999D01*
X55961807Y-48318000D01*
X54494585Y-48317999D01*
X54420776Y-48391808D01*
X54420776Y-48519184D01*
X54422220Y-48532614D01*
X54495255Y-48868353D01*
X54503885Y-48889188D01*
X54632696Y-49089620D01*
X54644499Y-49103241D01*
X54772291Y-49213974D01*
X54735380Y-49237696D01*
X54721759Y-49249499D01*
X54567217Y-49427849D01*
X54557473Y-49443011D01*
X54459439Y-49657676D01*
X54454361Y-49674969D01*
X54421418Y-49904093D01*
X54420776Y-49913070D01*
X54420776Y-50569184D01*
X54422220Y-50582614D01*
X54495255Y-50918353D01*
X54503885Y-50939188D01*
X54632696Y-51139620D01*
X54644499Y-51153241D01*
X54737790Y-51234079D01*
X54607882Y-51384000D01*
X53031820Y-51384000D01*
X52914444Y-51383284D01*
X52909218Y-51384000D01*
X51361837Y-51384000D01*
X51361837Y-49911742D01*
X51359681Y-49895366D01*
X51284863Y-49616142D01*
X51272120Y-49591662D01*
X51141010Y-49435410D01*
X51124121Y-49421239D01*
X50949880Y-49320641D01*
X50929163Y-49313100D01*
X50736462Y-49279122D01*
X50725501Y-49278163D01*
X49510444Y-49278163D01*
X48095351Y-47863070D01*
X54420776Y-47863070D01*
X54420776Y-47988191D01*
X54494585Y-48062000D01*
X55558191Y-48062001D01*
X55632000Y-47988192D01*
X55632000Y-47988191D01*
X55887999Y-47988191D01*
X55961808Y-48062000D01*
X57025415Y-48062001D01*
X57099224Y-47988192D01*
X57099224Y-47863070D01*
X57420776Y-47863070D01*
X57420776Y-47988191D01*
X57494585Y-48062000D01*
X58558191Y-48062001D01*
X58632000Y-47988192D01*
X58632001Y-47049585D01*
X58558192Y-46975776D01*
X58305816Y-46975776D01*
X58292386Y-46977220D01*
X57956647Y-47050255D01*
X57935812Y-47058885D01*
X57735380Y-47187696D01*
X57721759Y-47199499D01*
X57567217Y-47377849D01*
X57557473Y-47393011D01*
X57459439Y-47607676D01*
X57454361Y-47624969D01*
X57421418Y-47854093D01*
X57420776Y-47863070D01*
X57099224Y-47863070D01*
X57099224Y-47860816D01*
X57097780Y-47847386D01*
X57024745Y-47511647D01*
X57016115Y-47490812D01*
X56887304Y-47290380D01*
X56875501Y-47276759D01*
X56697151Y-47122217D01*
X56681989Y-47112473D01*
X56467324Y-47014439D01*
X56450031Y-47009361D01*
X56220907Y-46976418D01*
X56211930Y-46975776D01*
X55961809Y-46975776D01*
X55888000Y-47049585D01*
X55887999Y-47988191D01*
X55632000Y-47988191D01*
X55632001Y-47049585D01*
X55558192Y-46975776D01*
X55305816Y-46975776D01*
X55292386Y-46977220D01*
X54956647Y-47050255D01*
X54935812Y-47058885D01*
X54735380Y-47187696D01*
X54721759Y-47199499D01*
X54567217Y-47377849D01*
X54557473Y-47393011D01*
X54459439Y-47607676D01*
X54454361Y-47624969D01*
X54421418Y-47854093D01*
X54420776Y-47863070D01*
X48095351Y-47863070D01*
X47749160Y-47516879D01*
X47779620Y-47497304D01*
X47793241Y-47485501D01*
X47947783Y-47307151D01*
X47957527Y-47291989D01*
X48055561Y-47077324D01*
X48060639Y-47060031D01*
X48093582Y-46830907D01*
X48094224Y-46821930D01*
X48094224Y-45915816D01*
X48092780Y-45902386D01*
X48019745Y-45566647D01*
X48011115Y-45545812D01*
X47882304Y-45345380D01*
X47870501Y-45331759D01*
X47756000Y-45232543D01*
X47756000Y-44188190D01*
X47819620Y-44147304D01*
X47833241Y-44135501D01*
X47975082Y-43971808D01*
X51320776Y-43971808D01*
X51320776Y-45024183D01*
X51322220Y-45037613D01*
X51395255Y-45373353D01*
X51403885Y-45394187D01*
X51532696Y-45594620D01*
X51544499Y-45608241D01*
X51722849Y-45762783D01*
X51738011Y-45772527D01*
X51952677Y-45870561D01*
X51969970Y-45875639D01*
X52199094Y-45908582D01*
X52208071Y-45909224D01*
X52558191Y-45909224D01*
X52632000Y-45835415D01*
X52887999Y-45835415D01*
X52961808Y-45909224D01*
X53314183Y-45909224D01*
X53327613Y-45907780D01*
X53663353Y-45834745D01*
X53684187Y-45826115D01*
X53884620Y-45697304D01*
X53898241Y-45685501D01*
X54052783Y-45507151D01*
X54062527Y-45491989D01*
X54160561Y-45277323D01*
X54165639Y-45260030D01*
X54198582Y-45030906D01*
X54199224Y-45021929D01*
X54199224Y-43971809D01*
X54125415Y-43898000D01*
X52961809Y-43897999D01*
X52888000Y-43971808D01*
X52887999Y-45835415D01*
X52632000Y-45835415D01*
X52632001Y-43971809D01*
X52558192Y-43898000D01*
X51394585Y-43897999D01*
X51320776Y-43971808D01*
X47975082Y-43971808D01*
X47987783Y-43957151D01*
X47997527Y-43941989D01*
X48036797Y-43856000D01*
X49016345Y-43856000D01*
X49033422Y-43859864D01*
X49051317Y-43861304D01*
X49136808Y-43856000D01*
X49165463Y-43856000D01*
X49174406Y-43855363D01*
X49195291Y-43852372D01*
X49272219Y-43847599D01*
X49289799Y-43843959D01*
X49313317Y-43835469D01*
X49338072Y-43831924D01*
X49355303Y-43826885D01*
X49425482Y-43794976D01*
X49498160Y-43768739D01*
X49514327Y-43760080D01*
X49533601Y-43745818D01*
X49556784Y-43735277D01*
X49571908Y-43725605D01*
X49638738Y-43668021D01*
X49656209Y-43655093D01*
X49663292Y-43648990D01*
X49678656Y-43633625D01*
X49739580Y-43581130D01*
X49751382Y-43567601D01*
X49763729Y-43548552D01*
X50794210Y-42518071D01*
X51320776Y-42518071D01*
X51320776Y-43568191D01*
X51394585Y-43642000D01*
X52558191Y-43642001D01*
X52632000Y-43568192D01*
X52632000Y-43568191D01*
X52887999Y-43568191D01*
X52961808Y-43642000D01*
X54125415Y-43642001D01*
X54199224Y-43568192D01*
X54199224Y-42515817D01*
X54197780Y-42502387D01*
X54124745Y-42166647D01*
X54116115Y-42145813D01*
X53987304Y-41945380D01*
X53975501Y-41931759D01*
X53797151Y-41777217D01*
X53781989Y-41767473D01*
X53567323Y-41669439D01*
X53550030Y-41664361D01*
X53320906Y-41631418D01*
X53311929Y-41630776D01*
X52961809Y-41630776D01*
X52888000Y-41704585D01*
X52887999Y-43568191D01*
X52632000Y-43568191D01*
X52632001Y-41704585D01*
X52558192Y-41630776D01*
X52205817Y-41630776D01*
X52192387Y-41632220D01*
X51856647Y-41705255D01*
X51835813Y-41713885D01*
X51635380Y-41842696D01*
X51621759Y-41854499D01*
X51467217Y-42032849D01*
X51457473Y-42048011D01*
X51359439Y-42262677D01*
X51354361Y-42279970D01*
X51321418Y-42509094D01*
X51320776Y-42518071D01*
X50794210Y-42518071D01*
X51876506Y-41435775D01*
X51952677Y-41470561D01*
X51969970Y-41475639D01*
X52199094Y-41508582D01*
X52208071Y-41509224D01*
X53314183Y-41509224D01*
X53327613Y-41507780D01*
X53663353Y-41434745D01*
X53684187Y-41426115D01*
X53884620Y-41297304D01*
X53898241Y-41285501D01*
X54052783Y-41107151D01*
X54062527Y-41091989D01*
X54160561Y-40877323D01*
X54165639Y-40860030D01*
X54198582Y-40630906D01*
X54199224Y-40621929D01*
X54199224Y-40158070D01*
X61420776Y-40158070D01*
X61420776Y-40283191D01*
X61494585Y-40357000D01*
X62558191Y-40357001D01*
X62632000Y-40283192D01*
X62632000Y-40283191D01*
X62887999Y-40283191D01*
X62961808Y-40357000D01*
X64025415Y-40357001D01*
X64099224Y-40283192D01*
X64099224Y-40155816D01*
X64097780Y-40142386D01*
X64024745Y-39806647D01*
X64016115Y-39785812D01*
X63887304Y-39585380D01*
X63875501Y-39571759D01*
X63697151Y-39417217D01*
X63681989Y-39407473D01*
X63467324Y-39309439D01*
X63450031Y-39304361D01*
X63220907Y-39271418D01*
X63211930Y-39270776D01*
X62961809Y-39270776D01*
X62888000Y-39344585D01*
X62887999Y-40283191D01*
X62632000Y-40283191D01*
X62632001Y-39344585D01*
X62558192Y-39270776D01*
X62305816Y-39270776D01*
X62292386Y-39272220D01*
X61956647Y-39345255D01*
X61935812Y-39353885D01*
X61735380Y-39482696D01*
X61721759Y-39494499D01*
X61567217Y-39672849D01*
X61557473Y-39688011D01*
X61459439Y-39902676D01*
X61454361Y-39919969D01*
X61421418Y-40149093D01*
X61420776Y-40158070D01*
X54199224Y-40158070D01*
X54199224Y-38115817D01*
X54197780Y-38102387D01*
X54124745Y-37766647D01*
X54116115Y-37745813D01*
X53987304Y-37545380D01*
X53975501Y-37531759D01*
X53797151Y-37377217D01*
X53781989Y-37367473D01*
X53567323Y-37269439D01*
X53550030Y-37264361D01*
X53320906Y-37231418D01*
X53311929Y-37230776D01*
X52205817Y-37230776D01*
X52192387Y-37232220D01*
X51856647Y-37305255D01*
X51835813Y-37313885D01*
X51635380Y-37442696D01*
X51621759Y-37454499D01*
X51467217Y-37632849D01*
X51457473Y-37648011D01*
X51359439Y-37862677D01*
X51354361Y-37879970D01*
X51321418Y-38109094D01*
X51320776Y-38118071D01*
X51320776Y-38534000D01*
X50696282Y-38534000D01*
X49341969Y-37179687D01*
X49496245Y-37138349D01*
X49506584Y-37134586D01*
X49712089Y-37038757D01*
X49721617Y-37033256D01*
X49907361Y-36903198D01*
X49915789Y-36896126D01*
X50076126Y-36735789D01*
X50083198Y-36727361D01*
X50213256Y-36541618D01*
X50218757Y-36532090D01*
X50314586Y-36326585D01*
X50318349Y-36316246D01*
X50377035Y-36097223D01*
X50378946Y-36086388D01*
X50393760Y-35917066D01*
X50394000Y-35911572D01*
X50394000Y-35781809D01*
X50320191Y-35708000D01*
X49236808Y-35707999D01*
X49236807Y-35708000D01*
X48907000Y-35707999D01*
X48907000Y-35378191D01*
X49162999Y-35378191D01*
X49236808Y-35452000D01*
X50320191Y-35452001D01*
X50394000Y-35378192D01*
X50394000Y-35248429D01*
X50393760Y-35242935D01*
X50378946Y-35073613D01*
X50377035Y-35062778D01*
X50318349Y-34843755D01*
X50314586Y-34833416D01*
X50218757Y-34627910D01*
X50213256Y-34618382D01*
X50083198Y-34432639D01*
X50076126Y-34424211D01*
X49915789Y-34263875D01*
X49907361Y-34256802D01*
X49721619Y-34126744D01*
X49712091Y-34121243D01*
X49506585Y-34025414D01*
X49496246Y-34021651D01*
X49261592Y-33958776D01*
X49163000Y-34034429D01*
X49162999Y-35378191D01*
X48907000Y-35378191D01*
X48907001Y-34034429D01*
X48808409Y-33958776D01*
X48695128Y-33989129D01*
X48586547Y-33839680D01*
X48577710Y-33829865D01*
X48426052Y-33693312D01*
X48415368Y-33685550D01*
X48238632Y-33583511D01*
X48226567Y-33578139D01*
X48032480Y-33515076D01*
X48019562Y-33512330D01*
X47816603Y-33490999D01*
X47803397Y-33490999D01*
X47600438Y-33512330D01*
X47587520Y-33515076D01*
X47393433Y-33578139D01*
X47381368Y-33583511D01*
X47204632Y-33685550D01*
X47193948Y-33693312D01*
X47042290Y-33829865D01*
X47033453Y-33839680D01*
X46913500Y-34004781D01*
X46906897Y-34016218D01*
X46823892Y-34202650D01*
X46819810Y-34215211D01*
X46793676Y-34338163D01*
X46376742Y-34338163D01*
X46360366Y-34340319D01*
X46299994Y-34356495D01*
X46201462Y-34339122D01*
X46190501Y-34338163D01*
X45726742Y-34338163D01*
X45710366Y-34340319D01*
X45649994Y-34356495D01*
X45551462Y-34339122D01*
X45540501Y-34338163D01*
X45076742Y-34338163D01*
X45060366Y-34340319D01*
X44999994Y-34356495D01*
X44901462Y-34339122D01*
X44890501Y-34338163D01*
X44426742Y-34338163D01*
X44410366Y-34340319D01*
X44349993Y-34356495D01*
X44199017Y-34329875D01*
X44109000Y-34405408D01*
X44109000Y-34426663D01*
X44106662Y-34427880D01*
X43950410Y-34558990D01*
X43936239Y-34575879D01*
X43911001Y-34619593D01*
X43911001Y-34411972D01*
X43837192Y-34338163D01*
X43826324Y-34338163D01*
X43800190Y-34215211D01*
X43796108Y-34202650D01*
X43713103Y-34016218D01*
X43706500Y-34004781D01*
X43586547Y-33839680D01*
X43577710Y-33829865D01*
X43426052Y-33693312D01*
X43415368Y-33685550D01*
X43238632Y-33583511D01*
X43226567Y-33578139D01*
X43032480Y-33515076D01*
X43019562Y-33512330D01*
X42816603Y-33490999D01*
X42803397Y-33490999D01*
X42600438Y-33512330D01*
X42587520Y-33515076D01*
X42393433Y-33578139D01*
X42381368Y-33583511D01*
X42204632Y-33685550D01*
X42193948Y-33693312D01*
X42042290Y-33829865D01*
X42033453Y-33839680D01*
X41924872Y-33989129D01*
X41811592Y-33958776D01*
X41713000Y-34034429D01*
X41712999Y-35378191D01*
X41786808Y-35452000D01*
X42338953Y-35452001D01*
X42381368Y-35476489D01*
X42393433Y-35481861D01*
X42587520Y-35544924D01*
X42600438Y-35547670D01*
X42803397Y-35569001D01*
X42816603Y-35569001D01*
X43019562Y-35547670D01*
X43032480Y-35544924D01*
X43182237Y-35496265D01*
X43216972Y-35531000D01*
X43793163Y-35531001D01*
X43793163Y-35729000D01*
X43216972Y-35728999D01*
X43143163Y-35802808D01*
X43143163Y-36288258D01*
X43145319Y-36304634D01*
X43220137Y-36583859D01*
X43232880Y-36608339D01*
X43363990Y-36764590D01*
X43380879Y-36778761D01*
X43555120Y-36879359D01*
X43575837Y-36886900D01*
X43820982Y-36930125D01*
X43911000Y-36854592D01*
X43911000Y-36641851D01*
X44013990Y-36764590D01*
X44030879Y-36778761D01*
X44108999Y-36823864D01*
X44108999Y-36848028D01*
X44182808Y-36921837D01*
X44243258Y-36921837D01*
X44259634Y-36919681D01*
X44320007Y-36903505D01*
X44418538Y-36920878D01*
X44429499Y-36921837D01*
X44893258Y-36921837D01*
X44909634Y-36919681D01*
X44970007Y-36903505D01*
X45068538Y-36920878D01*
X45079499Y-36921837D01*
X45543258Y-36921837D01*
X45559634Y-36919681D01*
X45620007Y-36903505D01*
X45718538Y-36920878D01*
X45729499Y-36921837D01*
X46193258Y-36921837D01*
X46209634Y-36919681D01*
X46270007Y-36903505D01*
X46368538Y-36920878D01*
X46379499Y-36921837D01*
X46719556Y-36921837D01*
X49692631Y-39894913D01*
X49701976Y-39909724D01*
X49713612Y-39923396D01*
X49777825Y-39980107D01*
X49798076Y-40000359D01*
X49804850Y-40006232D01*
X49821733Y-40018886D01*
X49879506Y-40069909D01*
X49894511Y-40079765D01*
X49917143Y-40090390D01*
X49937153Y-40105387D01*
X49952900Y-40114009D01*
X50025089Y-40141072D01*
X50095033Y-40173910D01*
X50112587Y-40179218D01*
X50136303Y-40182763D01*
X50160147Y-40191701D01*
X50177681Y-40195556D01*
X50265649Y-40202094D01*
X50287148Y-40205307D01*
X50296473Y-40206000D01*
X50318210Y-40206000D01*
X50398401Y-40211959D01*
X50416312Y-40210738D01*
X50438508Y-40206000D01*
X50741719Y-40206000D01*
X48763719Y-42184000D01*
X48043524Y-42184000D01*
X47922304Y-41995380D01*
X47910501Y-41981759D01*
X47732151Y-41827217D01*
X47716989Y-41817473D01*
X47502324Y-41719439D01*
X47485031Y-41714361D01*
X47255907Y-41681418D01*
X47246930Y-41680776D01*
X46590816Y-41680776D01*
X46577386Y-41682220D01*
X46241647Y-41755255D01*
X46220812Y-41763885D01*
X46020380Y-41892696D01*
X46006759Y-41904499D01*
X45896026Y-42032291D01*
X45872304Y-41995380D01*
X45860501Y-41981759D01*
X45682151Y-41827217D01*
X45666989Y-41817473D01*
X45452324Y-41719439D01*
X45435031Y-41714361D01*
X45205907Y-41681418D01*
X45196930Y-41680776D01*
X45071809Y-41680776D01*
X44998000Y-41754585D01*
X44997999Y-42818192D01*
X44998000Y-42818193D01*
X44997999Y-44285415D01*
X45071808Y-44359224D01*
X45199184Y-44359224D01*
X45212614Y-44357780D01*
X45548353Y-44284745D01*
X45569188Y-44276115D01*
X45769620Y-44147304D01*
X45783241Y-44135501D01*
X45893974Y-44007709D01*
X45917696Y-44044620D01*
X45929499Y-44058241D01*
X46084000Y-44192118D01*
X46084001Y-45176103D01*
X45980380Y-45242696D01*
X45966759Y-45254499D01*
X45856026Y-45382291D01*
X45832304Y-45345380D01*
X45820501Y-45331759D01*
X45642151Y-45177217D01*
X45626989Y-45167473D01*
X45412324Y-45069439D01*
X45395031Y-45064361D01*
X45165907Y-45031418D01*
X45156930Y-45030776D01*
X45031809Y-45030776D01*
X44958000Y-45104585D01*
X44957999Y-46168192D01*
X44958000Y-46168193D01*
X44957999Y-47635415D01*
X45031808Y-47709224D01*
X45159184Y-47709224D01*
X45172614Y-47707780D01*
X45508353Y-47634745D01*
X45529188Y-47626115D01*
X45729620Y-47497304D01*
X45743241Y-47485501D01*
X45853974Y-47357709D01*
X45877696Y-47394620D01*
X45889499Y-47408241D01*
X46044001Y-47542118D01*
X46044001Y-47736340D01*
X46040136Y-47753421D01*
X46038696Y-47771317D01*
X46044001Y-47856824D01*
X46044001Y-47885463D01*
X46044638Y-47894405D01*
X46047627Y-47915275D01*
X46052401Y-47992220D01*
X46056042Y-48009800D01*
X46064532Y-48033318D01*
X46068077Y-48058070D01*
X46073116Y-48075303D01*
X46105021Y-48145474D01*
X46131261Y-48218160D01*
X46139920Y-48234327D01*
X46154184Y-48253603D01*
X46164724Y-48276784D01*
X46174396Y-48291909D01*
X46231968Y-48358723D01*
X46244905Y-48376207D01*
X46251009Y-48383291D01*
X46266382Y-48398663D01*
X46318871Y-48459580D01*
X46332400Y-48471382D01*
X46351445Y-48483726D01*
X48078163Y-50210445D01*
X48078163Y-51428258D01*
X48080319Y-51444634D01*
X48155137Y-51723859D01*
X48167880Y-51748339D01*
X48222896Y-51813904D01*
X48221239Y-51815879D01*
X48120641Y-51990120D01*
X48113100Y-52010837D01*
X48091383Y-52134000D01*
X45061837Y-52134000D01*
X45061837Y-51061742D01*
X45059681Y-51045366D01*
X44984863Y-50766142D01*
X44972120Y-50741662D01*
X44841010Y-50585410D01*
X44824121Y-50571239D01*
X44649880Y-50470641D01*
X44629163Y-50463100D01*
X44436462Y-50429122D01*
X44425501Y-50428163D01*
X42411742Y-50428163D01*
X42395366Y-50430319D01*
X42116142Y-50505137D01*
X42091662Y-50517880D01*
X41935410Y-50648990D01*
X41921239Y-50665879D01*
X41820641Y-50840120D01*
X41813100Y-50860837D01*
X41779122Y-51053538D01*
X41778163Y-51064499D01*
X41778163Y-54878258D01*
X41780319Y-54894634D01*
X41855137Y-55173859D01*
X41867880Y-55198339D01*
X41998990Y-55354590D01*
X42015879Y-55368761D01*
X42190120Y-55469359D01*
X42210837Y-55476900D01*
X42403538Y-55510878D01*
X42414499Y-55511837D01*
X44428258Y-55511837D01*
X44444634Y-55509681D01*
X44723859Y-55434863D01*
X44748339Y-55422120D01*
X44904590Y-55291010D01*
X44918761Y-55274121D01*
X45019359Y-55099880D01*
X45026900Y-55079163D01*
X45060878Y-54886462D01*
X45061837Y-54875501D01*
X45061837Y-53806000D01*
X48096762Y-53806000D01*
X48155137Y-54023859D01*
X48167880Y-54048339D01*
X48222896Y-54113904D01*
X48221239Y-54115879D01*
X48120641Y-54290120D01*
X48113100Y-54310837D01*
X48079122Y-54503538D01*
X48078163Y-54514499D01*
X48078163Y-55729555D01*
X44940091Y-58867628D01*
X44925276Y-58876976D01*
X44911604Y-58888612D01*
X44854888Y-58952831D01*
X44834641Y-58973077D01*
X44828768Y-58979851D01*
X44816117Y-58996730D01*
X44765092Y-59054507D01*
X44755236Y-59069511D01*
X44744609Y-59092145D01*
X44729613Y-59112155D01*
X44720992Y-59127901D01*
X44693931Y-59200084D01*
X44661090Y-59270034D01*
X44655782Y-59287588D01*
X44652237Y-59311305D01*
X44643299Y-59335147D01*
X44639444Y-59352681D01*
X44632906Y-59440650D01*
X44629693Y-59462149D01*
X44629000Y-59471474D01*
X44629000Y-59493210D01*
X44623041Y-59573401D01*
X44624262Y-59591313D01*
X44629000Y-59613508D01*
X44629001Y-62271809D01*
X44565380Y-62312696D01*
X44551759Y-62324499D01*
X44397217Y-62502849D01*
X44387473Y-62518011D01*
X44348203Y-62604000D01*
X43342457Y-62604000D01*
X43237304Y-62440380D01*
X43225501Y-62426759D01*
X43097709Y-62316026D01*
X43134620Y-62292304D01*
X43148241Y-62280501D01*
X43302783Y-62102151D01*
X43312527Y-62086989D01*
X43410561Y-61872324D01*
X43415639Y-61855031D01*
X43448582Y-61625907D01*
X43449224Y-61616930D01*
X43449224Y-61491809D01*
X43375415Y-61418000D01*
X42311808Y-61417999D01*
X42311807Y-61418000D01*
X40844585Y-61417999D01*
X40770776Y-61491808D01*
X40116000Y-61491808D01*
X40116000Y-60963070D01*
X40770776Y-60963070D01*
X40770776Y-61088191D01*
X40844585Y-61162000D01*
X41908191Y-61162001D01*
X41982000Y-61088192D01*
X41982000Y-61088191D01*
X42237999Y-61088191D01*
X42311808Y-61162000D01*
X43375415Y-61162001D01*
X43449224Y-61088192D01*
X43449224Y-60960816D01*
X43447780Y-60947386D01*
X43374745Y-60611647D01*
X43366115Y-60590812D01*
X43237304Y-60390380D01*
X43225501Y-60376759D01*
X43047151Y-60222217D01*
X43031989Y-60212473D01*
X42817324Y-60114439D01*
X42800031Y-60109361D01*
X42570907Y-60076418D01*
X42561930Y-60075776D01*
X42311809Y-60075776D01*
X42238000Y-60149585D01*
X42237999Y-61088191D01*
X41982000Y-61088191D01*
X41982001Y-60149585D01*
X41908192Y-60075776D01*
X41655816Y-60075776D01*
X41642386Y-60077220D01*
X41306647Y-60150255D01*
X41285812Y-60158885D01*
X41085380Y-60287696D01*
X41071759Y-60299499D01*
X40917217Y-60477849D01*
X40907473Y-60493011D01*
X40809439Y-60707676D01*
X40804361Y-60724969D01*
X40771418Y-60954093D01*
X40770776Y-60963070D01*
X40116000Y-60963070D01*
X40116000Y-46571808D01*
X43615776Y-46571808D01*
X43615776Y-46824184D01*
X43617220Y-46837614D01*
X43690255Y-47173353D01*
X43698885Y-47194188D01*
X43827696Y-47394620D01*
X43839499Y-47408241D01*
X44017849Y-47562783D01*
X44033011Y-47572527D01*
X44247676Y-47670561D01*
X44264969Y-47675639D01*
X44494093Y-47708582D01*
X44503070Y-47709224D01*
X44628191Y-47709224D01*
X44702000Y-47635415D01*
X44702001Y-46571809D01*
X44628192Y-46498000D01*
X43689585Y-46497999D01*
X43615776Y-46571808D01*
X40116000Y-46571808D01*
X40116000Y-45918070D01*
X43615776Y-45918070D01*
X43615776Y-46168191D01*
X43689585Y-46242000D01*
X44628191Y-46242001D01*
X44702000Y-46168192D01*
X44702001Y-45104585D01*
X44628192Y-45030776D01*
X44500816Y-45030776D01*
X44487386Y-45032220D01*
X44151647Y-45105255D01*
X44130812Y-45113885D01*
X43930380Y-45242696D01*
X43916759Y-45254499D01*
X43762217Y-45432849D01*
X43752473Y-45448011D01*
X43654439Y-45662676D01*
X43649361Y-45679969D01*
X43616418Y-45909093D01*
X43615776Y-45918070D01*
X40116000Y-45918070D01*
X40116000Y-43221808D01*
X43655776Y-43221808D01*
X43655776Y-43474184D01*
X43657220Y-43487614D01*
X43730255Y-43823353D01*
X43738885Y-43844188D01*
X43867696Y-44044620D01*
X43879499Y-44058241D01*
X44057849Y-44212783D01*
X44073011Y-44222527D01*
X44287676Y-44320561D01*
X44304969Y-44325639D01*
X44534093Y-44358582D01*
X44543070Y-44359224D01*
X44668191Y-44359224D01*
X44742000Y-44285415D01*
X44742001Y-43221809D01*
X44668192Y-43148000D01*
X43729585Y-43147999D01*
X43655776Y-43221808D01*
X40116000Y-43221808D01*
X40116000Y-42568070D01*
X43655776Y-42568070D01*
X43655776Y-42818191D01*
X43729585Y-42892000D01*
X44668191Y-42892001D01*
X44742000Y-42818192D01*
X44742001Y-41754585D01*
X44668192Y-41680776D01*
X44540816Y-41680776D01*
X44527386Y-41682220D01*
X44191647Y-41755255D01*
X44170812Y-41763885D01*
X43970380Y-41892696D01*
X43956759Y-41904499D01*
X43802217Y-42082849D01*
X43792473Y-42098011D01*
X43694439Y-42312676D01*
X43689361Y-42329969D01*
X43656418Y-42559093D01*
X43655776Y-42568070D01*
X40116000Y-42568070D01*
X40116000Y-35781808D01*
X40226000Y-35781808D01*
X40226000Y-35911571D01*
X40226240Y-35917065D01*
X40241054Y-36086387D01*
X40242965Y-36097222D01*
X40301651Y-36316245D01*
X40305414Y-36326584D01*
X40401243Y-36532089D01*
X40406744Y-36541617D01*
X40536802Y-36727361D01*
X40543874Y-36735789D01*
X40704211Y-36896125D01*
X40712639Y-36903198D01*
X40898381Y-37033256D01*
X40907909Y-37038757D01*
X41113415Y-37134586D01*
X41123754Y-37138349D01*
X41358408Y-37201224D01*
X41457000Y-37125571D01*
X41712999Y-37125571D01*
X41811591Y-37201224D01*
X42046245Y-37138349D01*
X42056584Y-37134586D01*
X42262089Y-37038757D01*
X42271617Y-37033256D01*
X42457361Y-36903198D01*
X42465789Y-36896126D01*
X42626126Y-36735789D01*
X42633198Y-36727361D01*
X42763256Y-36541618D01*
X42768757Y-36532090D01*
X42864586Y-36326585D01*
X42868349Y-36316246D01*
X42927035Y-36097223D01*
X42928946Y-36086388D01*
X42943760Y-35917066D01*
X42944000Y-35911572D01*
X42944000Y-35781809D01*
X42870191Y-35708000D01*
X41786809Y-35707999D01*
X41713000Y-35781808D01*
X41712999Y-37125571D01*
X41457000Y-37125571D01*
X41457001Y-35781809D01*
X41383192Y-35708000D01*
X40299809Y-35707999D01*
X40226000Y-35781808D01*
X40116000Y-35781808D01*
X40116000Y-35248428D01*
X40226000Y-35248428D01*
X40226000Y-35378191D01*
X40299809Y-35452000D01*
X41383191Y-35452001D01*
X41457000Y-35378192D01*
X41457001Y-34034429D01*
X41358409Y-33958776D01*
X41123755Y-34021651D01*
X41113416Y-34025414D01*
X40907911Y-34121243D01*
X40898383Y-34126744D01*
X40712640Y-34256802D01*
X40704212Y-34263874D01*
X40543876Y-34424211D01*
X40536803Y-34432639D01*
X40406745Y-34618382D01*
X40401243Y-34627910D01*
X40305414Y-34833415D01*
X40301651Y-34843754D01*
X40242965Y-35062777D01*
X40241054Y-35073612D01*
X40226240Y-35242934D01*
X40226000Y-35248428D01*
X40116000Y-35248428D01*
X40116000Y-31981808D01*
X40226000Y-31981808D01*
X40226000Y-32158371D01*
X40226264Y-32164139D01*
X40240631Y-32320487D01*
X40242737Y-32331847D01*
X40299901Y-32534535D01*
X40304041Y-32545321D01*
X40397184Y-32734199D01*
X40403221Y-32744050D01*
X40529225Y-32912791D01*
X40536956Y-32921376D01*
X40691600Y-33064328D01*
X40700766Y-33071361D01*
X40878872Y-33183737D01*
X40889166Y-33188982D01*
X41084769Y-33267021D01*
X41095848Y-33270302D01*
X41214868Y-33293976D01*
X41306355Y-33218893D01*
X41562999Y-33218893D01*
X41652597Y-33294407D01*
X41743533Y-33278781D01*
X41754693Y-33275790D01*
X41952271Y-33202900D01*
X41962698Y-33197926D01*
X42143686Y-33090250D01*
X42153032Y-33083459D01*
X42311366Y-32944604D01*
X42319318Y-32936224D01*
X42449697Y-32770841D01*
X42455990Y-32761151D01*
X42554045Y-32574776D01*
X42558467Y-32564102D01*
X42621039Y-32362586D01*
X42623534Y-32350460D01*
X42643655Y-32159025D01*
X42644000Y-32152435D01*
X42644000Y-31981809D01*
X42643999Y-31981808D01*
X47976000Y-31981808D01*
X47976000Y-32158371D01*
X47976264Y-32164139D01*
X47990631Y-32320487D01*
X47992737Y-32331847D01*
X48049901Y-32534535D01*
X48054041Y-32545321D01*
X48147184Y-32734199D01*
X48153221Y-32744050D01*
X48279225Y-32912791D01*
X48286956Y-32921376D01*
X48441600Y-33064328D01*
X48450766Y-33071361D01*
X48628872Y-33183737D01*
X48639166Y-33188982D01*
X48834769Y-33267021D01*
X48845848Y-33270302D01*
X48964868Y-33293976D01*
X49056355Y-33218893D01*
X49312999Y-33218893D01*
X49402597Y-33294407D01*
X49493533Y-33278781D01*
X49504693Y-33275790D01*
X49702271Y-33202900D01*
X49712698Y-33197926D01*
X49893686Y-33090250D01*
X49903032Y-33083459D01*
X50061366Y-32944604D01*
X50069318Y-32936224D01*
X50199697Y-32770841D01*
X50205990Y-32761151D01*
X50304045Y-32574776D01*
X50308467Y-32564102D01*
X50371039Y-32362586D01*
X50373534Y-32350460D01*
X50393655Y-32159025D01*
X50394000Y-32152435D01*
X50394000Y-31981809D01*
X50320191Y-31908000D01*
X49386809Y-31907999D01*
X49313000Y-31981808D01*
X49312999Y-33218893D01*
X49056355Y-33218893D01*
X49057000Y-33218364D01*
X49057001Y-31981809D01*
X48983192Y-31908000D01*
X48049809Y-31907999D01*
X47976000Y-31981808D01*
X42643999Y-31981808D01*
X42570191Y-31908000D01*
X41636809Y-31907999D01*
X41563000Y-31981808D01*
X41562999Y-33218893D01*
X41306355Y-33218893D01*
X41307000Y-33218364D01*
X41307001Y-31981809D01*
X41233192Y-31908000D01*
X40299809Y-31907999D01*
X40226000Y-31981808D01*
X40116000Y-31981808D01*
X40116000Y-31407565D01*
X40226000Y-31407565D01*
X40226000Y-31578191D01*
X40299809Y-31652000D01*
X41233191Y-31652001D01*
X41307000Y-31578192D01*
X41307000Y-31578191D01*
X41562999Y-31578191D01*
X41636808Y-31652000D01*
X42570191Y-31652001D01*
X42644000Y-31578192D01*
X42644000Y-31407565D01*
X47976000Y-31407565D01*
X47976000Y-31578191D01*
X48049809Y-31652000D01*
X48983191Y-31652001D01*
X49057000Y-31578192D01*
X49057000Y-31578191D01*
X49312999Y-31578191D01*
X49386808Y-31652000D01*
X50320191Y-31652001D01*
X50394000Y-31578192D01*
X50394000Y-31401629D01*
X50393736Y-31395861D01*
X50379369Y-31239513D01*
X50377263Y-31228153D01*
X50320099Y-31025465D01*
X50315959Y-31014679D01*
X50222816Y-30825801D01*
X50216779Y-30815950D01*
X50090775Y-30647209D01*
X50083044Y-30638624D01*
X49928400Y-30495672D01*
X49919234Y-30488639D01*
X49741128Y-30376263D01*
X49730834Y-30371018D01*
X49535231Y-30292979D01*
X49524152Y-30289698D01*
X49405132Y-30266024D01*
X49313000Y-30341636D01*
X49312999Y-31578191D01*
X49057000Y-31578191D01*
X49057001Y-30341107D01*
X48967403Y-30265593D01*
X48876467Y-30281219D01*
X48865307Y-30284210D01*
X48667729Y-30357100D01*
X48657301Y-30362074D01*
X48476315Y-30469751D01*
X48466968Y-30476541D01*
X48308635Y-30615396D01*
X48300683Y-30623776D01*
X48170304Y-30789159D01*
X48164011Y-30798849D01*
X48065956Y-30985224D01*
X48061535Y-30995898D01*
X47998961Y-31197414D01*
X47996466Y-31209540D01*
X47976345Y-31400975D01*
X47976000Y-31407565D01*
X42644000Y-31407565D01*
X42644000Y-31401629D01*
X42643736Y-31395861D01*
X42629369Y-31239513D01*
X42627263Y-31228153D01*
X42570099Y-31025465D01*
X42565959Y-31014679D01*
X42472816Y-30825801D01*
X42466779Y-30815950D01*
X42340775Y-30647209D01*
X42333044Y-30638624D01*
X42178400Y-30495672D01*
X42169234Y-30488639D01*
X41991128Y-30376263D01*
X41980834Y-30371018D01*
X41785231Y-30292979D01*
X41774152Y-30289698D01*
X41655132Y-30266024D01*
X41563000Y-30341636D01*
X41562999Y-31578191D01*
X41307000Y-31578191D01*
X41307001Y-30341107D01*
X41217403Y-30265593D01*
X41126467Y-30281219D01*
X41115307Y-30284210D01*
X40917729Y-30357100D01*
X40907301Y-30362074D01*
X40726315Y-30469751D01*
X40716968Y-30476541D01*
X40558635Y-30615396D01*
X40550683Y-30623776D01*
X40420304Y-30789159D01*
X40414011Y-30798849D01*
X40315956Y-30985224D01*
X40311535Y-30995898D01*
X40248961Y-31197414D01*
X40246466Y-31209540D01*
X40226345Y-31400975D01*
X40226000Y-31407565D01*
X40116000Y-31407565D01*
X40116000Y-30126000D01*
X79864000Y-30126000D01*
X79864000Y-69874000D01*
G37*
D26*
X79864000Y-69874000D02*
X40116000Y-69874000D01*
X40116000Y-61491808D01*
X40770776Y-61491808D01*
X40770776Y-61619184D01*
X40772220Y-61632614D01*
X40845255Y-61968353D01*
X40853885Y-61989188D01*
X40982696Y-62189620D01*
X40994499Y-62203241D01*
X41122291Y-62313974D01*
X41085380Y-62337696D01*
X41071759Y-62349499D01*
X40917217Y-62527849D01*
X40907473Y-62543011D01*
X40809439Y-62757676D01*
X40804361Y-62774969D01*
X40771418Y-63004093D01*
X40770776Y-63013070D01*
X40770776Y-63669184D01*
X40772220Y-63682614D01*
X40845255Y-64018353D01*
X40853885Y-64039188D01*
X40982696Y-64239620D01*
X40994499Y-64253241D01*
X41172849Y-64407783D01*
X41188011Y-64417527D01*
X41402676Y-64515561D01*
X41419969Y-64520639D01*
X41649093Y-64553582D01*
X41658070Y-64554224D01*
X42564184Y-64554224D01*
X42577614Y-64552780D01*
X42913353Y-64479745D01*
X42934188Y-64471115D01*
X43134620Y-64342304D01*
X43148241Y-64330501D01*
X43195466Y-64276000D01*
X44341476Y-64276000D01*
X44462696Y-64464620D01*
X44474499Y-64478241D01*
X44652849Y-64632783D01*
X44668011Y-64642527D01*
X44882676Y-64740561D01*
X44899969Y-64745639D01*
X45129093Y-64778582D01*
X45138070Y-64779224D01*
X45794184Y-64779224D01*
X45807614Y-64777780D01*
X46143353Y-64704745D01*
X46164188Y-64696115D01*
X46364620Y-64567304D01*
X46378241Y-64555501D01*
X46488974Y-64427709D01*
X46512696Y-64464620D01*
X46524499Y-64478241D01*
X46702849Y-64632783D01*
X46718011Y-64642527D01*
X46932676Y-64740561D01*
X46949969Y-64745639D01*
X47179093Y-64778582D01*
X47188070Y-64779224D01*
X47844184Y-64779224D01*
X47857614Y-64777780D01*
X48193353Y-64704745D01*
X48214188Y-64696115D01*
X48414620Y-64567304D01*
X48428241Y-64555501D01*
X48582783Y-64377151D01*
X48592527Y-64361989D01*
X48690561Y-64147324D01*
X48695639Y-64130031D01*
X48728582Y-63900907D01*
X48729224Y-63891930D01*
X48729224Y-62985816D01*
X48727780Y-62972386D01*
X48654745Y-62636647D01*
X48646115Y-62615812D01*
X48517304Y-62415380D01*
X48505501Y-62401759D01*
X48470688Y-62371593D01*
X49034991Y-61807290D01*
X49085255Y-62038353D01*
X49093885Y-62059188D01*
X49222696Y-62259620D01*
X49234499Y-62273241D01*
X49412849Y-62427783D01*
X49428011Y-62437527D01*
X49642676Y-62535561D01*
X49659969Y-62540639D01*
X49889093Y-62573582D01*
X49898070Y-62574224D01*
X50148191Y-62574224D01*
X50222000Y-62500415D01*
X50477999Y-62500415D01*
X50551808Y-62574224D01*
X50804184Y-62574224D01*
X50817614Y-62572780D01*
X51153353Y-62499745D01*
X51174188Y-62491115D01*
X51374620Y-62362304D01*
X51388241Y-62350501D01*
X51413103Y-62321808D01*
X54030776Y-62321808D01*
X54030776Y-63374183D01*
X54032220Y-63387613D01*
X54105255Y-63723353D01*
X54113885Y-63744187D01*
X54242696Y-63944620D01*
X54254499Y-63958241D01*
X54432849Y-64112783D01*
X54448011Y-64122527D01*
X54662677Y-64220561D01*
X54679970Y-64225639D01*
X54909094Y-64258582D01*
X54918071Y-64259224D01*
X55268191Y-64259224D01*
X55342000Y-64185415D01*
X55597999Y-64185415D01*
X55671808Y-64259224D01*
X56024183Y-64259224D01*
X56037613Y-64257780D01*
X56373353Y-64184745D01*
X56394187Y-64176115D01*
X56594620Y-64047304D01*
X56608241Y-64035501D01*
X56762783Y-63857151D01*
X56772527Y-63841989D01*
X56870561Y-63627323D01*
X56875639Y-63610030D01*
X56908582Y-63380906D01*
X56909224Y-63371929D01*
X56909224Y-62321809D01*
X56835415Y-62248000D01*
X55671809Y-62247999D01*
X55598000Y-62321808D01*
X55597999Y-64185415D01*
X55342000Y-64185415D01*
X55342001Y-62321809D01*
X55268192Y-62248000D01*
X54104585Y-62247999D01*
X54030776Y-62321808D01*
X51413103Y-62321808D01*
X51542783Y-62172151D01*
X51552527Y-62156989D01*
X51650561Y-61942324D01*
X51655639Y-61925031D01*
X51688582Y-61695907D01*
X51689224Y-61686930D01*
X51689224Y-61561809D01*
X51615415Y-61488000D01*
X50551809Y-61487999D01*
X50478000Y-61561808D01*
X50477999Y-62500415D01*
X50222000Y-62500415D01*
X50222001Y-61561808D01*
X50222000Y-61561807D01*
X50222001Y-61232000D01*
X51615415Y-61232001D01*
X51689224Y-61158192D01*
X51689224Y-61030816D01*
X51687780Y-61017386D01*
X51655299Y-60868071D01*
X54030776Y-60868071D01*
X54030776Y-61918191D01*
X54104585Y-61992000D01*
X55268191Y-61992001D01*
X55342000Y-61918192D01*
X55342000Y-61918191D01*
X55597999Y-61918191D01*
X55671808Y-61992000D01*
X56835415Y-61992001D01*
X56909224Y-61918192D01*
X56909224Y-61436808D01*
X59160776Y-61436808D01*
X59160776Y-61564184D01*
X59162220Y-61577614D01*
X59235255Y-61913353D01*
X59243885Y-61934188D01*
X59372696Y-62134620D01*
X59384499Y-62148241D01*
X59562849Y-62302783D01*
X59578011Y-62312527D01*
X59792676Y-62410561D01*
X59809969Y-62415639D01*
X60039093Y-62448582D01*
X60048070Y-62449224D01*
X60298191Y-62449224D01*
X60372000Y-62375415D01*
X60627999Y-62375415D01*
X60701808Y-62449224D01*
X60954184Y-62449224D01*
X60967614Y-62447780D01*
X61303353Y-62374745D01*
X61324188Y-62366115D01*
X61524620Y-62237304D01*
X61538241Y-62225501D01*
X61692783Y-62047151D01*
X61702527Y-62031989D01*
X61800561Y-61817324D01*
X61805639Y-61800031D01*
X61838582Y-61570907D01*
X61839224Y-61561930D01*
X61839224Y-61436809D01*
X61765415Y-61363000D01*
X60701809Y-61362999D01*
X60628000Y-61436808D01*
X60627999Y-62375415D01*
X60372000Y-62375415D01*
X60372001Y-61436809D01*
X60298192Y-61363000D01*
X59234585Y-61362999D01*
X59160776Y-61436808D01*
X56909224Y-61436808D01*
X56909224Y-60865817D01*
X56907780Y-60852387D01*
X56834745Y-60516647D01*
X56826115Y-60495813D01*
X56697304Y-60295380D01*
X56685501Y-60281759D01*
X56507151Y-60127217D01*
X56491989Y-60117473D01*
X56277323Y-60019439D01*
X56260030Y-60014361D01*
X56030906Y-59981418D01*
X56021929Y-59980776D01*
X55671809Y-59980776D01*
X55598000Y-60054585D01*
X55597999Y-61918191D01*
X55342000Y-61918191D01*
X55342001Y-60054585D01*
X55268192Y-59980776D01*
X54915817Y-59980776D01*
X54902387Y-59982220D01*
X54566647Y-60055255D01*
X54545813Y-60063885D01*
X54345380Y-60192696D01*
X54331759Y-60204499D01*
X54177217Y-60382849D01*
X54167473Y-60398011D01*
X54069439Y-60612677D01*
X54064361Y-60629970D01*
X54031418Y-60859094D01*
X54030776Y-60868071D01*
X51655299Y-60868071D01*
X51614745Y-60681647D01*
X51606115Y-60660812D01*
X51477304Y-60460380D01*
X51465501Y-60446759D01*
X51337709Y-60336026D01*
X51374620Y-60312304D01*
X51388241Y-60300501D01*
X51522118Y-60146000D01*
X53786345Y-60146000D01*
X53803422Y-60149864D01*
X53821317Y-60151304D01*
X53906808Y-60146000D01*
X53935463Y-60146000D01*
X53944406Y-60145363D01*
X53965291Y-60142372D01*
X54042219Y-60137599D01*
X54059799Y-60133959D01*
X54083317Y-60125469D01*
X54108072Y-60121924D01*
X54125303Y-60116885D01*
X54195482Y-60084976D01*
X54268160Y-60058739D01*
X54284327Y-60050080D01*
X54303601Y-60035818D01*
X54326784Y-60025277D01*
X54341908Y-60015605D01*
X54408738Y-59958021D01*
X54426209Y-59945093D01*
X54433292Y-59938990D01*
X54448656Y-59923625D01*
X54509579Y-59871130D01*
X54521381Y-59857603D01*
X54533727Y-59838555D01*
X54586507Y-59785776D01*
X54662677Y-59820561D01*
X54679970Y-59825639D01*
X54909094Y-59858582D01*
X54918071Y-59859224D01*
X56024183Y-59859224D01*
X56037613Y-59857780D01*
X56355492Y-59788630D01*
X56362825Y-59795107D01*
X56383076Y-59815359D01*
X56389850Y-59821232D01*
X56406733Y-59833886D01*
X56464506Y-59884909D01*
X56479511Y-59894765D01*
X56502143Y-59905390D01*
X56522153Y-59920387D01*
X56537900Y-59929009D01*
X56610089Y-59956072D01*
X56680033Y-59988910D01*
X56697587Y-59994218D01*
X56721303Y-59997763D01*
X56745147Y-60006701D01*
X56762681Y-60010556D01*
X56850649Y-60017094D01*
X56872148Y-60020307D01*
X56881473Y-60021000D01*
X56903210Y-60021000D01*
X56983401Y-60026959D01*
X57001312Y-60025738D01*
X57023508Y-60021000D01*
X59331810Y-60021000D01*
X59372696Y-60084620D01*
X59384499Y-60098241D01*
X59512291Y-60208974D01*
X59475380Y-60232696D01*
X59461759Y-60244499D01*
X59307217Y-60422849D01*
X59297473Y-60438011D01*
X59199439Y-60652676D01*
X59194361Y-60669969D01*
X59161418Y-60899093D01*
X59160776Y-60908070D01*
X59160776Y-61033191D01*
X59234585Y-61107000D01*
X60298192Y-61107001D01*
X60298193Y-61107000D01*
X61765415Y-61107001D01*
X61839224Y-61033192D01*
X61839224Y-60905816D01*
X61837780Y-60892386D01*
X61764745Y-60556647D01*
X61756115Y-60535812D01*
X61627304Y-60335380D01*
X61615501Y-60321759D01*
X61487709Y-60211026D01*
X61524620Y-60187304D01*
X61538241Y-60175501D01*
X61692783Y-59997151D01*
X61702527Y-59981989D01*
X61800561Y-59767324D01*
X61805639Y-59750031D01*
X61838582Y-59520907D01*
X61839224Y-59511930D01*
X61839224Y-58855816D01*
X61837780Y-58842386D01*
X61764745Y-58506647D01*
X61756115Y-58485812D01*
X61627304Y-58285380D01*
X61615501Y-58271759D01*
X61437151Y-58117217D01*
X61421989Y-58107473D01*
X61207324Y-58009439D01*
X61190031Y-58004361D01*
X60960907Y-57971418D01*
X60951930Y-57970776D01*
X60045816Y-57970776D01*
X60032386Y-57972220D01*
X59696647Y-58045255D01*
X59675812Y-58053885D01*
X59475380Y-58182696D01*
X59461759Y-58194499D01*
X59327882Y-58349000D01*
X57281282Y-58349000D01*
X56909224Y-57976942D01*
X56909224Y-56465817D01*
X56907780Y-56452387D01*
X56834745Y-56116647D01*
X56826115Y-56095813D01*
X56697304Y-55895380D01*
X56685501Y-55881759D01*
X56507151Y-55727217D01*
X56491989Y-55717473D01*
X56277323Y-55619439D01*
X56260030Y-55614361D01*
X56030906Y-55581418D01*
X56021929Y-55580776D01*
X54915817Y-55580776D01*
X54902387Y-55582220D01*
X54583804Y-55651523D01*
X53856000Y-54923719D01*
X53856000Y-54471808D01*
X54440776Y-54471808D01*
X54440776Y-54599184D01*
X54442220Y-54612614D01*
X54515255Y-54948353D01*
X54523885Y-54969188D01*
X54652696Y-55169620D01*
X54664499Y-55183241D01*
X54842849Y-55337783D01*
X54858011Y-55347527D01*
X55072676Y-55445561D01*
X55089969Y-55450639D01*
X55319093Y-55483582D01*
X55328070Y-55484224D01*
X55578191Y-55484224D01*
X55652000Y-55410415D01*
X55907999Y-55410415D01*
X55981808Y-55484224D01*
X56234184Y-55484224D01*
X56247614Y-55482780D01*
X56583353Y-55409745D01*
X56604188Y-55401115D01*
X56804620Y-55272304D01*
X56818241Y-55260501D01*
X56972783Y-55082151D01*
X56982527Y-55066989D01*
X57080561Y-54852324D01*
X57085639Y-54835031D01*
X57118582Y-54605907D01*
X57119224Y-54596930D01*
X57119224Y-54521808D01*
X57440776Y-54521808D01*
X57440776Y-54649184D01*
X57442220Y-54662614D01*
X57515255Y-54998353D01*
X57523885Y-55019188D01*
X57652696Y-55219620D01*
X57664499Y-55233241D01*
X57842849Y-55387783D01*
X57858011Y-55397527D01*
X58072676Y-55495561D01*
X58089969Y-55500639D01*
X58319093Y-55533582D01*
X58328070Y-55534224D01*
X58578191Y-55534224D01*
X58652000Y-55460415D01*
X58652001Y-54521809D01*
X58578192Y-54448000D01*
X57514585Y-54447999D01*
X57440776Y-54521808D01*
X57119224Y-54521808D01*
X57119224Y-54471809D01*
X57045415Y-54398000D01*
X55981809Y-54397999D01*
X55908000Y-54471808D01*
X55907999Y-55410415D01*
X55652000Y-55410415D01*
X55652001Y-54471809D01*
X55578192Y-54398000D01*
X54514585Y-54397999D01*
X54440776Y-54471808D01*
X53856000Y-54471808D01*
X53856000Y-53056000D01*
X54611810Y-53056000D01*
X54652696Y-53119620D01*
X54664499Y-53133241D01*
X54792291Y-53243974D01*
X54755380Y-53267696D01*
X54741759Y-53279499D01*
X54587217Y-53457849D01*
X54577473Y-53473011D01*
X54479439Y-53687676D01*
X54474361Y-53704969D01*
X54441418Y-53934093D01*
X54440776Y-53943070D01*
X54440776Y-54068191D01*
X54514585Y-54142000D01*
X55578192Y-54142001D01*
X55578193Y-54142000D01*
X57045415Y-54142001D01*
X57119224Y-54068192D01*
X57119224Y-53940816D01*
X57117780Y-53927386D01*
X57044745Y-53591647D01*
X57036115Y-53570812D01*
X56907304Y-53370380D01*
X56895501Y-53356759D01*
X56767709Y-53246026D01*
X56804620Y-53222304D01*
X56818241Y-53210501D01*
X56908792Y-53106000D01*
X57611810Y-53106000D01*
X57652696Y-53169620D01*
X57664499Y-53183241D01*
X57792291Y-53293974D01*
X57755380Y-53317696D01*
X57741759Y-53329499D01*
X57587217Y-53507849D01*
X57577473Y-53523011D01*
X57479439Y-53737676D01*
X57474361Y-53754969D01*
X57441418Y-53984093D01*
X57440776Y-53993070D01*
X57440776Y-54118191D01*
X57514585Y-54192000D01*
X58578192Y-54192001D01*
X58578193Y-54192000D01*
X58908000Y-54192001D01*
X58907999Y-55460415D01*
X58981808Y-55534224D01*
X59234184Y-55534224D01*
X59247614Y-55532780D01*
X59583353Y-55459745D01*
X59604188Y-55451115D01*
X59804620Y-55322304D01*
X59818241Y-55310501D01*
X59972783Y-55132151D01*
X59982527Y-55116989D01*
X60048516Y-54972493D01*
X60068024Y-55045299D01*
X60040122Y-55203538D01*
X60039163Y-55214499D01*
X60039163Y-55728259D01*
X60041319Y-55744634D01*
X60068024Y-55844299D01*
X60040122Y-56002538D01*
X60039163Y-56013499D01*
X60039163Y-56527259D01*
X60041319Y-56543634D01*
X60068237Y-56644093D01*
X60040122Y-56803538D01*
X60039163Y-56814499D01*
X60039163Y-57328258D01*
X60041319Y-57344634D01*
X60116137Y-57623859D01*
X60128880Y-57648339D01*
X60259990Y-57804590D01*
X60276879Y-57818761D01*
X60451120Y-57919359D01*
X60471837Y-57926900D01*
X60664538Y-57960878D01*
X60675499Y-57961837D01*
X63038163Y-57961837D01*
X63038163Y-59876258D01*
X63040319Y-59892634D01*
X63115137Y-60171859D01*
X63127880Y-60196339D01*
X63258990Y-60352590D01*
X63275879Y-60366761D01*
X63450120Y-60467359D01*
X63470837Y-60474900D01*
X63663538Y-60508878D01*
X63674499Y-60509837D01*
X64188259Y-60509837D01*
X64204634Y-60507681D01*
X64299798Y-60482182D01*
X64462538Y-60510878D01*
X64473499Y-60511837D01*
X64987258Y-60511837D01*
X65003634Y-60509681D01*
X65121305Y-60478152D01*
X65261538Y-60502878D01*
X65272499Y-60503837D01*
X65786259Y-60503837D01*
X65802634Y-60501681D01*
X65885484Y-60479482D01*
X66063538Y-60510878D01*
X66074499Y-60511837D01*
X66588258Y-60511837D01*
X66604634Y-60509681D01*
X66718201Y-60479251D01*
X66863538Y-60504878D01*
X66874499Y-60505837D01*
X67388259Y-60505837D01*
X67404634Y-60503681D01*
X67504299Y-60476976D01*
X67662538Y-60504878D01*
X67673499Y-60505837D01*
X68187259Y-60505837D01*
X68203634Y-60503681D01*
X68297341Y-60478573D01*
X68463538Y-60507878D01*
X68474499Y-60508837D01*
X68988258Y-60508837D01*
X69004634Y-60506681D01*
X69110654Y-60478274D01*
X69261538Y-60504878D01*
X69272499Y-60505837D01*
X69786259Y-60505837D01*
X69802634Y-60503681D01*
X69894487Y-60479069D01*
X70063538Y-60508878D01*
X70074499Y-60509837D01*
X70588258Y-60509837D01*
X70604634Y-60507681D01*
X70712906Y-60478670D01*
X70861538Y-60504878D01*
X70872499Y-60505837D01*
X71386258Y-60505837D01*
X71402634Y-60503681D01*
X71516994Y-60473039D01*
X71663538Y-60498878D01*
X71674499Y-60499837D01*
X72188259Y-60499837D01*
X72204634Y-60497681D01*
X72278083Y-60478000D01*
X72464538Y-60510878D01*
X72475499Y-60511837D01*
X72989258Y-60511837D01*
X73005634Y-60509681D01*
X73284859Y-60434863D01*
X73309339Y-60422120D01*
X73465590Y-60291010D01*
X73479761Y-60274121D01*
X73580359Y-60099880D01*
X73587900Y-60079163D01*
X73621878Y-59886462D01*
X73622837Y-59875501D01*
X73622837Y-58261741D01*
X73621837Y-58254146D01*
X73621837Y-57961837D01*
X73782191Y-57961837D01*
X73856000Y-57888028D01*
X73856000Y-57161837D01*
X74104000Y-57161837D01*
X74104000Y-57888028D01*
X74177809Y-57961837D01*
X74981191Y-57961837D01*
X75055000Y-57888028D01*
X75302999Y-57888028D01*
X75376808Y-57961837D01*
X75987258Y-57961837D01*
X76003634Y-57959681D01*
X76282859Y-57884863D01*
X76307339Y-57872120D01*
X76463590Y-57741010D01*
X76477761Y-57724121D01*
X76578359Y-57549880D01*
X76585900Y-57529163D01*
X76629125Y-57284018D01*
X76553592Y-57194000D01*
X75376809Y-57193999D01*
X75303000Y-57267808D01*
X75302999Y-57888028D01*
X75055000Y-57888028D01*
X75055001Y-57267808D01*
X75055000Y-57267807D01*
X75055001Y-57161837D01*
X75988258Y-57161837D01*
X76004634Y-57159681D01*
X76283859Y-57084863D01*
X76308339Y-57072120D01*
X76458642Y-56946001D01*
X76547028Y-56946001D01*
X76620837Y-56872192D01*
X76620837Y-56811741D01*
X76618681Y-56795366D01*
X76592473Y-56697555D01*
X76612000Y-56586808D01*
X76800776Y-56586808D01*
X76800776Y-56714184D01*
X76802220Y-56727614D01*
X76875255Y-57063353D01*
X76883885Y-57084188D01*
X77012696Y-57284620D01*
X77024499Y-57298241D01*
X77202849Y-57452783D01*
X77218011Y-57462527D01*
X77432676Y-57560561D01*
X77449969Y-57565639D01*
X77679093Y-57598582D01*
X77688070Y-57599224D01*
X77938191Y-57599224D01*
X78012000Y-57525415D01*
X78267999Y-57525415D01*
X78341808Y-57599224D01*
X78594184Y-57599224D01*
X78607614Y-57597780D01*
X78943353Y-57524745D01*
X78964188Y-57516115D01*
X79164620Y-57387304D01*
X79178241Y-57375501D01*
X79332783Y-57197151D01*
X79342527Y-57181989D01*
X79440561Y-56967324D01*
X79445639Y-56950031D01*
X79478582Y-56720907D01*
X79479224Y-56711930D01*
X79479224Y-56586809D01*
X79405415Y-56513000D01*
X78341809Y-56512999D01*
X78268000Y-56586808D01*
X78267999Y-57525415D01*
X78012000Y-57525415D01*
X78012001Y-56586809D01*
X77938192Y-56513000D01*
X76874585Y-56512999D01*
X76800776Y-56586808D01*
X76612000Y-56586808D01*
X76620878Y-56536462D01*
X76621837Y-56525501D01*
X76621837Y-56011741D01*
X76619681Y-55995366D01*
X76590564Y-55886698D01*
X76626126Y-55685018D01*
X76550592Y-55595000D01*
X76451011Y-55595000D01*
X76401010Y-55535411D01*
X76384121Y-55521239D01*
X76303925Y-55474938D01*
X76309339Y-55472120D01*
X76458450Y-55347001D01*
X76544028Y-55347001D01*
X76617837Y-55273192D01*
X76617837Y-55212741D01*
X76615681Y-55196366D01*
X76591779Y-55107161D01*
X76621878Y-54936462D01*
X76622837Y-54925501D01*
X76622837Y-54700118D01*
X76782628Y-54859909D01*
X76791976Y-54874724D01*
X76803612Y-54888396D01*
X76858645Y-54937000D01*
X76875255Y-55013353D01*
X76883885Y-55034187D01*
X77012696Y-55234620D01*
X77024499Y-55248241D01*
X77152291Y-55358974D01*
X77115380Y-55382696D01*
X77101759Y-55394499D01*
X76947217Y-55572849D01*
X76937473Y-55588011D01*
X76839439Y-55802676D01*
X76834361Y-55819969D01*
X76801418Y-56049093D01*
X76800776Y-56058070D01*
X76800776Y-56183191D01*
X76874585Y-56257000D01*
X77938192Y-56257001D01*
X77938193Y-56257000D01*
X79405415Y-56257001D01*
X79479224Y-56183192D01*
X79479224Y-56055816D01*
X79477780Y-56042386D01*
X79404745Y-55706647D01*
X79396115Y-55685812D01*
X79267304Y-55485380D01*
X79255501Y-55471759D01*
X79127709Y-55361026D01*
X79164620Y-55337304D01*
X79178241Y-55325501D01*
X79332783Y-55147151D01*
X79342527Y-55131989D01*
X79440561Y-54917324D01*
X79445639Y-54900031D01*
X79478582Y-54670907D01*
X79479224Y-54661930D01*
X79479224Y-54005816D01*
X79477780Y-53992386D01*
X79404745Y-53656647D01*
X79396115Y-53635812D01*
X79267304Y-53435380D01*
X79255501Y-53421759D01*
X79077151Y-53267217D01*
X79061989Y-53257473D01*
X78847324Y-53159439D01*
X78830031Y-53154361D01*
X78600907Y-53121418D01*
X78591930Y-53120776D01*
X77685816Y-53120776D01*
X77672386Y-53122220D01*
X77456471Y-53169189D01*
X77219001Y-52931719D01*
X77219001Y-51795655D01*
X77222865Y-51778578D01*
X77224305Y-51760683D01*
X77219001Y-51675190D01*
X77219001Y-51646536D01*
X77218364Y-51637592D01*
X77215372Y-51616707D01*
X77210600Y-51539778D01*
X77206959Y-51522197D01*
X77198470Y-51498682D01*
X77194925Y-51473929D01*
X77189886Y-51456697D01*
X77157981Y-51386524D01*
X77131740Y-51313838D01*
X77123081Y-51297672D01*
X77108818Y-51278396D01*
X77098277Y-51255214D01*
X77088605Y-51240090D01*
X77031023Y-51173263D01*
X77018096Y-51155792D01*
X77011992Y-51148708D01*
X76996626Y-51133343D01*
X76944131Y-51072419D01*
X76930602Y-51060617D01*
X76911553Y-51048270D01*
X76807374Y-50944091D01*
X76798026Y-50929276D01*
X76786390Y-50915604D01*
X76722169Y-50858886D01*
X76701925Y-50838641D01*
X76695151Y-50832768D01*
X76678269Y-50820115D01*
X76620496Y-50769091D01*
X76619837Y-50768658D01*
X76619837Y-50526687D01*
X76627847Y-50520867D01*
X76672934Y-50497894D01*
X76688980Y-50486236D01*
X76845407Y-50329809D01*
X76845410Y-50329805D01*
X78076606Y-49098611D01*
X78076619Y-49098596D01*
X78116236Y-49058980D01*
X78127894Y-49042934D01*
X78150866Y-48997850D01*
X78180606Y-48956916D01*
X78189610Y-48939246D01*
X78205245Y-48891127D01*
X78228218Y-48846039D01*
X78234346Y-48827177D01*
X78242263Y-48777195D01*
X78257897Y-48729080D01*
X78260999Y-48709491D01*
X78260999Y-48654191D01*
X78261000Y-48654179D01*
X78261000Y-45101539D01*
X78453859Y-45049863D01*
X78478339Y-45037120D01*
X78634590Y-44906010D01*
X78648761Y-44889121D01*
X78749359Y-44714880D01*
X78756900Y-44694163D01*
X78790878Y-44501462D01*
X78791837Y-44490501D01*
X78791837Y-42926742D01*
X78789681Y-42910366D01*
X78714863Y-42631142D01*
X78702120Y-42606662D01*
X78571010Y-42450410D01*
X78554121Y-42436239D01*
X78379880Y-42335641D01*
X78359163Y-42328100D01*
X78261000Y-42310791D01*
X78261000Y-37151539D01*
X78453859Y-37099863D01*
X78478339Y-37087120D01*
X78634590Y-36956010D01*
X78648761Y-36939121D01*
X78749359Y-36764880D01*
X78756900Y-36744163D01*
X78790878Y-36551462D01*
X78791837Y-36540501D01*
X78791837Y-34976742D01*
X78789681Y-34960366D01*
X78714863Y-34681142D01*
X78702120Y-34656662D01*
X78571010Y-34500410D01*
X78554121Y-34486239D01*
X78379880Y-34385641D01*
X78359163Y-34378100D01*
X78166462Y-34344122D01*
X78155501Y-34343163D01*
X77989378Y-34343163D01*
X77430257Y-33784042D01*
X77571956Y-33780084D01*
X77582561Y-33778885D01*
X77819019Y-33731636D01*
X77829270Y-33728667D01*
X78054387Y-33642253D01*
X78063991Y-33637600D01*
X78271330Y-33514491D01*
X78280012Y-33508286D01*
X78463645Y-33352004D01*
X78471158Y-33344424D01*
X78625833Y-33159435D01*
X78631962Y-33150698D01*
X78753256Y-32942294D01*
X78757825Y-32932650D01*
X78842272Y-32706787D01*
X78845151Y-32696511D01*
X78890392Y-32459351D01*
X78891507Y-32448128D01*
X78894077Y-32180341D01*
X78893178Y-32169099D01*
X78852499Y-31931114D01*
X78849817Y-31920784D01*
X78769723Y-31693343D01*
X78765339Y-31683612D01*
X78648067Y-31472916D01*
X78642107Y-31464064D01*
X78491013Y-31276140D01*
X78483647Y-31268417D01*
X78303049Y-31108638D01*
X78294486Y-31102267D01*
X78089549Y-30975202D01*
X78080036Y-30970365D01*
X77856619Y-30879645D01*
X77846427Y-30876480D01*
X77610919Y-30824700D01*
X77600340Y-30823298D01*
X77359475Y-30811939D01*
X77348809Y-30812339D01*
X77109474Y-30841727D01*
X77099030Y-30843918D01*
X76868068Y-30913210D01*
X76858142Y-30917130D01*
X76642155Y-31024346D01*
X76633032Y-31029882D01*
X76438199Y-31171957D01*
X76430138Y-31178952D01*
X76262029Y-31351822D01*
X76255263Y-31360074D01*
X76139229Y-31528903D01*
X76108067Y-31472916D01*
X76102107Y-31464064D01*
X75951013Y-31276140D01*
X75943647Y-31268417D01*
X75763049Y-31108638D01*
X75754486Y-31102267D01*
X75549549Y-30975202D01*
X75540036Y-30970365D01*
X75316619Y-30879645D01*
X75306427Y-30876480D01*
X75070919Y-30824700D01*
X75060340Y-30823298D01*
X74819475Y-30811939D01*
X74808809Y-30812339D01*
X74569474Y-30841727D01*
X74559030Y-30843918D01*
X74328068Y-30913210D01*
X74318142Y-30917130D01*
X74102155Y-31024346D01*
X74093032Y-31029882D01*
X73898199Y-31171957D01*
X73890138Y-31178952D01*
X73722029Y-31351822D01*
X73715263Y-31360074D01*
X73599229Y-31528903D01*
X73568067Y-31472916D01*
X73562107Y-31464064D01*
X73411013Y-31276140D01*
X73403647Y-31268417D01*
X73223049Y-31108638D01*
X73214486Y-31102267D01*
X73009549Y-30975202D01*
X73000036Y-30970365D01*
X72776619Y-30879645D01*
X72766427Y-30876480D01*
X72530919Y-30824700D01*
X72520340Y-30823298D01*
X72279475Y-30811939D01*
X72268809Y-30812339D01*
X72029474Y-30841727D01*
X72019030Y-30843918D01*
X71788068Y-30913210D01*
X71778142Y-30917130D01*
X71562155Y-31024346D01*
X71553032Y-31029882D01*
X71358199Y-31171957D01*
X71350138Y-31178952D01*
X71182029Y-31351822D01*
X71175263Y-31360074D01*
X71059229Y-31528903D01*
X71028067Y-31472916D01*
X71022107Y-31464064D01*
X70871013Y-31276140D01*
X70863647Y-31268417D01*
X70683049Y-31108638D01*
X70674486Y-31102267D01*
X70469549Y-30975202D01*
X70460036Y-30970365D01*
X70236619Y-30879645D01*
X70226427Y-30876480D01*
X70012096Y-30829356D01*
X69918000Y-30905011D01*
X69917999Y-32428000D01*
X69662000Y-32427999D01*
X69662001Y-30906201D01*
X69576981Y-30830982D01*
X69489474Y-30841726D01*
X69479030Y-30843918D01*
X69248068Y-30913210D01*
X69238142Y-30917130D01*
X69022155Y-31024346D01*
X69013032Y-31029882D01*
X68818199Y-31171957D01*
X68810138Y-31178952D01*
X68642029Y-31351822D01*
X68635263Y-31360074D01*
X68519229Y-31528903D01*
X68488067Y-31472916D01*
X68482107Y-31464064D01*
X68331013Y-31276140D01*
X68323647Y-31268417D01*
X68143049Y-31108638D01*
X68134486Y-31102267D01*
X67929549Y-30975202D01*
X67920036Y-30970365D01*
X67696619Y-30879645D01*
X67686427Y-30876480D01*
X67450919Y-30824700D01*
X67440340Y-30823298D01*
X67199475Y-30811939D01*
X67188809Y-30812339D01*
X66949474Y-30841727D01*
X66939030Y-30843918D01*
X66708068Y-30913210D01*
X66698142Y-30917130D01*
X66482155Y-31024346D01*
X66473032Y-31029882D01*
X66278199Y-31171957D01*
X66270138Y-31178952D01*
X66163137Y-31288983D01*
X66124863Y-31146142D01*
X66112120Y-31121662D01*
X65981010Y-30965410D01*
X65964121Y-30951239D01*
X65789880Y-30850641D01*
X65769163Y-30843100D01*
X65576462Y-30809122D01*
X65565501Y-30808163D01*
X63851742Y-30808163D01*
X63835366Y-30810319D01*
X63556142Y-30885137D01*
X63531662Y-30897880D01*
X63375410Y-31028990D01*
X63361239Y-31045879D01*
X63260641Y-31220120D01*
X63253100Y-31240837D01*
X63219122Y-31433538D01*
X63218163Y-31444499D01*
X63218163Y-33158258D01*
X63220319Y-33174634D01*
X63295137Y-33453859D01*
X63307880Y-33478339D01*
X63438990Y-33634590D01*
X63455879Y-33648761D01*
X63630120Y-33749359D01*
X63650837Y-33756900D01*
X63843538Y-33790878D01*
X63854499Y-33791837D01*
X64949000Y-33791837D01*
X64949001Y-41774000D01*
X63976390Y-41774000D01*
X63887304Y-41635380D01*
X63875501Y-41621759D01*
X63747709Y-41511026D01*
X63784620Y-41487304D01*
X63798241Y-41475501D01*
X63952783Y-41297151D01*
X63962527Y-41281989D01*
X64060561Y-41067324D01*
X64065639Y-41050031D01*
X64098582Y-40820907D01*
X64099224Y-40811930D01*
X64099224Y-40686809D01*
X64025415Y-40613000D01*
X62961808Y-40612999D01*
X62961807Y-40613000D01*
X61494585Y-40612999D01*
X61420776Y-40686808D01*
X61420776Y-40814184D01*
X61422220Y-40827614D01*
X61495255Y-41163353D01*
X61503885Y-41184188D01*
X61632696Y-41384620D01*
X61644499Y-41398241D01*
X61772291Y-41508974D01*
X61735380Y-41532696D01*
X61721759Y-41544499D01*
X61567217Y-41722849D01*
X61557473Y-41738011D01*
X61459439Y-41952676D01*
X61454361Y-41969969D01*
X61421418Y-42199093D01*
X61420776Y-42208070D01*
X61420776Y-42864184D01*
X61422220Y-42877614D01*
X61495255Y-43213353D01*
X61503885Y-43234188D01*
X61632696Y-43434620D01*
X61644499Y-43448241D01*
X61822849Y-43602783D01*
X61838011Y-43612527D01*
X62052676Y-43710561D01*
X62069969Y-43715639D01*
X62299093Y-43748582D01*
X62308070Y-43749224D01*
X63214184Y-43749224D01*
X63227614Y-43747780D01*
X63563353Y-43674745D01*
X63584188Y-43666115D01*
X63784620Y-43537304D01*
X63798241Y-43525501D01*
X63952783Y-43347151D01*
X63962527Y-43331989D01*
X63978963Y-43296000D01*
X64711788Y-43296000D01*
X66245950Y-44830163D01*
X66071741Y-44830163D01*
X66055366Y-44832319D01*
X65955304Y-44859130D01*
X65796462Y-44831122D01*
X65785501Y-44830163D01*
X65271741Y-44830163D01*
X65255366Y-44832319D01*
X65154510Y-44859343D01*
X64994462Y-44831122D01*
X64983501Y-44830163D01*
X64469741Y-44830163D01*
X64453366Y-44832319D01*
X64367602Y-44855299D01*
X64196462Y-44825122D01*
X64185501Y-44824163D01*
X63671742Y-44824163D01*
X63655366Y-44826319D01*
X63376142Y-44901137D01*
X63351662Y-44913880D01*
X63195410Y-45044990D01*
X63181239Y-45061879D01*
X63080641Y-45236120D01*
X63073100Y-45256837D01*
X63039122Y-45449538D01*
X63038163Y-45460499D01*
X63038163Y-47378163D01*
X60673742Y-47378163D01*
X60657366Y-47380319D01*
X60378142Y-47455137D01*
X60353662Y-47467880D01*
X60197410Y-47598990D01*
X60183239Y-47615879D01*
X60084589Y-47786746D01*
X60024745Y-47511647D01*
X60016115Y-47490812D01*
X59887304Y-47290380D01*
X59875501Y-47276759D01*
X59697151Y-47122217D01*
X59681989Y-47112473D01*
X59467324Y-47014439D01*
X59450031Y-47009361D01*
X59220907Y-46976418D01*
X59211930Y-46975776D01*
X58961809Y-46975776D01*
X58888000Y-47049585D01*
X58887999Y-47988192D01*
X58888000Y-47988193D01*
X58887999Y-48318000D01*
X57494585Y-48317999D01*
X57420776Y-48391808D01*
X57420776Y-48519184D01*
X57422220Y-48532614D01*
X57495255Y-48868353D01*
X57503885Y-48889188D01*
X57632696Y-49089620D01*
X57644499Y-49103241D01*
X57772291Y-49213974D01*
X57735380Y-49237696D01*
X57721759Y-49249499D01*
X57587882Y-49404000D01*
X56928190Y-49404000D01*
X56887304Y-49340380D01*
X56875501Y-49326759D01*
X56747709Y-49216026D01*
X56784620Y-49192304D01*
X56798241Y-49180501D01*
X56952783Y-49002151D01*
X56962527Y-48986989D01*
X57060561Y-48772324D01*
X57065639Y-48755031D01*
X57098582Y-48525907D01*
X57099224Y-48516930D01*
X57099224Y-48391809D01*
X57025415Y-48318000D01*
X55961808Y-48317999D01*
X55961807Y-48318000D01*
X54494585Y-48317999D01*
X54420776Y-48391808D01*
X54420776Y-48519184D01*
X54422220Y-48532614D01*
X54495255Y-48868353D01*
X54503885Y-48889188D01*
X54632696Y-49089620D01*
X54644499Y-49103241D01*
X54772291Y-49213974D01*
X54735380Y-49237696D01*
X54721759Y-49249499D01*
X54567217Y-49427849D01*
X54557473Y-49443011D01*
X54459439Y-49657676D01*
X54454361Y-49674969D01*
X54421418Y-49904093D01*
X54420776Y-49913070D01*
X54420776Y-50569184D01*
X54422220Y-50582614D01*
X54495255Y-50918353D01*
X54503885Y-50939188D01*
X54632696Y-51139620D01*
X54644499Y-51153241D01*
X54737790Y-51234079D01*
X54607882Y-51384000D01*
X53031820Y-51384000D01*
X52914444Y-51383284D01*
X52909218Y-51384000D01*
X51361837Y-51384000D01*
X51361837Y-49911742D01*
X51359681Y-49895366D01*
X51284863Y-49616142D01*
X51272120Y-49591662D01*
X51141010Y-49435410D01*
X51124121Y-49421239D01*
X50949880Y-49320641D01*
X50929163Y-49313100D01*
X50736462Y-49279122D01*
X50725501Y-49278163D01*
X49510444Y-49278163D01*
X48095351Y-47863070D01*
X54420776Y-47863070D01*
X54420776Y-47988191D01*
X54494585Y-48062000D01*
X55558191Y-48062001D01*
X55632000Y-47988192D01*
X55632000Y-47988191D01*
X55887999Y-47988191D01*
X55961808Y-48062000D01*
X57025415Y-48062001D01*
X57099224Y-47988192D01*
X57099224Y-47863070D01*
X57420776Y-47863070D01*
X57420776Y-47988191D01*
X57494585Y-48062000D01*
X58558191Y-48062001D01*
X58632000Y-47988192D01*
X58632001Y-47049585D01*
X58558192Y-46975776D01*
X58305816Y-46975776D01*
X58292386Y-46977220D01*
X57956647Y-47050255D01*
X57935812Y-47058885D01*
X57735380Y-47187696D01*
X57721759Y-47199499D01*
X57567217Y-47377849D01*
X57557473Y-47393011D01*
X57459439Y-47607676D01*
X57454361Y-47624969D01*
X57421418Y-47854093D01*
X57420776Y-47863070D01*
X57099224Y-47863070D01*
X57099224Y-47860816D01*
X57097780Y-47847386D01*
X57024745Y-47511647D01*
X57016115Y-47490812D01*
X56887304Y-47290380D01*
X56875501Y-47276759D01*
X56697151Y-47122217D01*
X56681989Y-47112473D01*
X56467324Y-47014439D01*
X56450031Y-47009361D01*
X56220907Y-46976418D01*
X56211930Y-46975776D01*
X55961809Y-46975776D01*
X55888000Y-47049585D01*
X55887999Y-47988191D01*
X55632000Y-47988191D01*
X55632001Y-47049585D01*
X55558192Y-46975776D01*
X55305816Y-46975776D01*
X55292386Y-46977220D01*
X54956647Y-47050255D01*
X54935812Y-47058885D01*
X54735380Y-47187696D01*
X54721759Y-47199499D01*
X54567217Y-47377849D01*
X54557473Y-47393011D01*
X54459439Y-47607676D01*
X54454361Y-47624969D01*
X54421418Y-47854093D01*
X54420776Y-47863070D01*
X48095351Y-47863070D01*
X47749160Y-47516879D01*
X47779620Y-47497304D01*
X47793241Y-47485501D01*
X47947783Y-47307151D01*
X47957527Y-47291989D01*
X48055561Y-47077324D01*
X48060639Y-47060031D01*
X48093582Y-46830907D01*
X48094224Y-46821930D01*
X48094224Y-45915816D01*
X48092780Y-45902386D01*
X48019745Y-45566647D01*
X48011115Y-45545812D01*
X47882304Y-45345380D01*
X47870501Y-45331759D01*
X47756000Y-45232543D01*
X47756000Y-44188190D01*
X47819620Y-44147304D01*
X47833241Y-44135501D01*
X47975082Y-43971808D01*
X51320776Y-43971808D01*
X51320776Y-45024183D01*
X51322220Y-45037613D01*
X51395255Y-45373353D01*
X51403885Y-45394187D01*
X51532696Y-45594620D01*
X51544499Y-45608241D01*
X51722849Y-45762783D01*
X51738011Y-45772527D01*
X51952677Y-45870561D01*
X51969970Y-45875639D01*
X52199094Y-45908582D01*
X52208071Y-45909224D01*
X52558191Y-45909224D01*
X52632000Y-45835415D01*
X52887999Y-45835415D01*
X52961808Y-45909224D01*
X53314183Y-45909224D01*
X53327613Y-45907780D01*
X53663353Y-45834745D01*
X53684187Y-45826115D01*
X53884620Y-45697304D01*
X53898241Y-45685501D01*
X54052783Y-45507151D01*
X54062527Y-45491989D01*
X54160561Y-45277323D01*
X54165639Y-45260030D01*
X54198582Y-45030906D01*
X54199224Y-45021929D01*
X54199224Y-43971809D01*
X54125415Y-43898000D01*
X52961809Y-43897999D01*
X52888000Y-43971808D01*
X52887999Y-45835415D01*
X52632000Y-45835415D01*
X52632001Y-43971809D01*
X52558192Y-43898000D01*
X51394585Y-43897999D01*
X51320776Y-43971808D01*
X47975082Y-43971808D01*
X47987783Y-43957151D01*
X47997527Y-43941989D01*
X48036797Y-43856000D01*
X49016345Y-43856000D01*
X49033422Y-43859864D01*
X49051317Y-43861304D01*
X49136808Y-43856000D01*
X49165463Y-43856000D01*
X49174406Y-43855363D01*
X49195291Y-43852372D01*
X49272219Y-43847599D01*
X49289799Y-43843959D01*
X49313317Y-43835469D01*
X49338072Y-43831924D01*
X49355303Y-43826885D01*
X49425482Y-43794976D01*
X49498160Y-43768739D01*
X49514327Y-43760080D01*
X49533601Y-43745818D01*
X49556784Y-43735277D01*
X49571908Y-43725605D01*
X49638738Y-43668021D01*
X49656209Y-43655093D01*
X49663292Y-43648990D01*
X49678656Y-43633625D01*
X49739580Y-43581130D01*
X49751382Y-43567601D01*
X49763729Y-43548552D01*
X50794210Y-42518071D01*
X51320776Y-42518071D01*
X51320776Y-43568191D01*
X51394585Y-43642000D01*
X52558191Y-43642001D01*
X52632000Y-43568192D01*
X52632000Y-43568191D01*
X52887999Y-43568191D01*
X52961808Y-43642000D01*
X54125415Y-43642001D01*
X54199224Y-43568192D01*
X54199224Y-42515817D01*
X54197780Y-42502387D01*
X54124745Y-42166647D01*
X54116115Y-42145813D01*
X53987304Y-41945380D01*
X53975501Y-41931759D01*
X53797151Y-41777217D01*
X53781989Y-41767473D01*
X53567323Y-41669439D01*
X53550030Y-41664361D01*
X53320906Y-41631418D01*
X53311929Y-41630776D01*
X52961809Y-41630776D01*
X52888000Y-41704585D01*
X52887999Y-43568191D01*
X52632000Y-43568191D01*
X52632001Y-41704585D01*
X52558192Y-41630776D01*
X52205817Y-41630776D01*
X52192387Y-41632220D01*
X51856647Y-41705255D01*
X51835813Y-41713885D01*
X51635380Y-41842696D01*
X51621759Y-41854499D01*
X51467217Y-42032849D01*
X51457473Y-42048011D01*
X51359439Y-42262677D01*
X51354361Y-42279970D01*
X51321418Y-42509094D01*
X51320776Y-42518071D01*
X50794210Y-42518071D01*
X51876506Y-41435775D01*
X51952677Y-41470561D01*
X51969970Y-41475639D01*
X52199094Y-41508582D01*
X52208071Y-41509224D01*
X53314183Y-41509224D01*
X53327613Y-41507780D01*
X53663353Y-41434745D01*
X53684187Y-41426115D01*
X53884620Y-41297304D01*
X53898241Y-41285501D01*
X54052783Y-41107151D01*
X54062527Y-41091989D01*
X54160561Y-40877323D01*
X54165639Y-40860030D01*
X54198582Y-40630906D01*
X54199224Y-40621929D01*
X54199224Y-40158070D01*
X61420776Y-40158070D01*
X61420776Y-40283191D01*
X61494585Y-40357000D01*
X62558191Y-40357001D01*
X62632000Y-40283192D01*
X62632000Y-40283191D01*
X62887999Y-40283191D01*
X62961808Y-40357000D01*
X64025415Y-40357001D01*
X64099224Y-40283192D01*
X64099224Y-40155816D01*
X64097780Y-40142386D01*
X64024745Y-39806647D01*
X64016115Y-39785812D01*
X63887304Y-39585380D01*
X63875501Y-39571759D01*
X63697151Y-39417217D01*
X63681989Y-39407473D01*
X63467324Y-39309439D01*
X63450031Y-39304361D01*
X63220907Y-39271418D01*
X63211930Y-39270776D01*
X62961809Y-39270776D01*
X62888000Y-39344585D01*
X62887999Y-40283191D01*
X62632000Y-40283191D01*
X62632001Y-39344585D01*
X62558192Y-39270776D01*
X62305816Y-39270776D01*
X62292386Y-39272220D01*
X61956647Y-39345255D01*
X61935812Y-39353885D01*
X61735380Y-39482696D01*
X61721759Y-39494499D01*
X61567217Y-39672849D01*
X61557473Y-39688011D01*
X61459439Y-39902676D01*
X61454361Y-39919969D01*
X61421418Y-40149093D01*
X61420776Y-40158070D01*
X54199224Y-40158070D01*
X54199224Y-38115817D01*
X54197780Y-38102387D01*
X54124745Y-37766647D01*
X54116115Y-37745813D01*
X53987304Y-37545380D01*
X53975501Y-37531759D01*
X53797151Y-37377217D01*
X53781989Y-37367473D01*
X53567323Y-37269439D01*
X53550030Y-37264361D01*
X53320906Y-37231418D01*
X53311929Y-37230776D01*
X52205817Y-37230776D01*
X52192387Y-37232220D01*
X51856647Y-37305255D01*
X51835813Y-37313885D01*
X51635380Y-37442696D01*
X51621759Y-37454499D01*
X51467217Y-37632849D01*
X51457473Y-37648011D01*
X51359439Y-37862677D01*
X51354361Y-37879970D01*
X51321418Y-38109094D01*
X51320776Y-38118071D01*
X51320776Y-38534000D01*
X50696282Y-38534000D01*
X49341969Y-37179687D01*
X49496245Y-37138349D01*
X49506584Y-37134586D01*
X49712089Y-37038757D01*
X49721617Y-37033256D01*
X49907361Y-36903198D01*
X49915789Y-36896126D01*
X50076126Y-36735789D01*
X50083198Y-36727361D01*
X50213256Y-36541618D01*
X50218757Y-36532090D01*
X50314586Y-36326585D01*
X50318349Y-36316246D01*
X50377035Y-36097223D01*
X50378946Y-36086388D01*
X50393760Y-35917066D01*
X50394000Y-35911572D01*
X50394000Y-35781809D01*
X50320191Y-35708000D01*
X49236808Y-35707999D01*
X49236807Y-35708000D01*
X48907000Y-35707999D01*
X48907000Y-35378191D01*
X49162999Y-35378191D01*
X49236808Y-35452000D01*
X50320191Y-35452001D01*
X50394000Y-35378192D01*
X50394000Y-35248429D01*
X50393760Y-35242935D01*
X50378946Y-35073613D01*
X50377035Y-35062778D01*
X50318349Y-34843755D01*
X50314586Y-34833416D01*
X50218757Y-34627910D01*
X50213256Y-34618382D01*
X50083198Y-34432639D01*
X50076126Y-34424211D01*
X49915789Y-34263875D01*
X49907361Y-34256802D01*
X49721619Y-34126744D01*
X49712091Y-34121243D01*
X49506585Y-34025414D01*
X49496246Y-34021651D01*
X49261592Y-33958776D01*
X49163000Y-34034429D01*
X49162999Y-35378191D01*
X48907000Y-35378191D01*
X48907001Y-34034429D01*
X48808409Y-33958776D01*
X48695128Y-33989129D01*
X48586547Y-33839680D01*
X48577710Y-33829865D01*
X48426052Y-33693312D01*
X48415368Y-33685550D01*
X48238632Y-33583511D01*
X48226567Y-33578139D01*
X48032480Y-33515076D01*
X48019562Y-33512330D01*
X47816603Y-33490999D01*
X47803397Y-33490999D01*
X47600438Y-33512330D01*
X47587520Y-33515076D01*
X47393433Y-33578139D01*
X47381368Y-33583511D01*
X47204632Y-33685550D01*
X47193948Y-33693312D01*
X47042290Y-33829865D01*
X47033453Y-33839680D01*
X46913500Y-34004781D01*
X46906897Y-34016218D01*
X46823892Y-34202650D01*
X46819810Y-34215211D01*
X46793676Y-34338163D01*
X46376742Y-34338163D01*
X46360366Y-34340319D01*
X46299994Y-34356495D01*
X46201462Y-34339122D01*
X46190501Y-34338163D01*
X45726742Y-34338163D01*
X45710366Y-34340319D01*
X45649994Y-34356495D01*
X45551462Y-34339122D01*
X45540501Y-34338163D01*
X45076742Y-34338163D01*
X45060366Y-34340319D01*
X44999994Y-34356495D01*
X44901462Y-34339122D01*
X44890501Y-34338163D01*
X44426742Y-34338163D01*
X44410366Y-34340319D01*
X44349993Y-34356495D01*
X44199017Y-34329875D01*
X44109000Y-34405408D01*
X44109000Y-34426663D01*
X44106662Y-34427880D01*
X43950410Y-34558990D01*
X43936239Y-34575879D01*
X43911001Y-34619593D01*
X43911001Y-34411972D01*
X43837192Y-34338163D01*
X43826324Y-34338163D01*
X43800190Y-34215211D01*
X43796108Y-34202650D01*
X43713103Y-34016218D01*
X43706500Y-34004781D01*
X43586547Y-33839680D01*
X43577710Y-33829865D01*
X43426052Y-33693312D01*
X43415368Y-33685550D01*
X43238632Y-33583511D01*
X43226567Y-33578139D01*
X43032480Y-33515076D01*
X43019562Y-33512330D01*
X42816603Y-33490999D01*
X42803397Y-33490999D01*
X42600438Y-33512330D01*
X42587520Y-33515076D01*
X42393433Y-33578139D01*
X42381368Y-33583511D01*
X42204632Y-33685550D01*
X42193948Y-33693312D01*
X42042290Y-33829865D01*
X42033453Y-33839680D01*
X41924872Y-33989129D01*
X41811592Y-33958776D01*
X41713000Y-34034429D01*
X41712999Y-35378191D01*
X41786808Y-35452000D01*
X42338953Y-35452001D01*
X42381368Y-35476489D01*
X42393433Y-35481861D01*
X42587520Y-35544924D01*
X42600438Y-35547670D01*
X42803397Y-35569001D01*
X42816603Y-35569001D01*
X43019562Y-35547670D01*
X43032480Y-35544924D01*
X43182237Y-35496265D01*
X43216972Y-35531000D01*
X43793163Y-35531001D01*
X43793163Y-35729000D01*
X43216972Y-35728999D01*
X43143163Y-35802808D01*
X43143163Y-36288258D01*
X43145319Y-36304634D01*
X43220137Y-36583859D01*
X43232880Y-36608339D01*
X43363990Y-36764590D01*
X43380879Y-36778761D01*
X43555120Y-36879359D01*
X43575837Y-36886900D01*
X43820982Y-36930125D01*
X43911000Y-36854592D01*
X43911000Y-36641851D01*
X44013990Y-36764590D01*
X44030879Y-36778761D01*
X44108999Y-36823864D01*
X44108999Y-36848028D01*
X44182808Y-36921837D01*
X44243258Y-36921837D01*
X44259634Y-36919681D01*
X44320007Y-36903505D01*
X44418538Y-36920878D01*
X44429499Y-36921837D01*
X44893258Y-36921837D01*
X44909634Y-36919681D01*
X44970007Y-36903505D01*
X45068538Y-36920878D01*
X45079499Y-36921837D01*
X45543258Y-36921837D01*
X45559634Y-36919681D01*
X45620007Y-36903505D01*
X45718538Y-36920878D01*
X45729499Y-36921837D01*
X46193258Y-36921837D01*
X46209634Y-36919681D01*
X46270007Y-36903505D01*
X46368538Y-36920878D01*
X46379499Y-36921837D01*
X46719556Y-36921837D01*
X49692631Y-39894913D01*
X49701976Y-39909724D01*
X49713612Y-39923396D01*
X49777825Y-39980107D01*
X49798076Y-40000359D01*
X49804850Y-40006232D01*
X49821733Y-40018886D01*
X49879506Y-40069909D01*
X49894511Y-40079765D01*
X49917143Y-40090390D01*
X49937153Y-40105387D01*
X49952900Y-40114009D01*
X50025089Y-40141072D01*
X50095033Y-40173910D01*
X50112587Y-40179218D01*
X50136303Y-40182763D01*
X50160147Y-40191701D01*
X50177681Y-40195556D01*
X50265649Y-40202094D01*
X50287148Y-40205307D01*
X50296473Y-40206000D01*
X50318210Y-40206000D01*
X50398401Y-40211959D01*
X50416312Y-40210738D01*
X50438508Y-40206000D01*
X50741719Y-40206000D01*
X48763719Y-42184000D01*
X48043524Y-42184000D01*
X47922304Y-41995380D01*
X47910501Y-41981759D01*
X47732151Y-41827217D01*
X47716989Y-41817473D01*
X47502324Y-41719439D01*
X47485031Y-41714361D01*
X47255907Y-41681418D01*
X47246930Y-41680776D01*
X46590816Y-41680776D01*
X46577386Y-41682220D01*
X46241647Y-41755255D01*
X46220812Y-41763885D01*
X46020380Y-41892696D01*
X46006759Y-41904499D01*
X45896026Y-42032291D01*
X45872304Y-41995380D01*
X45860501Y-41981759D01*
X45682151Y-41827217D01*
X45666989Y-41817473D01*
X45452324Y-41719439D01*
X45435031Y-41714361D01*
X45205907Y-41681418D01*
X45196930Y-41680776D01*
X45071809Y-41680776D01*
X44998000Y-41754585D01*
X44997999Y-42818192D01*
X44998000Y-42818193D01*
X44997999Y-44285415D01*
X45071808Y-44359224D01*
X45199184Y-44359224D01*
X45212614Y-44357780D01*
X45548353Y-44284745D01*
X45569188Y-44276115D01*
X45769620Y-44147304D01*
X45783241Y-44135501D01*
X45893974Y-44007709D01*
X45917696Y-44044620D01*
X45929499Y-44058241D01*
X46084000Y-44192118D01*
X46084001Y-45176103D01*
X45980380Y-45242696D01*
X45966759Y-45254499D01*
X45856026Y-45382291D01*
X45832304Y-45345380D01*
X45820501Y-45331759D01*
X45642151Y-45177217D01*
X45626989Y-45167473D01*
X45412324Y-45069439D01*
X45395031Y-45064361D01*
X45165907Y-45031418D01*
X45156930Y-45030776D01*
X45031809Y-45030776D01*
X44958000Y-45104585D01*
X44957999Y-46168192D01*
X44958000Y-46168193D01*
X44957999Y-47635415D01*
X45031808Y-47709224D01*
X45159184Y-47709224D01*
X45172614Y-47707780D01*
X45508353Y-47634745D01*
X45529188Y-47626115D01*
X45729620Y-47497304D01*
X45743241Y-47485501D01*
X45853974Y-47357709D01*
X45877696Y-47394620D01*
X45889499Y-47408241D01*
X46044001Y-47542118D01*
X46044001Y-47736340D01*
X46040136Y-47753421D01*
X46038696Y-47771317D01*
X46044001Y-47856824D01*
X46044001Y-47885463D01*
X46044638Y-47894405D01*
X46047627Y-47915275D01*
X46052401Y-47992220D01*
X46056042Y-48009800D01*
X46064532Y-48033318D01*
X46068077Y-48058070D01*
X46073116Y-48075303D01*
X46105021Y-48145474D01*
X46131261Y-48218160D01*
X46139920Y-48234327D01*
X46154184Y-48253603D01*
X46164724Y-48276784D01*
X46174396Y-48291909D01*
X46231968Y-48358723D01*
X46244905Y-48376207D01*
X46251009Y-48383291D01*
X46266382Y-48398663D01*
X46318871Y-48459580D01*
X46332400Y-48471382D01*
X46351445Y-48483726D01*
X48078163Y-50210445D01*
X48078163Y-51428258D01*
X48080319Y-51444634D01*
X48155137Y-51723859D01*
X48167880Y-51748339D01*
X48222896Y-51813904D01*
X48221239Y-51815879D01*
X48120641Y-51990120D01*
X48113100Y-52010837D01*
X48091383Y-52134000D01*
X45061837Y-52134000D01*
X45061837Y-51061742D01*
X45059681Y-51045366D01*
X44984863Y-50766142D01*
X44972120Y-50741662D01*
X44841010Y-50585410D01*
X44824121Y-50571239D01*
X44649880Y-50470641D01*
X44629163Y-50463100D01*
X44436462Y-50429122D01*
X44425501Y-50428163D01*
X42411742Y-50428163D01*
X42395366Y-50430319D01*
X42116142Y-50505137D01*
X42091662Y-50517880D01*
X41935410Y-50648990D01*
X41921239Y-50665879D01*
X41820641Y-50840120D01*
X41813100Y-50860837D01*
X41779122Y-51053538D01*
X41778163Y-51064499D01*
X41778163Y-54878258D01*
X41780319Y-54894634D01*
X41855137Y-55173859D01*
X41867880Y-55198339D01*
X41998990Y-55354590D01*
X42015879Y-55368761D01*
X42190120Y-55469359D01*
X42210837Y-55476900D01*
X42403538Y-55510878D01*
X42414499Y-55511837D01*
X44428258Y-55511837D01*
X44444634Y-55509681D01*
X44723859Y-55434863D01*
X44748339Y-55422120D01*
X44904590Y-55291010D01*
X44918761Y-55274121D01*
X45019359Y-55099880D01*
X45026900Y-55079163D01*
X45060878Y-54886462D01*
X45061837Y-54875501D01*
X45061837Y-53806000D01*
X48096762Y-53806000D01*
X48155137Y-54023859D01*
X48167880Y-54048339D01*
X48222896Y-54113904D01*
X48221239Y-54115879D01*
X48120641Y-54290120D01*
X48113100Y-54310837D01*
X48079122Y-54503538D01*
X48078163Y-54514499D01*
X48078163Y-55729555D01*
X44940091Y-58867628D01*
X44925276Y-58876976D01*
X44911604Y-58888612D01*
X44854888Y-58952831D01*
X44834641Y-58973077D01*
X44828768Y-58979851D01*
X44816117Y-58996730D01*
X44765092Y-59054507D01*
X44755236Y-59069511D01*
X44744609Y-59092145D01*
X44729613Y-59112155D01*
X44720992Y-59127901D01*
X44693931Y-59200084D01*
X44661090Y-59270034D01*
X44655782Y-59287588D01*
X44652237Y-59311305D01*
X44643299Y-59335147D01*
X44639444Y-59352681D01*
X44632906Y-59440650D01*
X44629693Y-59462149D01*
X44629000Y-59471474D01*
X44629000Y-59493210D01*
X44623041Y-59573401D01*
X44624262Y-59591313D01*
X44629000Y-59613508D01*
X44629001Y-62271809D01*
X44565380Y-62312696D01*
X44551759Y-62324499D01*
X44397217Y-62502849D01*
X44387473Y-62518011D01*
X44348203Y-62604000D01*
X43342457Y-62604000D01*
X43237304Y-62440380D01*
X43225501Y-62426759D01*
X43097709Y-62316026D01*
X43134620Y-62292304D01*
X43148241Y-62280501D01*
X43302783Y-62102151D01*
X43312527Y-62086989D01*
X43410561Y-61872324D01*
X43415639Y-61855031D01*
X43448582Y-61625907D01*
X43449224Y-61616930D01*
X43449224Y-61491809D01*
X43375415Y-61418000D01*
X42311808Y-61417999D01*
X42311807Y-61418000D01*
X40844585Y-61417999D01*
X40770776Y-61491808D01*
X40116000Y-61491808D01*
X40116000Y-60963070D01*
X40770776Y-60963070D01*
X40770776Y-61088191D01*
X40844585Y-61162000D01*
X41908191Y-61162001D01*
X41982000Y-61088192D01*
X41982000Y-61088191D01*
X42237999Y-61088191D01*
X42311808Y-61162000D01*
X43375415Y-61162001D01*
X43449224Y-61088192D01*
X43449224Y-60960816D01*
X43447780Y-60947386D01*
X43374745Y-60611647D01*
X43366115Y-60590812D01*
X43237304Y-60390380D01*
X43225501Y-60376759D01*
X43047151Y-60222217D01*
X43031989Y-60212473D01*
X42817324Y-60114439D01*
X42800031Y-60109361D01*
X42570907Y-60076418D01*
X42561930Y-60075776D01*
X42311809Y-60075776D01*
X42238000Y-60149585D01*
X42237999Y-61088191D01*
X41982000Y-61088191D01*
X41982001Y-60149585D01*
X41908192Y-60075776D01*
X41655816Y-60075776D01*
X41642386Y-60077220D01*
X41306647Y-60150255D01*
X41285812Y-60158885D01*
X41085380Y-60287696D01*
X41071759Y-60299499D01*
X40917217Y-60477849D01*
X40907473Y-60493011D01*
X40809439Y-60707676D01*
X40804361Y-60724969D01*
X40771418Y-60954093D01*
X40770776Y-60963070D01*
X40116000Y-60963070D01*
X40116000Y-46571808D01*
X43615776Y-46571808D01*
X43615776Y-46824184D01*
X43617220Y-46837614D01*
X43690255Y-47173353D01*
X43698885Y-47194188D01*
X43827696Y-47394620D01*
X43839499Y-47408241D01*
X44017849Y-47562783D01*
X44033011Y-47572527D01*
X44247676Y-47670561D01*
X44264969Y-47675639D01*
X44494093Y-47708582D01*
X44503070Y-47709224D01*
X44628191Y-47709224D01*
X44702000Y-47635415D01*
X44702001Y-46571809D01*
X44628192Y-46498000D01*
X43689585Y-46497999D01*
X43615776Y-46571808D01*
X40116000Y-46571808D01*
X40116000Y-45918070D01*
X43615776Y-45918070D01*
X43615776Y-46168191D01*
X43689585Y-46242000D01*
X44628191Y-46242001D01*
X44702000Y-46168192D01*
X44702001Y-45104585D01*
X44628192Y-45030776D01*
X44500816Y-45030776D01*
X44487386Y-45032220D01*
X44151647Y-45105255D01*
X44130812Y-45113885D01*
X43930380Y-45242696D01*
X43916759Y-45254499D01*
X43762217Y-45432849D01*
X43752473Y-45448011D01*
X43654439Y-45662676D01*
X43649361Y-45679969D01*
X43616418Y-45909093D01*
X43615776Y-45918070D01*
X40116000Y-45918070D01*
X40116000Y-43221808D01*
X43655776Y-43221808D01*
X43655776Y-43474184D01*
X43657220Y-43487614D01*
X43730255Y-43823353D01*
X43738885Y-43844188D01*
X43867696Y-44044620D01*
X43879499Y-44058241D01*
X44057849Y-44212783D01*
X44073011Y-44222527D01*
X44287676Y-44320561D01*
X44304969Y-44325639D01*
X44534093Y-44358582D01*
X44543070Y-44359224D01*
X44668191Y-44359224D01*
X44742000Y-44285415D01*
X44742001Y-43221809D01*
X44668192Y-43148000D01*
X43729585Y-43147999D01*
X43655776Y-43221808D01*
X40116000Y-43221808D01*
X40116000Y-42568070D01*
X43655776Y-42568070D01*
X43655776Y-42818191D01*
X43729585Y-42892000D01*
X44668191Y-42892001D01*
X44742000Y-42818192D01*
X44742001Y-41754585D01*
X44668192Y-41680776D01*
X44540816Y-41680776D01*
X44527386Y-41682220D01*
X44191647Y-41755255D01*
X44170812Y-41763885D01*
X43970380Y-41892696D01*
X43956759Y-41904499D01*
X43802217Y-42082849D01*
X43792473Y-42098011D01*
X43694439Y-42312676D01*
X43689361Y-42329969D01*
X43656418Y-42559093D01*
X43655776Y-42568070D01*
X40116000Y-42568070D01*
X40116000Y-35781808D01*
X40226000Y-35781808D01*
X40226000Y-35911571D01*
X40226240Y-35917065D01*
X40241054Y-36086387D01*
X40242965Y-36097222D01*
X40301651Y-36316245D01*
X40305414Y-36326584D01*
X40401243Y-36532089D01*
X40406744Y-36541617D01*
X40536802Y-36727361D01*
X40543874Y-36735789D01*
X40704211Y-36896125D01*
X40712639Y-36903198D01*
X40898381Y-37033256D01*
X40907909Y-37038757D01*
X41113415Y-37134586D01*
X41123754Y-37138349D01*
X41358408Y-37201224D01*
X41457000Y-37125571D01*
X41712999Y-37125571D01*
X41811591Y-37201224D01*
X42046245Y-37138349D01*
X42056584Y-37134586D01*
X42262089Y-37038757D01*
X42271617Y-37033256D01*
X42457361Y-36903198D01*
X42465789Y-36896126D01*
X42626126Y-36735789D01*
X42633198Y-36727361D01*
X42763256Y-36541618D01*
X42768757Y-36532090D01*
X42864586Y-36326585D01*
X42868349Y-36316246D01*
X42927035Y-36097223D01*
X42928946Y-36086388D01*
X42943760Y-35917066D01*
X42944000Y-35911572D01*
X42944000Y-35781809D01*
X42870191Y-35708000D01*
X41786809Y-35707999D01*
X41713000Y-35781808D01*
X41712999Y-37125571D01*
X41457000Y-37125571D01*
X41457001Y-35781809D01*
X41383192Y-35708000D01*
X40299809Y-35707999D01*
X40226000Y-35781808D01*
X40116000Y-35781808D01*
X40116000Y-35248428D01*
X40226000Y-35248428D01*
X40226000Y-35378191D01*
X40299809Y-35452000D01*
X41383191Y-35452001D01*
X41457000Y-35378192D01*
X41457001Y-34034429D01*
X41358409Y-33958776D01*
X41123755Y-34021651D01*
X41113416Y-34025414D01*
X40907911Y-34121243D01*
X40898383Y-34126744D01*
X40712640Y-34256802D01*
X40704212Y-34263874D01*
X40543876Y-34424211D01*
X40536803Y-34432639D01*
X40406745Y-34618382D01*
X40401243Y-34627910D01*
X40305414Y-34833415D01*
X40301651Y-34843754D01*
X40242965Y-35062777D01*
X40241054Y-35073612D01*
X40226240Y-35242934D01*
X40226000Y-35248428D01*
X40116000Y-35248428D01*
X40116000Y-31981808D01*
X40226000Y-31981808D01*
X40226000Y-32158371D01*
X40226264Y-32164139D01*
X40240631Y-32320487D01*
X40242737Y-32331847D01*
X40299901Y-32534535D01*
X40304041Y-32545321D01*
X40397184Y-32734199D01*
X40403221Y-32744050D01*
X40529225Y-32912791D01*
X40536956Y-32921376D01*
X40691600Y-33064328D01*
X40700766Y-33071361D01*
X40878872Y-33183737D01*
X40889166Y-33188982D01*
X41084769Y-33267021D01*
X41095848Y-33270302D01*
X41214868Y-33293976D01*
X41306355Y-33218893D01*
X41562999Y-33218893D01*
X41652597Y-33294407D01*
X41743533Y-33278781D01*
X41754693Y-33275790D01*
X41952271Y-33202900D01*
X41962698Y-33197926D01*
X42143686Y-33090250D01*
X42153032Y-33083459D01*
X42311366Y-32944604D01*
X42319318Y-32936224D01*
X42449697Y-32770841D01*
X42455990Y-32761151D01*
X42554045Y-32574776D01*
X42558467Y-32564102D01*
X42621039Y-32362586D01*
X42623534Y-32350460D01*
X42643655Y-32159025D01*
X42644000Y-32152435D01*
X42644000Y-31981809D01*
X42643999Y-31981808D01*
X47976000Y-31981808D01*
X47976000Y-32158371D01*
X47976264Y-32164139D01*
X47990631Y-32320487D01*
X47992737Y-32331847D01*
X48049901Y-32534535D01*
X48054041Y-32545321D01*
X48147184Y-32734199D01*
X48153221Y-32744050D01*
X48279225Y-32912791D01*
X48286956Y-32921376D01*
X48441600Y-33064328D01*
X48450766Y-33071361D01*
X48628872Y-33183737D01*
X48639166Y-33188982D01*
X48834769Y-33267021D01*
X48845848Y-33270302D01*
X48964868Y-33293976D01*
X49056355Y-33218893D01*
X49312999Y-33218893D01*
X49402597Y-33294407D01*
X49493533Y-33278781D01*
X49504693Y-33275790D01*
X49702271Y-33202900D01*
X49712698Y-33197926D01*
X49893686Y-33090250D01*
X49903032Y-33083459D01*
X50061366Y-32944604D01*
X50069318Y-32936224D01*
X50199697Y-32770841D01*
X50205990Y-32761151D01*
X50304045Y-32574776D01*
X50308467Y-32564102D01*
X50371039Y-32362586D01*
X50373534Y-32350460D01*
X50393655Y-32159025D01*
X50394000Y-32152435D01*
X50394000Y-31981809D01*
X50320191Y-31908000D01*
X49386809Y-31907999D01*
X49313000Y-31981808D01*
X49312999Y-33218893D01*
X49056355Y-33218893D01*
X49057000Y-33218364D01*
X49057001Y-31981809D01*
X48983192Y-31908000D01*
X48049809Y-31907999D01*
X47976000Y-31981808D01*
X42643999Y-31981808D01*
X42570191Y-31908000D01*
X41636809Y-31907999D01*
X41563000Y-31981808D01*
X41562999Y-33218893D01*
X41306355Y-33218893D01*
X41307000Y-33218364D01*
X41307001Y-31981809D01*
X41233192Y-31908000D01*
X40299809Y-31907999D01*
X40226000Y-31981808D01*
X40116000Y-31981808D01*
X40116000Y-31407565D01*
X40226000Y-31407565D01*
X40226000Y-31578191D01*
X40299809Y-31652000D01*
X41233191Y-31652001D01*
X41307000Y-31578192D01*
X41307000Y-31578191D01*
X41562999Y-31578191D01*
X41636808Y-31652000D01*
X42570191Y-31652001D01*
X42644000Y-31578192D01*
X42644000Y-31407565D01*
X47976000Y-31407565D01*
X47976000Y-31578191D01*
X48049809Y-31652000D01*
X48983191Y-31652001D01*
X49057000Y-31578192D01*
X49057000Y-31578191D01*
X49312999Y-31578191D01*
X49386808Y-31652000D01*
X50320191Y-31652001D01*
X50394000Y-31578192D01*
X50394000Y-31401629D01*
X50393736Y-31395861D01*
X50379369Y-31239513D01*
X50377263Y-31228153D01*
X50320099Y-31025465D01*
X50315959Y-31014679D01*
X50222816Y-30825801D01*
X50216779Y-30815950D01*
X50090775Y-30647209D01*
X50083044Y-30638624D01*
X49928400Y-30495672D01*
X49919234Y-30488639D01*
X49741128Y-30376263D01*
X49730834Y-30371018D01*
X49535231Y-30292979D01*
X49524152Y-30289698D01*
X49405132Y-30266024D01*
X49313000Y-30341636D01*
X49312999Y-31578191D01*
X49057000Y-31578191D01*
X49057001Y-30341107D01*
X48967403Y-30265593D01*
X48876467Y-30281219D01*
X48865307Y-30284210D01*
X48667729Y-30357100D01*
X48657301Y-30362074D01*
X48476315Y-30469751D01*
X48466968Y-30476541D01*
X48308635Y-30615396D01*
X48300683Y-30623776D01*
X48170304Y-30789159D01*
X48164011Y-30798849D01*
X48065956Y-30985224D01*
X48061535Y-30995898D01*
X47998961Y-31197414D01*
X47996466Y-31209540D01*
X47976345Y-31400975D01*
X47976000Y-31407565D01*
X42644000Y-31407565D01*
X42644000Y-31401629D01*
X42643736Y-31395861D01*
X42629369Y-31239513D01*
X42627263Y-31228153D01*
X42570099Y-31025465D01*
X42565959Y-31014679D01*
X42472816Y-30825801D01*
X42466779Y-30815950D01*
X42340775Y-30647209D01*
X42333044Y-30638624D01*
X42178400Y-30495672D01*
X42169234Y-30488639D01*
X41991128Y-30376263D01*
X41980834Y-30371018D01*
X41785231Y-30292979D01*
X41774152Y-30289698D01*
X41655132Y-30266024D01*
X41563000Y-30341636D01*
X41562999Y-31578191D01*
X41307000Y-31578191D01*
X41307001Y-30341107D01*
X41217403Y-30265593D01*
X41126467Y-30281219D01*
X41115307Y-30284210D01*
X40917729Y-30357100D01*
X40907301Y-30362074D01*
X40726315Y-30469751D01*
X40716968Y-30476541D01*
X40558635Y-30615396D01*
X40550683Y-30623776D01*
X40420304Y-30789159D01*
X40414011Y-30798849D01*
X40315956Y-30985224D01*
X40311535Y-30995898D01*
X40248961Y-31197414D01*
X40246466Y-31209540D01*
X40226345Y-31400975D01*
X40226000Y-31407565D01*
X40116000Y-31407565D01*
X40116000Y-30126000D01*
X79864000Y-30126000D01*
X79864000Y-69874000D01*
G36*
X67127880Y-48198339D02*
G01*
X67253999Y-48348642D01*
X67253999Y-48438028D01*
X67327808Y-48511837D01*
X67388259Y-48511837D01*
X67404634Y-48509681D01*
X67504696Y-48482870D01*
X67663538Y-48510878D01*
X67674499Y-48511837D01*
X68188259Y-48511837D01*
X68204634Y-48509681D01*
X68304696Y-48482870D01*
X68463538Y-48510878D01*
X68474499Y-48511837D01*
X68988259Y-48511837D01*
X69004634Y-48509681D01*
X69104696Y-48482870D01*
X69263538Y-48510878D01*
X69274499Y-48511837D01*
X69788259Y-48511837D01*
X69804634Y-48509681D01*
X69904696Y-48482870D01*
X70063538Y-48510878D01*
X70074499Y-48511837D01*
X70588259Y-48511837D01*
X70604634Y-48509681D01*
X70704696Y-48482870D01*
X70863538Y-48510878D01*
X70874499Y-48511837D01*
X71388259Y-48511837D01*
X71404634Y-48509681D01*
X71504696Y-48482870D01*
X71663538Y-48510878D01*
X71674499Y-48511837D01*
X72188259Y-48511837D01*
X72204634Y-48509681D01*
X72304696Y-48482870D01*
X72463538Y-48510878D01*
X72474499Y-48511837D01*
X72938163Y-48511837D01*
X72938163Y-48528259D01*
X72940319Y-48544634D01*
X72967130Y-48644696D01*
X72939122Y-48803538D01*
X72938163Y-48814499D01*
X72938163Y-49328259D01*
X72940319Y-49344634D01*
X72967130Y-49444696D01*
X72939122Y-49603538D01*
X72938163Y-49614499D01*
X72938163Y-50128259D01*
X72940319Y-50144634D01*
X72967130Y-50244696D01*
X72939122Y-50403538D01*
X72938163Y-50414499D01*
X72938163Y-50928259D01*
X72940319Y-50944634D01*
X72967130Y-51044696D01*
X72939122Y-51203538D01*
X72938163Y-51214499D01*
X72938163Y-51728259D01*
X72940319Y-51744634D01*
X72967130Y-51844696D01*
X72939122Y-52003538D01*
X72938163Y-52014499D01*
X72938163Y-52528259D01*
X72940319Y-52544634D01*
X72967130Y-52644696D01*
X72939122Y-52803538D01*
X72938163Y-52814499D01*
X72938163Y-53328259D01*
X72940319Y-53344634D01*
X72967130Y-53444696D01*
X72939122Y-53603538D01*
X72938163Y-53614499D01*
X72938163Y-54128259D01*
X72940319Y-54144634D01*
X72967130Y-54244696D01*
X72939122Y-54403538D01*
X72938163Y-54414499D01*
X72938163Y-54928259D01*
X72940319Y-54944634D01*
X72967130Y-55044696D01*
X72929875Y-55255982D01*
X73005408Y-55346000D01*
X73109828Y-55346000D01*
X73158990Y-55404590D01*
X73175879Y-55418761D01*
X73256549Y-55465336D01*
X73251662Y-55467880D01*
X73101357Y-55594000D01*
X73002027Y-55594000D01*
X72926374Y-55692592D01*
X72967130Y-55844696D01*
X72939122Y-56003538D01*
X72938163Y-56014499D01*
X72938163Y-56528259D01*
X72940319Y-56544634D01*
X72967130Y-56644696D01*
X72939122Y-56803538D01*
X72938163Y-56814499D01*
X72938163Y-56828163D01*
X72471741Y-56828163D01*
X72455366Y-56830319D01*
X72355304Y-56857130D01*
X72196462Y-56829122D01*
X72185501Y-56828163D01*
X71671741Y-56828163D01*
X71655366Y-56830319D01*
X71555304Y-56857130D01*
X71396462Y-56829122D01*
X71385501Y-56828163D01*
X70871741Y-56828163D01*
X70855366Y-56830319D01*
X70755304Y-56857130D01*
X70596462Y-56829122D01*
X70585501Y-56828163D01*
X70071741Y-56828163D01*
X70055366Y-56830319D01*
X69955304Y-56857130D01*
X69796462Y-56829122D01*
X69785501Y-56828163D01*
X69271741Y-56828163D01*
X69255366Y-56830319D01*
X69155304Y-56857130D01*
X68996462Y-56829122D01*
X68985501Y-56828163D01*
X68471741Y-56828163D01*
X68455366Y-56830319D01*
X68355304Y-56857130D01*
X68196462Y-56829122D01*
X68185501Y-56828163D01*
X67671741Y-56828163D01*
X67655366Y-56830319D01*
X67555304Y-56857130D01*
X67396462Y-56829122D01*
X67385501Y-56828163D01*
X66871741Y-56828163D01*
X66855366Y-56830319D01*
X66755304Y-56857130D01*
X66596462Y-56829122D01*
X66585501Y-56828163D01*
X66071741Y-56828163D01*
X66055366Y-56830319D01*
X65955304Y-56857130D01*
X65796462Y-56829122D01*
X65785501Y-56828163D01*
X65271741Y-56828163D01*
X65255366Y-56830319D01*
X65155304Y-56857130D01*
X64996462Y-56829122D01*
X64985501Y-56828163D01*
X64471741Y-56828163D01*
X64455366Y-56830319D01*
X64355304Y-56857130D01*
X64196462Y-56829122D01*
X64185501Y-56828163D01*
X63721837Y-56828163D01*
X63721837Y-56811741D01*
X63719681Y-56795366D01*
X63692870Y-56695304D01*
X63720878Y-56536462D01*
X63721837Y-56525501D01*
X63721837Y-56011741D01*
X63719681Y-55995366D01*
X63692870Y-55895304D01*
X63720878Y-55736462D01*
X63721837Y-55725501D01*
X63721837Y-55371808D01*
X64388163Y-55371808D01*
X64388163Y-55978258D01*
X64390319Y-55994634D01*
X64465137Y-56273859D01*
X64477880Y-56298339D01*
X64608990Y-56454590D01*
X64625879Y-56468761D01*
X64800120Y-56569359D01*
X64820837Y-56576900D01*
X65013538Y-56610878D01*
X65024499Y-56611837D01*
X65628191Y-56611837D01*
X65702000Y-56538028D01*
X65702001Y-55371809D01*
X65628192Y-55298000D01*
X64461972Y-55297999D01*
X64388163Y-55371808D01*
X63721837Y-55371808D01*
X63721837Y-55211741D01*
X63719681Y-55195366D01*
X63692870Y-55095304D01*
X63720878Y-54936462D01*
X63721837Y-54925501D01*
X63721837Y-54411741D01*
X63719681Y-54395366D01*
X63692870Y-54295304D01*
X63720878Y-54136462D01*
X63721837Y-54125501D01*
X63721837Y-53611741D01*
X63719681Y-53595366D01*
X63692870Y-53495304D01*
X63730125Y-53284018D01*
X63654592Y-53194000D01*
X63550172Y-53194000D01*
X63501010Y-53135410D01*
X63484121Y-53121239D01*
X63403451Y-53074664D01*
X63408339Y-53072120D01*
X63558643Y-52946000D01*
X63657973Y-52946000D01*
X63733626Y-52847408D01*
X63692870Y-52695304D01*
X63720878Y-52536462D01*
X63721837Y-52525501D01*
X63721837Y-52011741D01*
X63719681Y-51995366D01*
X63692870Y-51895304D01*
X63720878Y-51736462D01*
X63721837Y-51725501D01*
X63721837Y-51211741D01*
X63719681Y-51195366D01*
X63692870Y-51095304D01*
X63720878Y-50936462D01*
X63721837Y-50925501D01*
X63721837Y-50411741D01*
X63719681Y-50395366D01*
X63713369Y-50371808D01*
X64388163Y-50371808D01*
X64388163Y-50978258D01*
X64390319Y-50994634D01*
X64465137Y-51273859D01*
X64477880Y-51298339D01*
X64579963Y-51419997D01*
X64545410Y-51448990D01*
X64531239Y-51465879D01*
X64430641Y-51640120D01*
X64423100Y-51660837D01*
X64389122Y-51853538D01*
X64388163Y-51864499D01*
X64388163Y-52468191D01*
X64461972Y-52542000D01*
X65958000Y-52542001D01*
X65957999Y-52798000D01*
X64461972Y-52797999D01*
X64388163Y-52871808D01*
X64388163Y-53478258D01*
X64390319Y-53494634D01*
X64465137Y-53773859D01*
X64477880Y-53798339D01*
X64579963Y-53919997D01*
X64545410Y-53948990D01*
X64531239Y-53965879D01*
X64430641Y-54140120D01*
X64423100Y-54160837D01*
X64389122Y-54353538D01*
X64388163Y-54364499D01*
X64388163Y-54968191D01*
X64461972Y-55042000D01*
X65628192Y-55042001D01*
X65628193Y-55042000D01*
X65958000Y-55042001D01*
X65957999Y-56538028D01*
X66031808Y-56611837D01*
X66638258Y-56611837D01*
X66654634Y-56609681D01*
X66933859Y-56534863D01*
X66958339Y-56522120D01*
X67079997Y-56420037D01*
X67108990Y-56454590D01*
X67125879Y-56468761D01*
X67300120Y-56569359D01*
X67320837Y-56576900D01*
X67513538Y-56610878D01*
X67524499Y-56611837D01*
X68128191Y-56611837D01*
X68202000Y-56538028D01*
X68202001Y-55042000D01*
X68458000Y-55042001D01*
X68457999Y-56538028D01*
X68531808Y-56611837D01*
X69138258Y-56611837D01*
X69154634Y-56609681D01*
X69433859Y-56534863D01*
X69458339Y-56522120D01*
X69579997Y-56420037D01*
X69608990Y-56454590D01*
X69625879Y-56468761D01*
X69800120Y-56569359D01*
X69820837Y-56576900D01*
X70013538Y-56610878D01*
X70024499Y-56611837D01*
X70628191Y-56611837D01*
X70702000Y-56538028D01*
X70957999Y-56538028D01*
X71031808Y-56611837D01*
X71638258Y-56611837D01*
X71654634Y-56609681D01*
X71933859Y-56534863D01*
X71958339Y-56522120D01*
X72114590Y-56391010D01*
X72128761Y-56374121D01*
X72229359Y-56199880D01*
X72236900Y-56179163D01*
X72270878Y-55986462D01*
X72271837Y-55975501D01*
X72271837Y-55371809D01*
X72198028Y-55298000D01*
X71031809Y-55297999D01*
X70958000Y-55371808D01*
X70957999Y-56538028D01*
X70702000Y-56538028D01*
X70702001Y-55371808D01*
X70702000Y-55371807D01*
X70702001Y-55042000D01*
X72198028Y-55042001D01*
X72271837Y-54968192D01*
X72271837Y-54361742D01*
X72269681Y-54345366D01*
X72194863Y-54066142D01*
X72182120Y-54041662D01*
X72080037Y-53920003D01*
X72114590Y-53891010D01*
X72128761Y-53874121D01*
X72229359Y-53699880D01*
X72236900Y-53679163D01*
X72270878Y-53486462D01*
X72271837Y-53475501D01*
X72271837Y-52871809D01*
X72198028Y-52798000D01*
X70702000Y-52797999D01*
X70702001Y-52542000D01*
X72198028Y-52542001D01*
X72271837Y-52468192D01*
X72271837Y-51861742D01*
X72269681Y-51845366D01*
X72194863Y-51566142D01*
X72182120Y-51541662D01*
X72080037Y-51420003D01*
X72114590Y-51391010D01*
X72128761Y-51374121D01*
X72229359Y-51199880D01*
X72236900Y-51179163D01*
X72270878Y-50986462D01*
X72271837Y-50975501D01*
X72271837Y-50371809D01*
X72198028Y-50298000D01*
X71031808Y-50297999D01*
X71031807Y-50298000D01*
X70702000Y-50297999D01*
X70702000Y-49968191D01*
X70957999Y-49968191D01*
X71031808Y-50042000D01*
X72198028Y-50042001D01*
X72271837Y-49968192D01*
X72271837Y-49361742D01*
X72269681Y-49345366D01*
X72194863Y-49066142D01*
X72182120Y-49041662D01*
X72051010Y-48885410D01*
X72034121Y-48871239D01*
X71859880Y-48770641D01*
X71839163Y-48763100D01*
X71646462Y-48729122D01*
X71635501Y-48728163D01*
X71031809Y-48728163D01*
X70958000Y-48801972D01*
X70957999Y-49968191D01*
X70702000Y-49968191D01*
X70702001Y-48801972D01*
X70628192Y-48728163D01*
X70021742Y-48728163D01*
X70005366Y-48730319D01*
X69726142Y-48805137D01*
X69701662Y-48817880D01*
X69580003Y-48919963D01*
X69551010Y-48885410D01*
X69534121Y-48871239D01*
X69359880Y-48770641D01*
X69339163Y-48763100D01*
X69146462Y-48729122D01*
X69135501Y-48728163D01*
X68531809Y-48728163D01*
X68458000Y-48801972D01*
X68457999Y-50298000D01*
X68202000Y-50297999D01*
X68202001Y-48801972D01*
X68128192Y-48728163D01*
X67521742Y-48728163D01*
X67505366Y-48730319D01*
X67226142Y-48805137D01*
X67201662Y-48817880D01*
X67080003Y-48919963D01*
X67051010Y-48885410D01*
X67034121Y-48871239D01*
X66859880Y-48770641D01*
X66839163Y-48763100D01*
X66646462Y-48729122D01*
X66635501Y-48728163D01*
X66031809Y-48728163D01*
X65958000Y-48801972D01*
X65957999Y-49968192D01*
X65958000Y-49968193D01*
X65957999Y-50298000D01*
X64461972Y-50297999D01*
X64388163Y-50371808D01*
X63713369Y-50371808D01*
X63692870Y-50295304D01*
X63730125Y-50084018D01*
X63654592Y-49994000D01*
X63550172Y-49994000D01*
X63501010Y-49935410D01*
X63484121Y-49921239D01*
X63403451Y-49874664D01*
X63408339Y-49872120D01*
X63558643Y-49746000D01*
X63657973Y-49746000D01*
X63733626Y-49647408D01*
X63692870Y-49495304D01*
X63715934Y-49364499D01*
X64388163Y-49364499D01*
X64388163Y-49968191D01*
X64461972Y-50042000D01*
X65628191Y-50042001D01*
X65702000Y-49968192D01*
X65702001Y-48801972D01*
X65628192Y-48728163D01*
X65021742Y-48728163D01*
X65005366Y-48730319D01*
X64726142Y-48805137D01*
X64701662Y-48817880D01*
X64545410Y-48948990D01*
X64531239Y-48965879D01*
X64430641Y-49140120D01*
X64423100Y-49160837D01*
X64389122Y-49353538D01*
X64388163Y-49364499D01*
X63715934Y-49364499D01*
X63720878Y-49336462D01*
X63721837Y-49325501D01*
X63721837Y-48811741D01*
X63719681Y-48795366D01*
X63692870Y-48695304D01*
X63720878Y-48536462D01*
X63721837Y-48525501D01*
X63721837Y-48511837D01*
X64188259Y-48511837D01*
X64204634Y-48509681D01*
X64304696Y-48482870D01*
X64463538Y-48510878D01*
X64474499Y-48511837D01*
X64988259Y-48511837D01*
X65004634Y-48509681D01*
X65104696Y-48482870D01*
X65263538Y-48510878D01*
X65274499Y-48511837D01*
X65788259Y-48511837D01*
X65804634Y-48509681D01*
X65904696Y-48482870D01*
X66063538Y-48510878D01*
X66074499Y-48511837D01*
X66588259Y-48511837D01*
X66604634Y-48509681D01*
X66704696Y-48482870D01*
X66915982Y-48520125D01*
X67006000Y-48444592D01*
X67006000Y-48340172D01*
X67064590Y-48291010D01*
X67078761Y-48274121D01*
X67125336Y-48193451D01*
X67127880Y-48198339D01*
G37*
X67127880Y-48198339D02*
X67253999Y-48348642D01*
X67253999Y-48438028D01*
X67327808Y-48511837D01*
X67388259Y-48511837D01*
X67404634Y-48509681D01*
X67504696Y-48482870D01*
X67663538Y-48510878D01*
X67674499Y-48511837D01*
X68188259Y-48511837D01*
X68204634Y-48509681D01*
X68304696Y-48482870D01*
X68463538Y-48510878D01*
X68474499Y-48511837D01*
X68988259Y-48511837D01*
X69004634Y-48509681D01*
X69104696Y-48482870D01*
X69263538Y-48510878D01*
X69274499Y-48511837D01*
X69788259Y-48511837D01*
X69804634Y-48509681D01*
X69904696Y-48482870D01*
X70063538Y-48510878D01*
X70074499Y-48511837D01*
X70588259Y-48511837D01*
X70604634Y-48509681D01*
X70704696Y-48482870D01*
X70863538Y-48510878D01*
X70874499Y-48511837D01*
X71388259Y-48511837D01*
X71404634Y-48509681D01*
X71504696Y-48482870D01*
X71663538Y-48510878D01*
X71674499Y-48511837D01*
X72188259Y-48511837D01*
X72204634Y-48509681D01*
X72304696Y-48482870D01*
X72463538Y-48510878D01*
X72474499Y-48511837D01*
X72938163Y-48511837D01*
X72938163Y-48528259D01*
X72940319Y-48544634D01*
X72967130Y-48644696D01*
X72939122Y-48803538D01*
X72938163Y-48814499D01*
X72938163Y-49328259D01*
X72940319Y-49344634D01*
X72967130Y-49444696D01*
X72939122Y-49603538D01*
X72938163Y-49614499D01*
X72938163Y-50128259D01*
X72940319Y-50144634D01*
X72967130Y-50244696D01*
X72939122Y-50403538D01*
X72938163Y-50414499D01*
X72938163Y-50928259D01*
X72940319Y-50944634D01*
X72967130Y-51044696D01*
X72939122Y-51203538D01*
X72938163Y-51214499D01*
X72938163Y-51728259D01*
X72940319Y-51744634D01*
X72967130Y-51844696D01*
X72939122Y-52003538D01*
X72938163Y-52014499D01*
X72938163Y-52528259D01*
X72940319Y-52544634D01*
X72967130Y-52644696D01*
X72939122Y-52803538D01*
X72938163Y-52814499D01*
X72938163Y-53328259D01*
X72940319Y-53344634D01*
X72967130Y-53444696D01*
X72939122Y-53603538D01*
X72938163Y-53614499D01*
X72938163Y-54128259D01*
X72940319Y-54144634D01*
X72967130Y-54244696D01*
X72939122Y-54403538D01*
X72938163Y-54414499D01*
X72938163Y-54928259D01*
X72940319Y-54944634D01*
X72967130Y-55044696D01*
X72929875Y-55255982D01*
X73005408Y-55346000D01*
X73109828Y-55346000D01*
X73158990Y-55404590D01*
X73175879Y-55418761D01*
X73256549Y-55465336D01*
X73251662Y-55467880D01*
X73101357Y-55594000D01*
X73002027Y-55594000D01*
X72926374Y-55692592D01*
X72967130Y-55844696D01*
X72939122Y-56003538D01*
X72938163Y-56014499D01*
X72938163Y-56528259D01*
X72940319Y-56544634D01*
X72967130Y-56644696D01*
X72939122Y-56803538D01*
X72938163Y-56814499D01*
X72938163Y-56828163D01*
X72471741Y-56828163D01*
X72455366Y-56830319D01*
X72355304Y-56857130D01*
X72196462Y-56829122D01*
X72185501Y-56828163D01*
X71671741Y-56828163D01*
X71655366Y-56830319D01*
X71555304Y-56857130D01*
X71396462Y-56829122D01*
X71385501Y-56828163D01*
X70871741Y-56828163D01*
X70855366Y-56830319D01*
X70755304Y-56857130D01*
X70596462Y-56829122D01*
X70585501Y-56828163D01*
X70071741Y-56828163D01*
X70055366Y-56830319D01*
X69955304Y-56857130D01*
X69796462Y-56829122D01*
X69785501Y-56828163D01*
X69271741Y-56828163D01*
X69255366Y-56830319D01*
X69155304Y-56857130D01*
X68996462Y-56829122D01*
X68985501Y-56828163D01*
X68471741Y-56828163D01*
X68455366Y-56830319D01*
X68355304Y-56857130D01*
X68196462Y-56829122D01*
X68185501Y-56828163D01*
X67671741Y-56828163D01*
X67655366Y-56830319D01*
X67555304Y-56857130D01*
X67396462Y-56829122D01*
X67385501Y-56828163D01*
X66871741Y-56828163D01*
X66855366Y-56830319D01*
X66755304Y-56857130D01*
X66596462Y-56829122D01*
X66585501Y-56828163D01*
X66071741Y-56828163D01*
X66055366Y-56830319D01*
X65955304Y-56857130D01*
X65796462Y-56829122D01*
X65785501Y-56828163D01*
X65271741Y-56828163D01*
X65255366Y-56830319D01*
X65155304Y-56857130D01*
X64996462Y-56829122D01*
X64985501Y-56828163D01*
X64471741Y-56828163D01*
X64455366Y-56830319D01*
X64355304Y-56857130D01*
X64196462Y-56829122D01*
X64185501Y-56828163D01*
X63721837Y-56828163D01*
X63721837Y-56811741D01*
X63719681Y-56795366D01*
X63692870Y-56695304D01*
X63720878Y-56536462D01*
X63721837Y-56525501D01*
X63721837Y-56011741D01*
X63719681Y-55995366D01*
X63692870Y-55895304D01*
X63720878Y-55736462D01*
X63721837Y-55725501D01*
X63721837Y-55371808D01*
X64388163Y-55371808D01*
X64388163Y-55978258D01*
X64390319Y-55994634D01*
X64465137Y-56273859D01*
X64477880Y-56298339D01*
X64608990Y-56454590D01*
X64625879Y-56468761D01*
X64800120Y-56569359D01*
X64820837Y-56576900D01*
X65013538Y-56610878D01*
X65024499Y-56611837D01*
X65628191Y-56611837D01*
X65702000Y-56538028D01*
X65702001Y-55371809D01*
X65628192Y-55298000D01*
X64461972Y-55297999D01*
X64388163Y-55371808D01*
X63721837Y-55371808D01*
X63721837Y-55211741D01*
X63719681Y-55195366D01*
X63692870Y-55095304D01*
X63720878Y-54936462D01*
X63721837Y-54925501D01*
X63721837Y-54411741D01*
X63719681Y-54395366D01*
X63692870Y-54295304D01*
X63720878Y-54136462D01*
X63721837Y-54125501D01*
X63721837Y-53611741D01*
X63719681Y-53595366D01*
X63692870Y-53495304D01*
X63730125Y-53284018D01*
X63654592Y-53194000D01*
X63550172Y-53194000D01*
X63501010Y-53135410D01*
X63484121Y-53121239D01*
X63403451Y-53074664D01*
X63408339Y-53072120D01*
X63558643Y-52946000D01*
X63657973Y-52946000D01*
X63733626Y-52847408D01*
X63692870Y-52695304D01*
X63720878Y-52536462D01*
X63721837Y-52525501D01*
X63721837Y-52011741D01*
X63719681Y-51995366D01*
X63692870Y-51895304D01*
X63720878Y-51736462D01*
X63721837Y-51725501D01*
X63721837Y-51211741D01*
X63719681Y-51195366D01*
X63692870Y-51095304D01*
X63720878Y-50936462D01*
X63721837Y-50925501D01*
X63721837Y-50411741D01*
X63719681Y-50395366D01*
X63713369Y-50371808D01*
X64388163Y-50371808D01*
X64388163Y-50978258D01*
X64390319Y-50994634D01*
X64465137Y-51273859D01*
X64477880Y-51298339D01*
X64579963Y-51419997D01*
X64545410Y-51448990D01*
X64531239Y-51465879D01*
X64430641Y-51640120D01*
X64423100Y-51660837D01*
X64389122Y-51853538D01*
X64388163Y-51864499D01*
X64388163Y-52468191D01*
X64461972Y-52542000D01*
X65958000Y-52542001D01*
X65957999Y-52798000D01*
X64461972Y-52797999D01*
X64388163Y-52871808D01*
X64388163Y-53478258D01*
X64390319Y-53494634D01*
X64465137Y-53773859D01*
X64477880Y-53798339D01*
X64579963Y-53919997D01*
X64545410Y-53948990D01*
X64531239Y-53965879D01*
X64430641Y-54140120D01*
X64423100Y-54160837D01*
X64389122Y-54353538D01*
X64388163Y-54364499D01*
X64388163Y-54968191D01*
X64461972Y-55042000D01*
X65628192Y-55042001D01*
X65628193Y-55042000D01*
X65958000Y-55042001D01*
X65957999Y-56538028D01*
X66031808Y-56611837D01*
X66638258Y-56611837D01*
X66654634Y-56609681D01*
X66933859Y-56534863D01*
X66958339Y-56522120D01*
X67079997Y-56420037D01*
X67108990Y-56454590D01*
X67125879Y-56468761D01*
X67300120Y-56569359D01*
X67320837Y-56576900D01*
X67513538Y-56610878D01*
X67524499Y-56611837D01*
X68128191Y-56611837D01*
X68202000Y-56538028D01*
X68202001Y-55042000D01*
X68458000Y-55042001D01*
X68457999Y-56538028D01*
X68531808Y-56611837D01*
X69138258Y-56611837D01*
X69154634Y-56609681D01*
X69433859Y-56534863D01*
X69458339Y-56522120D01*
X69579997Y-56420037D01*
X69608990Y-56454590D01*
X69625879Y-56468761D01*
X69800120Y-56569359D01*
X69820837Y-56576900D01*
X70013538Y-56610878D01*
X70024499Y-56611837D01*
X70628191Y-56611837D01*
X70702000Y-56538028D01*
X70957999Y-56538028D01*
X71031808Y-56611837D01*
X71638258Y-56611837D01*
X71654634Y-56609681D01*
X71933859Y-56534863D01*
X71958339Y-56522120D01*
X72114590Y-56391010D01*
X72128761Y-56374121D01*
X72229359Y-56199880D01*
X72236900Y-56179163D01*
X72270878Y-55986462D01*
X72271837Y-55975501D01*
X72271837Y-55371809D01*
X72198028Y-55298000D01*
X71031809Y-55297999D01*
X70958000Y-55371808D01*
X70957999Y-56538028D01*
X70702000Y-56538028D01*
X70702001Y-55371808D01*
X70702000Y-55371807D01*
X70702001Y-55042000D01*
X72198028Y-55042001D01*
X72271837Y-54968192D01*
X72271837Y-54361742D01*
X72269681Y-54345366D01*
X72194863Y-54066142D01*
X72182120Y-54041662D01*
X72080037Y-53920003D01*
X72114590Y-53891010D01*
X72128761Y-53874121D01*
X72229359Y-53699880D01*
X72236900Y-53679163D01*
X72270878Y-53486462D01*
X72271837Y-53475501D01*
X72271837Y-52871809D01*
X72198028Y-52798000D01*
X70702000Y-52797999D01*
X70702001Y-52542000D01*
X72198028Y-52542001D01*
X72271837Y-52468192D01*
X72271837Y-51861742D01*
X72269681Y-51845366D01*
X72194863Y-51566142D01*
X72182120Y-51541662D01*
X72080037Y-51420003D01*
X72114590Y-51391010D01*
X72128761Y-51374121D01*
X72229359Y-51199880D01*
X72236900Y-51179163D01*
X72270878Y-50986462D01*
X72271837Y-50975501D01*
X72271837Y-50371809D01*
X72198028Y-50298000D01*
X71031808Y-50297999D01*
X71031807Y-50298000D01*
X70702000Y-50297999D01*
X70702000Y-49968191D01*
X70957999Y-49968191D01*
X71031808Y-50042000D01*
X72198028Y-50042001D01*
X72271837Y-49968192D01*
X72271837Y-49361742D01*
X72269681Y-49345366D01*
X72194863Y-49066142D01*
X72182120Y-49041662D01*
X72051010Y-48885410D01*
X72034121Y-48871239D01*
X71859880Y-48770641D01*
X71839163Y-48763100D01*
X71646462Y-48729122D01*
X71635501Y-48728163D01*
X71031809Y-48728163D01*
X70958000Y-48801972D01*
X70957999Y-49968191D01*
X70702000Y-49968191D01*
X70702001Y-48801972D01*
X70628192Y-48728163D01*
X70021742Y-48728163D01*
X70005366Y-48730319D01*
X69726142Y-48805137D01*
X69701662Y-48817880D01*
X69580003Y-48919963D01*
X69551010Y-48885410D01*
X69534121Y-48871239D01*
X69359880Y-48770641D01*
X69339163Y-48763100D01*
X69146462Y-48729122D01*
X69135501Y-48728163D01*
X68531809Y-48728163D01*
X68458000Y-48801972D01*
X68457999Y-50298000D01*
X68202000Y-50297999D01*
X68202001Y-48801972D01*
X68128192Y-48728163D01*
X67521742Y-48728163D01*
X67505366Y-48730319D01*
X67226142Y-48805137D01*
X67201662Y-48817880D01*
X67080003Y-48919963D01*
X67051010Y-48885410D01*
X67034121Y-48871239D01*
X66859880Y-48770641D01*
X66839163Y-48763100D01*
X66646462Y-48729122D01*
X66635501Y-48728163D01*
X66031809Y-48728163D01*
X65958000Y-48801972D01*
X65957999Y-49968192D01*
X65958000Y-49968193D01*
X65957999Y-50298000D01*
X64461972Y-50297999D01*
X64388163Y-50371808D01*
X63713369Y-50371808D01*
X63692870Y-50295304D01*
X63730125Y-50084018D01*
X63654592Y-49994000D01*
X63550172Y-49994000D01*
X63501010Y-49935410D01*
X63484121Y-49921239D01*
X63403451Y-49874664D01*
X63408339Y-49872120D01*
X63558643Y-49746000D01*
X63657973Y-49746000D01*
X63733626Y-49647408D01*
X63692870Y-49495304D01*
X63715934Y-49364499D01*
X64388163Y-49364499D01*
X64388163Y-49968191D01*
X64461972Y-50042000D01*
X65628191Y-50042001D01*
X65702000Y-49968192D01*
X65702001Y-48801972D01*
X65628192Y-48728163D01*
X65021742Y-48728163D01*
X65005366Y-48730319D01*
X64726142Y-48805137D01*
X64701662Y-48817880D01*
X64545410Y-48948990D01*
X64531239Y-48965879D01*
X64430641Y-49140120D01*
X64423100Y-49160837D01*
X64389122Y-49353538D01*
X64388163Y-49364499D01*
X63715934Y-49364499D01*
X63720878Y-49336462D01*
X63721837Y-49325501D01*
X63721837Y-48811741D01*
X63719681Y-48795366D01*
X63692870Y-48695304D01*
X63720878Y-48536462D01*
X63721837Y-48525501D01*
X63721837Y-48511837D01*
X64188259Y-48511837D01*
X64204634Y-48509681D01*
X64304696Y-48482870D01*
X64463538Y-48510878D01*
X64474499Y-48511837D01*
X64988259Y-48511837D01*
X65004634Y-48509681D01*
X65104696Y-48482870D01*
X65263538Y-48510878D01*
X65274499Y-48511837D01*
X65788259Y-48511837D01*
X65804634Y-48509681D01*
X65904696Y-48482870D01*
X66063538Y-48510878D01*
X66074499Y-48511837D01*
X66588259Y-48511837D01*
X66604634Y-48509681D01*
X66704696Y-48482870D01*
X66915982Y-48520125D01*
X67006000Y-48444592D01*
X67006000Y-48340172D01*
X67064590Y-48291010D01*
X67078761Y-48274121D01*
X67125336Y-48193451D01*
X67127880Y-48198339D01*
G36*
X76250178Y-34756393D02*
G01*
X76243100Y-34775837D01*
X76209122Y-34968538D01*
X76208163Y-34979499D01*
X76208163Y-36543258D01*
X76210319Y-36559634D01*
X76285137Y-36838859D01*
X76297880Y-36863339D01*
X76428990Y-37019590D01*
X76445879Y-37033761D01*
X76620120Y-37134359D01*
X76640837Y-37141900D01*
X76739001Y-37159209D01*
X76739000Y-42318461D01*
X76546142Y-42370137D01*
X76521662Y-42382880D01*
X76365410Y-42513990D01*
X76351239Y-42530879D01*
X76250641Y-42705120D01*
X76243100Y-42725837D01*
X76209122Y-42918538D01*
X76208163Y-42929499D01*
X76208163Y-44493258D01*
X76210319Y-44509634D01*
X76285137Y-44788859D01*
X76297880Y-44813339D01*
X76428990Y-44969590D01*
X76445879Y-44983761D01*
X76620120Y-45084359D01*
X76640837Y-45091900D01*
X76739000Y-45109209D01*
X76739001Y-48283782D01*
X76619837Y-48402946D01*
X76619837Y-48011742D01*
X76617681Y-47995366D01*
X76542863Y-47716142D01*
X76530120Y-47691662D01*
X76399010Y-47535410D01*
X76382121Y-47521239D01*
X76207880Y-47420641D01*
X76187163Y-47413100D01*
X75994462Y-47379122D01*
X75983501Y-47378163D01*
X73621837Y-47378163D01*
X73621837Y-45460742D01*
X73619681Y-45444366D01*
X73544863Y-45165142D01*
X73532120Y-45140662D01*
X73520520Y-45126837D01*
X73658258Y-45126837D01*
X73674634Y-45124681D01*
X73953859Y-45049863D01*
X73978339Y-45037120D01*
X74134590Y-44906010D01*
X74148761Y-44889121D01*
X74249359Y-44714880D01*
X74256900Y-44694163D01*
X74290878Y-44501462D01*
X74291837Y-44490501D01*
X74291837Y-43911809D01*
X74218028Y-43838000D01*
X73201808Y-43837999D01*
X73201807Y-43838000D01*
X71781972Y-43837999D01*
X71708163Y-43911808D01*
X71708163Y-44493258D01*
X71710319Y-44509634D01*
X71785137Y-44788859D01*
X71797880Y-44813339D01*
X71806123Y-44823163D01*
X71670742Y-44823163D01*
X71654366Y-44825319D01*
X71541197Y-44855642D01*
X71396462Y-44830122D01*
X71385501Y-44829163D01*
X70871741Y-44829163D01*
X70855366Y-44831319D01*
X70761659Y-44856427D01*
X70595462Y-44827122D01*
X70584501Y-44826163D01*
X70290000Y-44826163D01*
X70290000Y-42929499D01*
X71708163Y-42929499D01*
X71708163Y-43508191D01*
X71781972Y-43582000D01*
X72798191Y-43582001D01*
X72872000Y-43508192D01*
X72872000Y-43508191D01*
X73127999Y-43508191D01*
X73201808Y-43582000D01*
X74218028Y-43582001D01*
X74291837Y-43508192D01*
X74291837Y-42926742D01*
X74289681Y-42910366D01*
X74214863Y-42631142D01*
X74202120Y-42606662D01*
X74071010Y-42450410D01*
X74054121Y-42436239D01*
X73879880Y-42335641D01*
X73859163Y-42328100D01*
X73666462Y-42294122D01*
X73655501Y-42293163D01*
X73201809Y-42293163D01*
X73128000Y-42366972D01*
X73127999Y-43508191D01*
X72872000Y-43508191D01*
X72872001Y-42366972D01*
X72798192Y-42293163D01*
X72341742Y-42293163D01*
X72325366Y-42295319D01*
X72046142Y-42370137D01*
X72021662Y-42382880D01*
X71865410Y-42513990D01*
X71851239Y-42530879D01*
X71750641Y-42705120D01*
X71743100Y-42725837D01*
X71709122Y-42918538D01*
X71708163Y-42929499D01*
X70290000Y-42929499D01*
X70290000Y-42239127D01*
X70289999Y-42239115D01*
X70289999Y-42183816D01*
X70286897Y-42164228D01*
X70271263Y-42116113D01*
X70263347Y-42066135D01*
X70263347Y-41864591D01*
X70261191Y-41848215D01*
X70194901Y-41600818D01*
X70188580Y-41585558D01*
X70060518Y-41363748D01*
X70050463Y-41350644D01*
X69869356Y-41169537D01*
X69856252Y-41159482D01*
X69634442Y-41031420D01*
X69619182Y-41025099D01*
X69371785Y-40958809D01*
X69355409Y-40956653D01*
X69099285Y-40956653D01*
X69082909Y-40958809D01*
X68835512Y-41025099D01*
X68820252Y-41031420D01*
X68598442Y-41159482D01*
X68585338Y-41169537D01*
X68404231Y-41350644D01*
X68394176Y-41363748D01*
X68266114Y-41585558D01*
X68259793Y-41600818D01*
X68193503Y-41848215D01*
X68191347Y-41864591D01*
X68191347Y-42120715D01*
X68193503Y-42137091D01*
X68259793Y-42384488D01*
X68266114Y-42399748D01*
X68394176Y-42621558D01*
X68404231Y-42634662D01*
X68585338Y-42815769D01*
X68598442Y-42825824D01*
X68768000Y-42923719D01*
X68768001Y-44180786D01*
X66471000Y-41883786D01*
X66471000Y-40703021D01*
X66478011Y-40707527D01*
X66692676Y-40805561D01*
X66709969Y-40810639D01*
X66939093Y-40843582D01*
X66948070Y-40844224D01*
X67198191Y-40844224D01*
X67272000Y-40770415D01*
X67527999Y-40770415D01*
X67601808Y-40844224D01*
X67854184Y-40844224D01*
X67867614Y-40842780D01*
X68203353Y-40769745D01*
X68224188Y-40761115D01*
X68424620Y-40632304D01*
X68438241Y-40620501D01*
X68592783Y-40442151D01*
X68602527Y-40426989D01*
X68700561Y-40212324D01*
X68705639Y-40195031D01*
X68738582Y-39965907D01*
X68739224Y-39956930D01*
X68739224Y-39831809D01*
X68665415Y-39758000D01*
X67601809Y-39757999D01*
X67528000Y-39831808D01*
X67527999Y-40770415D01*
X67272000Y-40770415D01*
X67272001Y-39831808D01*
X67272000Y-39831807D01*
X67272001Y-39502000D01*
X68665415Y-39502001D01*
X68739224Y-39428192D01*
X68739224Y-39300816D01*
X68737780Y-39287386D01*
X68664745Y-38951647D01*
X68656115Y-38930812D01*
X68527304Y-38730380D01*
X68515501Y-38716759D01*
X68387709Y-38606026D01*
X68424620Y-38582304D01*
X68438241Y-38570501D01*
X68592783Y-38392151D01*
X68602527Y-38376989D01*
X68700561Y-38162324D01*
X68705639Y-38145031D01*
X68738582Y-37915907D01*
X68739224Y-37906930D01*
X68739224Y-37316990D01*
X70094406Y-35961808D01*
X71708163Y-35961808D01*
X71708163Y-36543258D01*
X71710319Y-36559634D01*
X71785137Y-36838859D01*
X71797880Y-36863339D01*
X71928990Y-37019590D01*
X71945879Y-37033761D01*
X72120120Y-37134359D01*
X72140837Y-37141900D01*
X72333538Y-37175878D01*
X72344499Y-37176837D01*
X72798191Y-37176837D01*
X72872000Y-37103028D01*
X73127999Y-37103028D01*
X73201808Y-37176837D01*
X73658258Y-37176837D01*
X73674634Y-37174681D01*
X73953859Y-37099863D01*
X73978339Y-37087120D01*
X74134590Y-36956010D01*
X74148761Y-36939121D01*
X74249359Y-36764880D01*
X74256900Y-36744163D01*
X74290878Y-36551462D01*
X74291837Y-36540501D01*
X74291837Y-35961809D01*
X74218028Y-35888000D01*
X73201809Y-35887999D01*
X73128000Y-35961808D01*
X73127999Y-37103028D01*
X72872000Y-37103028D01*
X72872001Y-35961809D01*
X72798192Y-35888000D01*
X71781972Y-35887999D01*
X71708163Y-35961808D01*
X70094406Y-35961808D01*
X71076716Y-34979499D01*
X71708163Y-34979499D01*
X71708163Y-35558191D01*
X71781972Y-35632000D01*
X72798191Y-35632001D01*
X72872000Y-35558192D01*
X72872000Y-35558191D01*
X73127999Y-35558191D01*
X73201808Y-35632000D01*
X74218028Y-35632001D01*
X74291837Y-35558192D01*
X74291837Y-34976742D01*
X74289681Y-34960366D01*
X74214863Y-34681142D01*
X74202120Y-34656662D01*
X74071010Y-34500410D01*
X74054121Y-34486239D01*
X73879880Y-34385641D01*
X73859163Y-34378100D01*
X73666462Y-34344122D01*
X73655501Y-34343163D01*
X73201809Y-34343163D01*
X73128000Y-34416972D01*
X73127999Y-35558191D01*
X72872000Y-35558191D01*
X72872001Y-34416972D01*
X72798192Y-34343163D01*
X72341742Y-34343163D01*
X72325366Y-34345319D01*
X72046142Y-34420137D01*
X72021662Y-34432880D01*
X71865410Y-34563990D01*
X71851239Y-34580879D01*
X71750641Y-34755120D01*
X71743100Y-34775837D01*
X71709122Y-34968538D01*
X71708163Y-34979499D01*
X71076716Y-34979499D01*
X71820215Y-34236001D01*
X73750178Y-34236001D01*
X73750190Y-34236000D01*
X73805488Y-34236000D01*
X73825077Y-34232898D01*
X73873192Y-34217264D01*
X73923175Y-34209348D01*
X73942038Y-34203219D01*
X73987125Y-34180246D01*
X74035243Y-34164612D01*
X74052915Y-34155607D01*
X74093846Y-34125868D01*
X74138933Y-34102895D01*
X74154979Y-34091237D01*
X74311406Y-33934810D01*
X74311411Y-33934803D01*
X74504819Y-33741395D01*
X74531134Y-33749844D01*
X74541535Y-33752236D01*
X74780262Y-33786212D01*
X74790917Y-33786817D01*
X75031956Y-33780084D01*
X75042561Y-33778885D01*
X75234348Y-33740562D01*
X76250178Y-34756393D01*
G37*
X76250178Y-34756393D02*
X76243100Y-34775837D01*
X76209122Y-34968538D01*
X76208163Y-34979499D01*
X76208163Y-36543258D01*
X76210319Y-36559634D01*
X76285137Y-36838859D01*
X76297880Y-36863339D01*
X76428990Y-37019590D01*
X76445879Y-37033761D01*
X76620120Y-37134359D01*
X76640837Y-37141900D01*
X76739001Y-37159209D01*
X76739000Y-42318461D01*
X76546142Y-42370137D01*
X76521662Y-42382880D01*
X76365410Y-42513990D01*
X76351239Y-42530879D01*
X76250641Y-42705120D01*
X76243100Y-42725837D01*
X76209122Y-42918538D01*
X76208163Y-42929499D01*
X76208163Y-44493258D01*
X76210319Y-44509634D01*
X76285137Y-44788859D01*
X76297880Y-44813339D01*
X76428990Y-44969590D01*
X76445879Y-44983761D01*
X76620120Y-45084359D01*
X76640837Y-45091900D01*
X76739000Y-45109209D01*
X76739001Y-48283782D01*
X76619837Y-48402946D01*
X76619837Y-48011742D01*
X76617681Y-47995366D01*
X76542863Y-47716142D01*
X76530120Y-47691662D01*
X76399010Y-47535410D01*
X76382121Y-47521239D01*
X76207880Y-47420641D01*
X76187163Y-47413100D01*
X75994462Y-47379122D01*
X75983501Y-47378163D01*
X73621837Y-47378163D01*
X73621837Y-45460742D01*
X73619681Y-45444366D01*
X73544863Y-45165142D01*
X73532120Y-45140662D01*
X73520520Y-45126837D01*
X73658258Y-45126837D01*
X73674634Y-45124681D01*
X73953859Y-45049863D01*
X73978339Y-45037120D01*
X74134590Y-44906010D01*
X74148761Y-44889121D01*
X74249359Y-44714880D01*
X74256900Y-44694163D01*
X74290878Y-44501462D01*
X74291837Y-44490501D01*
X74291837Y-43911809D01*
X74218028Y-43838000D01*
X73201808Y-43837999D01*
X73201807Y-43838000D01*
X71781972Y-43837999D01*
X71708163Y-43911808D01*
X71708163Y-44493258D01*
X71710319Y-44509634D01*
X71785137Y-44788859D01*
X71797880Y-44813339D01*
X71806123Y-44823163D01*
X71670742Y-44823163D01*
X71654366Y-44825319D01*
X71541197Y-44855642D01*
X71396462Y-44830122D01*
X71385501Y-44829163D01*
X70871741Y-44829163D01*
X70855366Y-44831319D01*
X70761659Y-44856427D01*
X70595462Y-44827122D01*
X70584501Y-44826163D01*
X70290000Y-44826163D01*
X70290000Y-42929499D01*
X71708163Y-42929499D01*
X71708163Y-43508191D01*
X71781972Y-43582000D01*
X72798191Y-43582001D01*
X72872000Y-43508192D01*
X72872000Y-43508191D01*
X73127999Y-43508191D01*
X73201808Y-43582000D01*
X74218028Y-43582001D01*
X74291837Y-43508192D01*
X74291837Y-42926742D01*
X74289681Y-42910366D01*
X74214863Y-42631142D01*
X74202120Y-42606662D01*
X74071010Y-42450410D01*
X74054121Y-42436239D01*
X73879880Y-42335641D01*
X73859163Y-42328100D01*
X73666462Y-42294122D01*
X73655501Y-42293163D01*
X73201809Y-42293163D01*
X73128000Y-42366972D01*
X73127999Y-43508191D01*
X72872000Y-43508191D01*
X72872001Y-42366972D01*
X72798192Y-42293163D01*
X72341742Y-42293163D01*
X72325366Y-42295319D01*
X72046142Y-42370137D01*
X72021662Y-42382880D01*
X71865410Y-42513990D01*
X71851239Y-42530879D01*
X71750641Y-42705120D01*
X71743100Y-42725837D01*
X71709122Y-42918538D01*
X71708163Y-42929499D01*
X70290000Y-42929499D01*
X70290000Y-42239127D01*
X70289999Y-42239115D01*
X70289999Y-42183816D01*
X70286897Y-42164228D01*
X70271263Y-42116113D01*
X70263347Y-42066135D01*
X70263347Y-41864591D01*
X70261191Y-41848215D01*
X70194901Y-41600818D01*
X70188580Y-41585558D01*
X70060518Y-41363748D01*
X70050463Y-41350644D01*
X69869356Y-41169537D01*
X69856252Y-41159482D01*
X69634442Y-41031420D01*
X69619182Y-41025099D01*
X69371785Y-40958809D01*
X69355409Y-40956653D01*
X69099285Y-40956653D01*
X69082909Y-40958809D01*
X68835512Y-41025099D01*
X68820252Y-41031420D01*
X68598442Y-41159482D01*
X68585338Y-41169537D01*
X68404231Y-41350644D01*
X68394176Y-41363748D01*
X68266114Y-41585558D01*
X68259793Y-41600818D01*
X68193503Y-41848215D01*
X68191347Y-41864591D01*
X68191347Y-42120715D01*
X68193503Y-42137091D01*
X68259793Y-42384488D01*
X68266114Y-42399748D01*
X68394176Y-42621558D01*
X68404231Y-42634662D01*
X68585338Y-42815769D01*
X68598442Y-42825824D01*
X68768000Y-42923719D01*
X68768001Y-44180786D01*
X66471000Y-41883786D01*
X66471000Y-40703021D01*
X66478011Y-40707527D01*
X66692676Y-40805561D01*
X66709969Y-40810639D01*
X66939093Y-40843582D01*
X66948070Y-40844224D01*
X67198191Y-40844224D01*
X67272000Y-40770415D01*
X67527999Y-40770415D01*
X67601808Y-40844224D01*
X67854184Y-40844224D01*
X67867614Y-40842780D01*
X68203353Y-40769745D01*
X68224188Y-40761115D01*
X68424620Y-40632304D01*
X68438241Y-40620501D01*
X68592783Y-40442151D01*
X68602527Y-40426989D01*
X68700561Y-40212324D01*
X68705639Y-40195031D01*
X68738582Y-39965907D01*
X68739224Y-39956930D01*
X68739224Y-39831809D01*
X68665415Y-39758000D01*
X67601809Y-39757999D01*
X67528000Y-39831808D01*
X67527999Y-40770415D01*
X67272000Y-40770415D01*
X67272001Y-39831808D01*
X67272000Y-39831807D01*
X67272001Y-39502000D01*
X68665415Y-39502001D01*
X68739224Y-39428192D01*
X68739224Y-39300816D01*
X68737780Y-39287386D01*
X68664745Y-38951647D01*
X68656115Y-38930812D01*
X68527304Y-38730380D01*
X68515501Y-38716759D01*
X68387709Y-38606026D01*
X68424620Y-38582304D01*
X68438241Y-38570501D01*
X68592783Y-38392151D01*
X68602527Y-38376989D01*
X68700561Y-38162324D01*
X68705639Y-38145031D01*
X68738582Y-37915907D01*
X68739224Y-37906930D01*
X68739224Y-37316990D01*
X70094406Y-35961808D01*
X71708163Y-35961808D01*
X71708163Y-36543258D01*
X71710319Y-36559634D01*
X71785137Y-36838859D01*
X71797880Y-36863339D01*
X71928990Y-37019590D01*
X71945879Y-37033761D01*
X72120120Y-37134359D01*
X72140837Y-37141900D01*
X72333538Y-37175878D01*
X72344499Y-37176837D01*
X72798191Y-37176837D01*
X72872000Y-37103028D01*
X73127999Y-37103028D01*
X73201808Y-37176837D01*
X73658258Y-37176837D01*
X73674634Y-37174681D01*
X73953859Y-37099863D01*
X73978339Y-37087120D01*
X74134590Y-36956010D01*
X74148761Y-36939121D01*
X74249359Y-36764880D01*
X74256900Y-36744163D01*
X74290878Y-36551462D01*
X74291837Y-36540501D01*
X74291837Y-35961809D01*
X74218028Y-35888000D01*
X73201809Y-35887999D01*
X73128000Y-35961808D01*
X73127999Y-37103028D01*
X72872000Y-37103028D01*
X72872001Y-35961809D01*
X72798192Y-35888000D01*
X71781972Y-35887999D01*
X71708163Y-35961808D01*
X70094406Y-35961808D01*
X71076716Y-34979499D01*
X71708163Y-34979499D01*
X71708163Y-35558191D01*
X71781972Y-35632000D01*
X72798191Y-35632001D01*
X72872000Y-35558192D01*
X72872000Y-35558191D01*
X73127999Y-35558191D01*
X73201808Y-35632000D01*
X74218028Y-35632001D01*
X74291837Y-35558192D01*
X74291837Y-34976742D01*
X74289681Y-34960366D01*
X74214863Y-34681142D01*
X74202120Y-34656662D01*
X74071010Y-34500410D01*
X74054121Y-34486239D01*
X73879880Y-34385641D01*
X73859163Y-34378100D01*
X73666462Y-34344122D01*
X73655501Y-34343163D01*
X73201809Y-34343163D01*
X73128000Y-34416972D01*
X73127999Y-35558191D01*
X72872000Y-35558191D01*
X72872001Y-34416972D01*
X72798192Y-34343163D01*
X72341742Y-34343163D01*
X72325366Y-34345319D01*
X72046142Y-34420137D01*
X72021662Y-34432880D01*
X71865410Y-34563990D01*
X71851239Y-34580879D01*
X71750641Y-34755120D01*
X71743100Y-34775837D01*
X71709122Y-34968538D01*
X71708163Y-34979499D01*
X71076716Y-34979499D01*
X71820215Y-34236001D01*
X73750178Y-34236001D01*
X73750190Y-34236000D01*
X73805488Y-34236000D01*
X73825077Y-34232898D01*
X73873192Y-34217264D01*
X73923175Y-34209348D01*
X73942038Y-34203219D01*
X73987125Y-34180246D01*
X74035243Y-34164612D01*
X74052915Y-34155607D01*
X74093846Y-34125868D01*
X74138933Y-34102895D01*
X74154979Y-34091237D01*
X74311406Y-33934810D01*
X74311411Y-33934803D01*
X74504819Y-33741395D01*
X74531134Y-33749844D01*
X74541535Y-33752236D01*
X74780262Y-33786212D01*
X74790917Y-33786817D01*
X75031956Y-33780084D01*
X75042561Y-33778885D01*
X75234348Y-33740562D01*
X76250178Y-34756393D01*
M02*
